SplineFontDB: 3.2
FontName: FBKINGDOM-FONT
FullName: FBKINGDOM-FONT
FamilyName: FBKINGDOM-FONT
Weight: Regular
Copyright: Copyright (c) 2024, kbinani
UComments: "2024-11-7: Created with FontForge (http://fontforge.org)"
Version: 001.000
ItalicAngle: 0
UnderlinePosition: -100
UnderlineWidth: 50
Ascent: 800
Descent: 200
InvalidEm: 0
LayerCount: 2
Layer: 0 0 "+gMyXYgAA" 1
Layer: 1 0 "+Uk2XYgAA" 0
XUID: [1021 716 1131550121 30788]
StyleMap: 0x0000
FSType: 0
OS2Version: 0
OS2_WeightWidthSlopeOnly: 0
OS2_UseTypoMetrics: 1
CreationTime: 1730956758
ModificationTime: 1731221366
PfmFamily: 17
TTFWeight: 400
TTFWidth: 5
LineGap: 90
VLineGap: 90
OS2TypoAscent: 0
OS2TypoAOffset: 1
OS2TypoDescent: 0
OS2TypoDOffset: 1
OS2TypoLinegap: 90
OS2WinAscent: 0
OS2WinAOffset: 1
OS2WinDescent: 0
OS2WinDOffset: 1
HheadAscent: 0
HheadAOffset: 1
HheadDescent: 0
HheadDOffset: 1
OS2Vendor: 'PfEd'
Lookup: 4 0 0 "'ccmp' +MLAw6jDVVAhiEAAA-/+UgaJ4wAA in +XnNO7lQNMGhyR07uVA0A lookup 1" { "'ccmp' +MLAw6jDVVAhiEAAA-/+UgaJ4wAA in +XnNO7lQNMGhyR07uVA0A lookup 1-1"  "'ccmp' +MLAw6jDVVAhiEAAA-/+UgaJ4wAA in +XnNO7lQNMGhyR07uVA0A lookup 1-2"  "'ccmp' +MLAw6jDVVAhiEAAA-/+UgaJ4wAA in +XnNO7lQNMGhyR07uVA0A lookup 1-3"  } ['ccmp' ('DFLT' <'dflt' > 'kana' <'dflt' > ) ]
MarkAttachClasses: 1
DEI: 91125
LangName: 1033 "" "" "Regular"
Encoding: UnicodeBmp
UnicodeInterp: none
NameList: AGL For New Fonts
DisplaySize: -48
AntiAlias: 1
FitToEm: 0
WinInfo: 12939 19 14
BeginPrivate: 0
EndPrivate
TeXData: 1 0 0 346030 173015 115343 0 1048576 115343 783286 444596 497025 792723 393216 433062 380633 303038 157286 324010 404750 52429 2506097 1059062 262144
BeginChars: 65540 303

StartChar: uni3042
Encoding: 12354 12354 0
Width: 669
Flags: W
HStem: -67.5 27.9648<193.792 493.208>
VStem: 493.208 30.0615<-39.5352 540.58>
LayerCount: 2
Fore
SplineSet
523.26953125 663.4609375 m 1
 523.26953125 -67.5 l 1
 146 -67.5 l 1
 523.26953125 663.4609375 l 1
493.208007812 540.580078125 m 1
 193.791992188 -39.53515625 l 1
 493.208007812 -39.53515625 l 1
 493.208007812 540.580078125 l 1
EndSplineSet
Validated: 1
EndChar

StartChar: uni3044
Encoding: 12356 12356 1
Width: 523
Flags: W
HStem: 434.355 22.7197<218.277 304.89> 642.802 22.7217<218.277 304.89>
VStem: 146 22.7207<506.632 593.245> 215.152 92.8633<-67.5 402.742> 354.446 22.7217<506.632 593.245>
LayerCount: 2
Fore
SplineSet
215.15234375 -67.5 m 1
 215.15234375 402.7421875 l 1
 308.015625 402.7421875 l 1
 308.015625 -67.5 l 1
 215.15234375 -67.5 l 1
261.583007812 665.5234375 m 0
 325.375976562 665.5234375 377.16796875 613.731445312 377.16796875 549.938476562 c 0
 377.16796875 486.146484375 325.375976562 434.35546875 261.583007812 434.35546875 c 0
 197.791015625 434.35546875 146.000976562 486.146484375 146 549.938476562 c 0
 146 613.731445312 197.791015625 665.522460938 261.583007812 665.5234375 c 0
261.583007812 642.801757812 m 0
 210.331054688 642.801757812 168.720703125 601.19140625 168.720703125 549.938476562 c 0
 168.720703125 498.686523438 210.331054688 457.075195312 261.583007812 457.075195312 c 0
 312.8359375 457.075195312 354.446289062 498.686523438 354.446289062 549.938476562 c 0
 354.446289062 601.19140625 312.8359375 642.801757812 261.583007812 642.801757812 c 0
EndSplineSet
Validated: 1
EndChar

StartChar: uni3046
Encoding: 12358 12358 2
Width: 621
Flags: W
HStem: 56.1973 27.6445<166.02 455.816> 512.817 27.6445<166.02 455.816>
VStem: 146 20.0195<83.8418 512.817> 455.816 20.0186<83.8418 512.817>
LayerCount: 2
Fore
SplineSet
146 540.461914062 m 1
 475.834960938 540.461914062 l 1
 475.834960938 56.197265625 l 1
 146 56.197265625 l 1
 146 540.461914062 l 1
166.01953125 512.817382812 m 1
 166.01953125 83.841796875 l 1
 455.81640625 83.841796875 l 1
 455.81640625 512.817382812 l 1
 166.01953125 512.817382812 l 1
EndSplineSet
Validated: 1
EndChar

StartChar: uni3048
Encoding: 12360 12360 3
Width: 669
Flags: W
HStem: 639.535 27.9648<193.792 493.207>
VStem: 493.207 30.0615<59.4199 639.535>
LayerCount: 2
Fore
SplineSet
523.268554688 -63.4609375 m 1
 146 667.5 l 1
 523.268554688 667.5 l 1
 523.268554688 -63.4609375 l 1
493.20703125 59.419921875 m 1
 493.20703125 639.53515625 l 1
 193.791992188 639.53515625 l 1
 493.20703125 59.419921875 l 1
EndSplineSet
Validated: 1
EndChar

StartChar: uni304A
Encoding: 12362 12362 4
Width: 633
Flags: W
HStem: 127.423 25.6855<257.667 376.146> 443.551 25.6855<257.667 376.145>
VStem: 146 25.6855<239.091 357.569> 462.128 25.6855<239.091 357.57>
LayerCount: 2
Fore
SplineSet
316.90625 469.236328125 m 0
 411.231445312 469.236328125 487.8125 392.65625 487.813476562 298.330078125 c 0
 487.813476562 204.00390625 411.232421875 127.422851562 316.90625 127.422851562 c 0
 222.580078125 127.423828125 146 204.004882812 146 298.330078125 c 0
 146.000976562 392.655273438 222.581054688 469.235351562 316.90625 469.236328125 c 0
316.90625 443.55078125 m 0
 236.756835938 443.549804688 171.686523438 378.479492188 171.685546875 298.330078125 c 0
 171.685546875 218.180664062 236.756835938 153.109375 316.90625 153.108398438 c 0
 397.055664062 153.108398438 462.127929688 218.180664062 462.127929688 298.330078125 c 0
 462.126953125 378.48046875 397.055664062 443.55078125 316.90625 443.55078125 c 0
EndSplineSet
Validated: 1
EndChar

StartChar: uni304B
Encoding: 12363 12363 5
Width: 987
Flags: W
HStem: -67.5 27.9648<512.516 811.93>
VStem: 146 100.767<-24.6055 667.5> 811.93 30.0615<-39.5352 540.58>
LayerCount: 2
Fore
SplineSet
841.991210938 663.4609375 m 1
 841.991210938 -67.5 l 1
 464.724609375 -67.5 l 1
 841.991210938 663.4609375 l 1
811.9296875 540.580078125 m 1
 512.515625 -39.53515625 l 1
 811.9296875 -39.53515625 l 1
 811.9296875 540.580078125 l 1
146 667.5 m 1
 246.766601562 667.5 l 1
 246.766601562 -24.60546875 l 1
 569.5 667.5 l 1
 640.62890625 667.5 l 1
 297.893554688 -67.5 l 1
 246.766601562 -67.5 l 1
 226.763671875 -67.5 l 1
 146 -67.5 l 1
 146 667.5 l 1
EndSplineSet
Validated: 1
EndChar

StartChar: uni304F
Encoding: 12367 12367 6
Width: 1128
Flags: W
HStem: 12.2764 27.6445<672.922 962.718> 468.896 27.6445<672.922 962.718>
VStem: 146 100.767<-24.6055 667.5> 652.903 20.0186<39.9209 468.896> 962.718 20.0186<39.9209 468.896>
LayerCount: 2
Fore
SplineSet
652.903320312 496.541015625 m 1
 982.736328125 496.541015625 l 1
 982.736328125 12.2763671875 l 1
 652.903320312 12.2763671875 l 1
 652.903320312 496.541015625 l 1
672.921875 468.896484375 m 1
 672.921875 39.9208984375 l 1
 962.717773438 39.9208984375 l 1
 962.717773438 468.896484375 l 1
 672.921875 468.896484375 l 1
146 667.5 m 1
 246.766601562 667.5 l 1
 246.766601562 -24.60546875 l 1
 569.5 667.5 l 1
 640.62890625 667.5 l 1
 297.893554688 -67.5 l 1
 246.766601562 -67.5 l 1
 226.763671875 -67.5 l 1
 146 -67.5 l 1
 146 667.5 l 1
EndSplineSet
Validated: 1
EndChar

StartChar: uni3051
Encoding: 12369 12369 7
Width: 1167
Flags: W
HStem: 639.535 27.9648<692.217 991.63>
VStem: 146 100.767<-24.6055 667.5> 991.63 30.0605<59.4199 639.535>
LayerCount: 2
Fore
SplineSet
1021.69042969 -63.4609375 m 1
 644.424804688 667.5 l 1
 1021.69042969 667.5 l 1
 1021.69042969 -63.4609375 l 1
991.629882812 59.419921875 m 1
 991.629882812 639.53515625 l 1
 692.216796875 639.53515625 l 1
 991.629882812 59.419921875 l 1
146 667.5 m 1
 246.766601562 667.5 l 1
 246.766601562 -24.60546875 l 1
 569.5 667.5 l 1
 640.62890625 667.5 l 1
 297.893554688 -67.5 l 1
 246.766601562 -67.5 l 1
 226.763671875 -67.5 l 1
 146 -67.5 l 1
 146 667.5 l 1
EndSplineSet
Validated: 1
EndChar

StartChar: uni3053
Encoding: 12371 12371 8
Width: 1068
Flags: W
HStem: 127.423 25.6855<692.807 811.286> 443.551 25.6855<692.807 811.285>
VStem: 146 100.767<-24.6055 667.5> 581.142 25.6846<239.091 357.569> 897.268 25.6846<239.091 357.569>
LayerCount: 2
Fore
SplineSet
752.045898438 469.236328125 m 0
 846.372070312 469.236328125 922.952148438 392.65625 922.952148438 298.330078125 c 0
 922.952148438 204.004882812 846.372070312 127.423828125 752.045898438 127.422851562 c 0
 657.720703125 127.424804688 581.141601562 204.004882812 581.141601562 298.330078125 c 0
 581.142578125 392.655273438 657.721679688 469.235351562 752.045898438 469.236328125 c 0
752.045898438 443.55078125 m 0
 671.897460938 443.549804688 606.827148438 378.479492188 606.826171875 298.330078125 c 0
 606.826171875 218.181640625 671.897460938 153.109375 752.045898438 153.108398438 c 0
 832.196289062 153.109375 897.267578125 218.180664062 897.267578125 298.330078125 c 0
 897.266601562 378.479492188 832.1953125 443.55078125 752.045898438 443.55078125 c 0
146 667.5 m 1
 246.766601562 667.5 l 1
 246.766601562 -24.60546875 l 1
 569.5 667.5 l 1
 640.62890625 667.5 l 1
 297.893554688 -67.5 l 1
 246.766601562 -67.5 l 1
 226.763671875 -67.5 l 1
 146 -67.5 l 1
 146 667.5 l 1
EndSplineSet
Validated: 1
EndChar

StartChar: uni3055
Encoding: 12373 12373 9
Width: 1082
Flags: W
HStem: -67.5 21.8516<155.454 476.76 606.708 906.122> 645.648 21.8516<221.335 546.839>
VStem: 906.122 30.0615<-39.5352 540.58>
LayerCount: 2
Fore
SplineSet
936.18359375 663.4609375 m 1
 936.18359375 -67.5 l 1
 558.916015625 -67.5 l 1
 936.18359375 663.4609375 l 1
906.122070312 540.580078125 m 1
 606.708007812 -39.53515625 l 1
 906.122070312 -39.53515625 l 1
 906.122070312 540.580078125 l 1
146 667.5 m 1
 195.145507812 667.5 l 1
 211.201171875 667.5 l 1
 546.838867188 667.5 l 1
 546.838867188 645.6484375 l 1
 221.334960938 645.6484375 l 1
 552.094726562 -67.5 l 1
 507.1484375 -67.5 l 1
 486.893554688 -67.5 l 1
 155.454101562 -67.5 l 1
 155.454101562 -45.6484375 l 1
 476.759765625 -45.6484375 l 1
 146 667.5 l 1
EndSplineSet
Validated: 1
EndChar

StartChar: uni3057
Encoding: 12375 12375 10
Width: 1057
Flags: W
HStem: -67.5 21.8516<155.454 476.76> 434.355 22.7197<752.299 838.912> 645.648 21.8516<221.335 546.839 759.012 832.199>
VStem: 680.022 22.7207<506.632 593.245> 749.175 92.8633<-67.5 402.742> 888.469 22.7217<506.632 593.245>
LayerCount: 2
Fore
SplineSet
749.174804688 -67.5 m 1
 749.174804688 402.7421875 l 1
 842.038085938 402.7421875 l 1
 842.038085938 -67.5 l 1
 749.174804688 -67.5 l 1
795.60546875 665.5234375 m 0
 859.3984375 665.5234375 911.190429688 613.731445312 911.190429688 549.938476562 c 0
 911.189453125 486.146484375 859.3984375 434.35546875 795.60546875 434.35546875 c 0
 731.813476562 434.35546875 680.0234375 486.146484375 680.022460938 549.938476562 c 0
 680.022460938 613.731445312 731.813476562 665.522460938 795.60546875 665.5234375 c 0
795.60546875 642.801757812 m 0
 744.353515625 642.801757812 702.743164062 601.19140625 702.743164062 549.938476562 c 0
 702.743164062 498.686523438 744.353515625 457.075195312 795.60546875 457.075195312 c 0
 846.858398438 457.075195312 888.46875 498.686523438 888.46875 549.938476562 c 0
 888.46875 601.19140625 846.858398438 642.801757812 795.60546875 642.801757812 c 0
146 667.5 m 1
 195.145507812 667.5 l 1
 211.201171875 667.5 l 1
 546.838867188 667.5 l 1
 546.838867188 645.6484375 l 1
 221.334960938 645.6484375 l 1
 552.094726562 -67.5 l 1
 507.1484375 -67.5 l 1
 486.893554688 -67.5 l 1
 155.454101562 -67.5 l 1
 155.454101562 -45.6484375 l 1
 476.759765625 -45.6484375 l 1
 146 667.5 l 1
EndSplineSet
Validated: 1
EndChar

StartChar: uni3059
Encoding: 12377 12377 11
Width: 1129
Flags: W
HStem: -67.5 21.8516<155.454 476.76> 56.1973 27.6445<673.98 963.776> 512.817 27.6445<673.98 963.776> 645.648 21.8516<221.335 546.839>
VStem: 653.961 20.0195<83.8418 512.817> 963.776 20.0186<83.8418 512.817>
LayerCount: 2
Fore
SplineSet
653.9609375 540.461914062 m 1
 983.794921875 540.461914062 l 1
 983.794921875 56.197265625 l 1
 653.9609375 56.197265625 l 1
 653.9609375 540.461914062 l 1
673.98046875 512.817382812 m 1
 673.98046875 83.841796875 l 1
 963.776367188 83.841796875 l 1
 963.776367188 512.817382812 l 1
 673.98046875 512.817382812 l 1
146 667.5 m 1
 195.145507812 667.5 l 1
 211.201171875 667.5 l 1
 546.838867188 667.5 l 1
 546.838867188 645.6484375 l 1
 221.334960938 645.6484375 l 1
 552.094726562 -67.5 l 1
 507.1484375 -67.5 l 1
 486.893554688 -67.5 l 1
 155.454101562 -67.5 l 1
 155.454101562 -45.6484375 l 1
 476.759765625 -45.6484375 l 1
 146 667.5 l 1
EndSplineSet
Validated: 1
EndChar

StartChar: uni305B
Encoding: 12379 12379 12
Width: 1083
Flags: W
HStem: -67.5 21.8516<155.454 476.76> 645.648 21.8516<221.335 546.839 608.079 907.492>
VStem: 907.492 30.0615<59.4199 639.535>
LayerCount: 2
Fore
SplineSet
937.553710938 -63.4609375 m 1
 560.287109375 667.5 l 1
 937.553710938 667.5 l 1
 937.553710938 -63.4609375 l 1
907.4921875 59.419921875 m 1
 907.4921875 639.53515625 l 1
 608.079101562 639.53515625 l 1
 907.4921875 59.419921875 l 1
146 667.5 m 1
 195.145507812 667.5 l 1
 211.201171875 667.5 l 1
 546.838867188 667.5 l 1
 546.838867188 645.6484375 l 1
 221.334960938 645.6484375 l 1
 552.094726562 -67.5 l 1
 507.1484375 -67.5 l 1
 486.893554688 -67.5 l 1
 155.454101562 -67.5 l 1
 155.454101562 -45.6484375 l 1
 476.759765625 -45.6484375 l 1
 146 667.5 l 1
EndSplineSet
Validated: 1
EndChar

StartChar: uni305D
Encoding: 12381 12381 13
Width: 1036
Flags: W
HStem: -67.5 21.8516<155.454 476.76> 127.423 25.6855<659.999 778.477> 443.551 25.6855<659.999 778.477> 645.648 21.8516<221.335 546.839>
VStem: 548.333 25.6855<239.091 357.569> 864.459 25.6855<239.091 357.569>
LayerCount: 2
Fore
SplineSet
719.23828125 469.236328125 m 0
 813.563476562 469.236328125 890.143554688 392.65625 890.14453125 298.330078125 c 0
 890.14453125 204.004882812 813.563476562 127.423828125 719.23828125 127.422851562 c 0
 624.913085938 127.424804688 548.333007812 204.004882812 548.333007812 298.330078125 c 0
 548.333984375 392.655273438 624.913085938 469.235351562 719.23828125 469.236328125 c 0
719.23828125 443.55078125 m 0
 639.088867188 443.549804688 574.018554688 378.479492188 574.018554688 298.330078125 c 0
 574.018554688 218.181640625 639.088867188 153.109375 719.23828125 153.108398438 c 0
 799.387695312 153.108398438 864.458984375 218.180664062 864.458984375 298.330078125 c 0
 864.458007812 378.479492188 799.387695312 443.55078125 719.23828125 443.55078125 c 0
146 667.5 m 1
 195.145507812 667.5 l 1
 211.201171875 667.5 l 1
 546.838867188 667.5 l 1
 546.838867188 645.6484375 l 1
 221.334960938 645.6484375 l 1
 552.094726562 -67.5 l 1
 507.1484375 -67.5 l 1
 486.893554688 -67.5 l 1
 155.454101562 -67.5 l 1
 155.454101562 -45.6484375 l 1
 476.759765625 -45.6484375 l 1
 146 667.5 l 1
EndSplineSet
Validated: 1
EndChar

StartChar: uni305F
Encoding: 12383 12383 14
Width: 1012
Flags: W
HStem: -67.5 27.9648<537.438 836.854> 254.557 88.9111<341.787 547.271>
VStem: 146 90.8867<-67.5 667.5> 836.854 30.0615<-39.5352 540.58>
LayerCount: 2
Fore
SplineSet
866.915039062 663.4609375 m 1
 866.915039062 -67.5 l 1
 489.645507812 -67.5 l 1
 866.915039062 663.4609375 l 1
836.853515625 540.580078125 m 1
 537.4375 -39.53515625 l 1
 836.853515625 -39.53515625 l 1
 836.853515625 540.580078125 l 1
146 -67.5 m 1
 146 667.5 l 1
 236.88671875 667.5 l 1
 236.88671875 -67.5 l 1
 146 -67.5 l 1
341.787109375 254.556640625 m 1
 341.787109375 343.467773438 l 1
 547.271484375 343.467773438 l 1
 547.271484375 254.556640625 l 1
 341.787109375 254.556640625 l 1
EndSplineSet
Validated: 1
EndChar

StartChar: uni3061
Encoding: 12385 12385 15
Width: 959
Flags: W
HStem: 254.557 88.9111<341.787 547.271> 434.355 22.7197<654.456 741.068> 642.802 22.7217<654.456 741.068>
VStem: 146 90.8867<-67.5 667.5> 582.179 22.7207<506.632 593.245> 651.331 92.8633<-67.5 402.742> 790.625 22.7217<506.632 593.245>
LayerCount: 2
Fore
SplineSet
651.331054688 -67.5 m 1
 651.331054688 402.7421875 l 1
 744.194335938 402.7421875 l 1
 744.194335938 -67.5 l 1
 651.331054688 -67.5 l 1
697.76171875 665.5234375 m 0
 761.5546875 665.5234375 813.346679688 613.731445312 813.346679688 549.938476562 c 0
 813.346679688 486.146484375 761.5546875 434.35546875 697.76171875 434.35546875 c 0
 633.969726562 434.35546875 582.1796875 486.146484375 582.178710938 549.938476562 c 0
 582.178710938 613.731445312 633.969726562 665.522460938 697.76171875 665.5234375 c 0
697.76171875 642.801757812 m 0
 646.509765625 642.801757812 604.899414062 601.19140625 604.899414062 549.938476562 c 0
 604.899414062 498.686523438 646.509765625 457.075195312 697.76171875 457.075195312 c 0
 749.014648438 457.075195312 790.625 498.686523438 790.625 549.938476562 c 0
 790.625 601.19140625 749.014648438 642.801757812 697.76171875 642.801757812 c 0
146 -67.5 m 1
 146 667.5 l 1
 236.88671875 667.5 l 1
 236.88671875 -67.5 l 1
 146 -67.5 l 1
341.787109375 254.556640625 m 1
 341.787109375 343.467773438 l 1
 547.271484375 343.467773438 l 1
 547.271484375 254.556640625 l 1
 341.787109375 254.556640625 l 1
EndSplineSet
Validated: 1
EndChar

StartChar: uni3064
Encoding: 12388 12388 16
Width: 1124
Flags: W
HStem: 78.9521 27.6445<668.212 958.008> 254.557 88.9111<341.787 547.271> 535.572 27.6445<668.212 958.008>
VStem: 146 90.8867<-67.5 667.5> 648.193 20.0186<106.597 535.572> 958.008 20.0186<106.597 535.572>
LayerCount: 2
Fore
SplineSet
146 -67.5 m 1
 146 667.5 l 1
 236.88671875 667.5 l 1
 236.88671875 -67.5 l 1
 146 -67.5 l 1
341.787109375 254.556640625 m 1
 341.787109375 343.467773438 l 1
 547.271484375 343.467773438 l 1
 547.271484375 254.556640625 l 1
 341.787109375 254.556640625 l 1
648.193359375 563.216796875 m 1
 978.026367188 563.216796875 l 1
 978.026367188 78.9521484375 l 1
 648.193359375 78.9521484375 l 1
 648.193359375 563.216796875 l 1
668.211914062 535.572265625 m 1
 668.211914062 106.596679688 l 1
 958.0078125 106.596679688 l 1
 958.0078125 535.572265625 l 1
 668.211914062 535.572265625 l 1
EndSplineSet
Validated: 1
EndChar

StartChar: uni3066
Encoding: 12390 12390 17
Width: 1008
Flags: W
HStem: 254.557 88.9111<341.787 547.271> 639.535 27.9648<532.99 832.404>
VStem: 146 90.8867<-67.5 667.5> 832.404 30.0605<59.4199 639.535>
LayerCount: 2
Fore
SplineSet
146 -67.5 m 1
 146 667.5 l 1
 236.88671875 667.5 l 1
 236.88671875 -67.5 l 1
 146 -67.5 l 1
341.787109375 254.556640625 m 1
 341.787109375 343.467773438 l 1
 547.271484375 343.467773438 l 1
 547.271484375 254.556640625 l 1
 341.787109375 254.556640625 l 1
862.46484375 -63.4609375 m 1
 485.198242188 667.5 l 1
 862.46484375 667.5 l 1
 862.46484375 -63.4609375 l 1
832.404296875 59.419921875 m 1
 832.404296875 639.53515625 l 1
 532.990234375 639.53515625 l 1
 832.404296875 59.419921875 l 1
EndSplineSet
Validated: 1
EndChar

StartChar: uni3068
Encoding: 12392 12392 18
Width: 1151
Flags: W
HStem: 127.423 25.6855<775.357 893.835> 254.557 88.9111<341.787 547.271> 443.551 25.6855<775.357 893.835>
VStem: 146 90.8867<-67.5 667.5> 663.691 25.6846<239.091 357.569> 979.816 25.6855<239.091 357.569>
LayerCount: 2
Fore
SplineSet
146 -67.5 m 1
 146 667.5 l 1
 236.88671875 667.5 l 1
 236.88671875 -67.5 l 1
 146 -67.5 l 1
341.787109375 254.556640625 m 1
 341.787109375 343.467773438 l 1
 547.271484375 343.467773438 l 1
 547.271484375 254.556640625 l 1
 341.787109375 254.556640625 l 1
834.595703125 469.236328125 m 0
 928.920898438 469.236328125 1005.50097656 392.65625 1005.50195312 298.330078125 c 0
 1005.50195312 204.004882812 928.920898438 127.423828125 834.595703125 127.422851562 c 0
 740.270507812 127.424804688 663.69140625 204.005859375 663.69140625 298.330078125 c 0
 663.692382812 392.655273438 740.271484375 469.234375 834.595703125 469.236328125 c 0
834.595703125 443.55078125 m 0
 754.446289062 443.549804688 689.375976562 378.479492188 689.375976562 298.330078125 c 0
 689.375976562 218.181640625 754.446289062 153.109375 834.595703125 153.108398438 c 0
 914.745117188 153.108398438 979.81640625 218.180664062 979.81640625 298.330078125 c 0
 979.815429688 378.479492188 914.744140625 443.55078125 834.595703125 443.55078125 c 0
EndSplineSet
Validated: 1
EndChar

StartChar: uni306A
Encoding: 12394 12394 19
Width: 1167
Flags: W
HStem: -67.5 27.9648<691.955 991.37>
VStem: 146 100.767<-67.5 624.605> 991.37 30.0605<-39.5352 540.58>
LayerCount: 2
Fore
SplineSet
1021.43066406 663.4609375 m 1
 1021.43066406 -67.5 l 1
 644.162109375 -67.5 l 1
 1021.43066406 663.4609375 l 1
991.370117188 540.580078125 m 1
 691.955078125 -39.53515625 l 1
 991.370117188 -39.53515625 l 1
 991.370117188 540.580078125 l 1
146 -67.5 m 1
 146 667.5 l 1
 226.763671875 667.5 l 1
 246.766601562 667.5 l 1
 297.893554688 667.5 l 1
 640.62890625 -67.5 l 1
 569.5 -67.5 l 1
 246.766601562 624.60546875 l 1
 246.766601562 -67.5 l 1
 146 -67.5 l 1
EndSplineSet
Validated: 1
EndChar

StartChar: uni306B
Encoding: 12395 12395 20
Width: 1012
Flags: W
HStem: 434.355 22.7197<707.373 793.985> 642.802 22.7217<707.373 793.985>
VStem: 146 100.767<-67.5 624.605> 635.096 22.7207<506.632 593.245> 704.248 92.8633<-67.5 402.742> 843.542 22.7217<506.632 593.245>
LayerCount: 2
Fore
SplineSet
146 -67.5 m 1
 146 667.5 l 1
 226.763671875 667.5 l 1
 246.766601562 667.5 l 1
 297.893554688 667.5 l 1
 640.62890625 -67.5 l 1
 569.5 -67.5 l 1
 246.766601562 624.60546875 l 1
 246.766601562 -67.5 l 1
 146 -67.5 l 1
704.248046875 -67.5 m 1
 704.248046875 402.7421875 l 1
 797.111328125 402.7421875 l 1
 797.111328125 -67.5 l 1
 704.248046875 -67.5 l 1
750.678710938 665.5234375 m 0
 814.471679688 665.5234375 866.263671875 613.731445312 866.263671875 549.938476562 c 0
 866.262695312 486.146484375 814.471679688 434.35546875 750.678710938 434.35546875 c 0
 686.88671875 434.35546875 635.096679688 486.146484375 635.095703125 549.938476562 c 0
 635.095703125 613.731445312 686.88671875 665.522460938 750.678710938 665.5234375 c 0
750.678710938 642.801757812 m 0
 699.426757812 642.801757812 657.81640625 601.19140625 657.81640625 549.938476562 c 0
 657.81640625 498.686523438 699.426757812 457.075195312 750.678710938 457.075195312 c 0
 801.931640625 457.075195312 843.541992188 498.686523438 843.541992188 549.938476562 c 0
 843.541992188 601.19140625 801.931640625 642.801757812 750.678710938 642.801757812 c 0
EndSplineSet
Validated: 1
EndChar

StartChar: uni306C
Encoding: 12396 12396 21
Width: 1125
Flags: W
HStem: 56.1973 27.6445<670.003 959.801> 512.817 27.6445<670.003 959.801>
VStem: 146 100.767<-67.5 624.605> 649.983 20.0195<83.8418 512.817> 959.801 20.0176<83.8418 512.817>
LayerCount: 2
Fore
SplineSet
649.983398438 540.461914062 m 1
 979.818359375 540.461914062 l 1
 979.818359375 56.197265625 l 1
 649.983398438 56.197265625 l 1
 649.983398438 540.461914062 l 1
670.002929688 512.817382812 m 1
 670.002929688 83.841796875 l 1
 959.80078125 83.841796875 l 1
 959.80078125 512.817382812 l 1
 670.002929688 512.817382812 l 1
146 -67.5 m 1
 146 667.5 l 1
 226.763671875 667.5 l 1
 246.766601562 667.5 l 1
 297.893554688 667.5 l 1
 640.62890625 -67.5 l 1
 569.5 -67.5 l 1
 246.766601562 624.60546875 l 1
 246.766601562 -67.5 l 1
 146 -67.5 l 1
EndSplineSet
Validated: 1
EndChar

StartChar: uni306D
Encoding: 12397 12397 22
Width: 987
Flags: W
HStem: 639.535 27.9648<512.517 811.931>
VStem: 146 100.767<-67.5 624.605> 811.931 30.0605<59.4199 639.535>
LayerCount: 2
Fore
SplineSet
841.991210938 -63.4609375 m 1
 464.724609375 667.5 l 1
 841.991210938 667.5 l 1
 841.991210938 -63.4609375 l 1
811.930664062 59.419921875 m 1
 811.930664062 639.53515625 l 1
 512.516601562 639.53515625 l 1
 811.930664062 59.419921875 l 1
146 -67.5 m 1
 146 667.5 l 1
 226.763671875 667.5 l 1
 246.766601562 667.5 l 1
 297.893554688 667.5 l 1
 640.62890625 -67.5 l 1
 569.5 -67.5 l 1
 246.766601562 624.60546875 l 1
 246.766601562 -67.5 l 1
 146 -67.5 l 1
EndSplineSet
Validated: 1
EndChar

StartChar: uni306E
Encoding: 12398 12398 23
Width: 1090
Flags: W
HStem: 127.423 25.6855<714.025 832.503> 443.551 25.6855<714.025 832.503>
VStem: 146 100.767<-67.5 624.605> 602.358 25.6855<239.091 357.569> 918.486 25.6846<239.091 357.57>
LayerCount: 2
Fore
SplineSet
773.263671875 469.236328125 m 0
 867.58984375 469.236328125 944.170898438 392.65625 944.170898438 298.330078125 c 0
 944.170898438 204.00390625 867.58984375 127.422851562 773.263671875 127.422851562 c 0
 678.938476562 127.423828125 602.358398438 204.004882812 602.358398438 298.330078125 c 0
 602.359375 392.655273438 678.938476562 469.235351562 773.263671875 469.236328125 c 0
773.263671875 443.55078125 m 0
 693.115234375 443.55078125 628.043945312 378.479492188 628.043945312 298.330078125 c 0
 628.043945312 218.180664062 693.114257812 153.109375 773.263671875 153.108398438 c 0
 853.4140625 153.108398438 918.486328125 218.180664062 918.486328125 298.330078125 c 0
 918.485351562 378.48046875 853.4140625 443.55078125 773.263671875 443.55078125 c 0
146 -67.5 m 1
 146 667.5 l 1
 226.763671875 667.5 l 1
 246.766601562 667.5 l 1
 297.893554688 667.5 l 1
 640.62890625 -67.5 l 1
 569.5 -67.5 l 1
 246.766601562 624.60546875 l 1
 246.766601562 -67.5 l 1
 146 -67.5 l 1
EndSplineSet
Validated: 1
EndChar

StartChar: uni306F
Encoding: 12399 12399 24
Width: 1148
Flags: W
HStem: -67.5 21.7334<236.888 620.292 673.434 972.85>
VStem: 146 90.8877<-45.7666 667.5> 972.85 30.0615<-39.5352 540.58>
LayerCount: 2
Fore
SplineSet
1002.91113281 663.4609375 m 1
 1002.91113281 -67.5 l 1
 625.641601562 -67.5 l 1
 1002.91113281 663.4609375 l 1
972.849609375 540.580078125 m 1
 673.43359375 -39.53515625 l 1
 972.849609375 -39.53515625 l 1
 972.849609375 540.580078125 l 1
146 667.5 m 1
 236.887695312 667.5 l 1
 236.887695312 -45.7666015625 l 1
 620.291992188 -45.7666015625 l 1
 620.291992188 -67.5 l 1
 236.887695312 -67.5 l 1
 184.586914062 -67.5 l 1
 146 -67.5 l 1
 146 667.5 l 1
EndSplineSet
Validated: 1
EndChar

StartChar: uni3072
Encoding: 12402 12402 25
Width: 1072
Flags: W
HStem: -67.5 21.7334<236.888 620.292> 434.355 22.7197<767.698 854.311> 642.802 22.7217<767.698 854.311>
VStem: 146 90.8877<-45.7666 667.5> 695.421 22.7207<506.632 593.245> 764.573 92.8633<-67.5 402.742> 903.867 22.7217<506.632 593.245>
LayerCount: 2
Fore
SplineSet
764.573242188 -67.5 m 1
 764.573242188 402.7421875 l 1
 857.436523438 402.7421875 l 1
 857.436523438 -67.5 l 1
 764.573242188 -67.5 l 1
811.00390625 665.5234375 m 0
 874.796875 665.5234375 926.588867188 613.731445312 926.588867188 549.938476562 c 0
 926.587890625 486.146484375 874.796875 434.35546875 811.00390625 434.35546875 c 0
 747.211914062 434.35546875 695.421875 486.146484375 695.420898438 549.938476562 c 0
 695.420898438 613.731445312 747.211914062 665.522460938 811.00390625 665.5234375 c 0
811.00390625 642.801757812 m 0
 759.751953125 642.801757812 718.141601562 601.19140625 718.141601562 549.938476562 c 0
 718.141601562 498.686523438 759.751953125 457.075195312 811.00390625 457.075195312 c 0
 862.256835938 457.075195312 903.8671875 498.686523438 903.8671875 549.938476562 c 0
 903.8671875 601.19140625 862.256835938 642.801757812 811.00390625 642.801757812 c 0
146 667.5 m 1
 236.887695312 667.5 l 1
 236.887695312 -45.7666015625 l 1
 620.291992188 -45.7666015625 l 1
 620.291992188 -67.5 l 1
 236.887695312 -67.5 l 1
 184.586914062 -67.5 l 1
 146 -67.5 l 1
 146 667.5 l 1
EndSplineSet
Validated: 1
EndChar

StartChar: uni3075
Encoding: 12405 12405 26
Width: 937
Flags: W
HStem: -67.5 21.7334<236.888 620.292> 183.235 27.6445<481.787 771.584> 639.855 27.6445<481.787 771.584>
VStem: 146 90.8877<-45.7666 667.5> 461.768 20.0195<210.88 639.855> 771.584 20.0186<210.88 639.855>
LayerCount: 2
Fore
SplineSet
461.767578125 667.5 m 1
 791.602539062 667.5 l 1
 791.602539062 183.235351562 l 1
 461.767578125 183.235351562 l 1
 461.767578125 667.5 l 1
481.787109375 639.85546875 m 1
 481.787109375 210.879882812 l 1
 771.583984375 210.879882812 l 1
 771.583984375 639.85546875 l 1
 481.787109375 639.85546875 l 1
146 667.5 m 1
 236.887695312 667.5 l 1
 236.887695312 -45.7666015625 l 1
 620.291992188 -45.7666015625 l 1
 620.291992188 -67.5 l 1
 236.887695312 -67.5 l 1
 184.586914062 -67.5 l 1
 146 -67.5 l 1
 146 667.5 l 1
EndSplineSet
Validated: 1
EndChar

StartChar: uni3078
Encoding: 12408 12408 27
Width: 971
Flags: W
HStem: -67.5 21.7334<236.888 620.292> 639.535 27.9648<496.478 795.892>
VStem: 146 90.8877<-45.7666 667.5> 795.892 30.0605<59.4199 639.535>
LayerCount: 2
Fore
SplineSet
825.952148438 -63.4609375 m 1
 448.685546875 667.5 l 1
 825.952148438 667.5 l 1
 825.952148438 -63.4609375 l 1
795.891601562 59.419921875 m 1
 795.891601562 639.53515625 l 1
 496.477539062 639.53515625 l 1
 795.891601562 59.419921875 l 1
146 667.5 m 1
 236.887695312 667.5 l 1
 236.887695312 -45.7666015625 l 1
 620.291992188 -45.7666015625 l 1
 620.291992188 -67.5 l 1
 236.887695312 -67.5 l 1
 184.586914062 -67.5 l 1
 146 -67.5 l 1
 146 667.5 l 1
EndSplineSet
Validated: 1
EndChar

StartChar: uni307B
Encoding: 12411 12411 28
Width: 985
Flags: W
HStem: -67.5 21.7334<236.888 620.292> 127.423 25.6855<609.25 727.729> 443.551 25.6855<609.25 727.728>
VStem: 146 90.8877<-45.7666 667.5> 497.583 25.6855<239.091 357.569> 813.711 25.6855<239.091 357.57>
LayerCount: 2
Fore
SplineSet
668.489257812 469.236328125 m 0
 762.814453125 469.236328125 839.395507812 392.65625 839.396484375 298.330078125 c 0
 839.396484375 204.00390625 762.815429688 127.422851562 668.489257812 127.422851562 c 0
 574.163085938 127.423828125 497.583007812 204.004882812 497.583007812 298.330078125 c 0
 497.583984375 392.655273438 574.1640625 469.235351562 668.489257812 469.236328125 c 0
668.489257812 443.55078125 m 0
 588.33984375 443.55078125 523.26953125 378.479492188 523.268554688 298.330078125 c 0
 523.268554688 218.180664062 588.33984375 153.109375 668.489257812 153.108398438 c 0
 748.638671875 153.108398438 813.7109375 218.180664062 813.7109375 298.330078125 c 0
 813.709960938 378.48046875 748.638671875 443.55078125 668.489257812 443.55078125 c 0
146 667.5 m 1
 236.887695312 667.5 l 1
 236.887695312 -45.7666015625 l 1
 620.291992188 -45.7666015625 l 1
 620.291992188 -67.5 l 1
 236.887695312 -67.5 l 1
 184.586914062 -67.5 l 1
 146 -67.5 l 1
 146 667.5 l 1
EndSplineSet
Validated: 1
EndChar

StartChar: uni307E
Encoding: 12414 12414 29
Width: 1134
Flags: W
HStem: -67.5 27.9648<658.604 958.019>
VStem: 146 90.8867<-67.5 667.5> 406.666 90.8867<-67.5 667.5> 958.019 30.0605<-39.5352 540.58>
LayerCount: 2
Fore
SplineSet
988.079101562 663.4609375 m 1
 988.079101562 -67.5 l 1
 610.8125 -67.5 l 1
 988.079101562 663.4609375 l 1
958.018554688 540.580078125 m 1
 658.604492188 -39.53515625 l 1
 958.018554688 -39.53515625 l 1
 958.018554688 540.580078125 l 1
146 -67.5 m 1
 146 667.5 l 1
 236.88671875 667.5 l 1
 236.88671875 -67.5 l 1
 146 -67.5 l 1
406.666015625 -67.5 m 1
 406.666015625 667.5 l 1
 497.552734375 667.5 l 1
 497.552734375 -67.5 l 1
 406.666015625 -67.5 l 1
EndSplineSet
Validated: 1
EndChar

StartChar: uni307F
Encoding: 12415 12415 30
Width: 1072
Flags: W
HStem: 434.355 22.7197<767.684 854.297> 642.802 22.7217<767.684 854.297>
VStem: 146 90.8867<-67.5 667.5> 406.666 90.8867<-67.5 667.5> 695.407 22.7207<506.632 593.245> 764.56 92.8633<-67.5 402.742> 903.854 22.7217<506.632 593.245>
LayerCount: 2
Fore
SplineSet
764.559570312 -67.5 m 1
 764.559570312 402.7421875 l 1
 857.422851562 402.7421875 l 1
 857.422851562 -67.5 l 1
 764.559570312 -67.5 l 1
810.990234375 665.5234375 m 0
 874.783203125 665.5234375 926.575195312 613.731445312 926.575195312 549.938476562 c 0
 926.57421875 486.146484375 874.783203125 434.35546875 810.990234375 434.35546875 c 0
 747.198242188 434.35546875 695.408203125 486.146484375 695.407226562 549.938476562 c 0
 695.407226562 613.731445312 747.198242188 665.522460938 810.990234375 665.5234375 c 0
810.990234375 642.801757812 m 0
 759.73828125 642.801757812 718.127929688 601.19140625 718.127929688 549.938476562 c 0
 718.127929688 498.686523438 759.73828125 457.075195312 810.990234375 457.075195312 c 0
 862.243164062 457.075195312 903.853515625 498.686523438 903.853515625 549.938476562 c 0
 903.853515625 601.19140625 862.243164062 642.801757812 810.990234375 642.801757812 c 0
146 -67.5 m 1
 146 667.5 l 1
 236.88671875 667.5 l 1
 236.88671875 -67.5 l 1
 146 -67.5 l 1
406.666015625 -67.5 m 1
 406.666015625 667.5 l 1
 497.552734375 667.5 l 1
 497.552734375 -67.5 l 1
 406.666015625 -67.5 l 1
EndSplineSet
Validated: 1
EndChar

StartChar: uni3080
Encoding: 12416 12416 31
Width: 1120
Flags: W
HStem: 183.235 27.6445<665.034 954.832> 639.855 27.6445<665.034 954.832>
VStem: 146 90.8867<-67.5 667.5> 406.666 90.8867<-67.5 667.5> 645.015 20.0195<210.88 639.855> 954.832 20.0186<210.88 639.855>
LayerCount: 2
Fore
SplineSet
146 -67.5 m 1
 146 667.5 l 1
 236.88671875 667.5 l 1
 236.88671875 -67.5 l 1
 146 -67.5 l 1
406.666015625 -67.5 m 1
 406.666015625 667.5 l 1
 497.552734375 667.5 l 1
 497.552734375 -67.5 l 1
 406.666015625 -67.5 l 1
645.014648438 667.5 m 1
 974.850585938 667.5 l 1
 974.850585938 183.235351562 l 1
 645.014648438 183.235351562 l 1
 645.014648438 667.5 l 1
665.034179688 639.85546875 m 1
 665.034179688 210.879882812 l 1
 954.83203125 210.879882812 l 1
 954.83203125 639.85546875 l 1
 665.034179688 639.85546875 l 1
EndSplineSet
Validated: 1
EndChar

StartChar: uni3081
Encoding: 12417 12417 32
Width: 1134
Flags: W
HStem: 639.535 27.9648<658.603 958.019>
VStem: 146 90.8867<-67.5 667.5> 406.666 90.8867<-67.5 667.5> 958.019 30.0605<59.4199 639.535>
LayerCount: 2
Fore
SplineSet
988.079101562 -63.4609375 m 1
 610.810546875 667.5 l 1
 988.079101562 667.5 l 1
 988.079101562 -63.4609375 l 1
958.018554688 59.419921875 m 1
 958.018554688 639.53515625 l 1
 658.602539062 639.53515625 l 1
 958.018554688 59.419921875 l 1
146 -67.5 m 1
 146 667.5 l 1
 236.88671875 667.5 l 1
 236.88671875 -67.5 l 1
 146 -67.5 l 1
406.666015625 -67.5 m 1
 406.666015625 667.5 l 1
 497.552734375 667.5 l 1
 497.552734375 -67.5 l 1
 406.666015625 -67.5 l 1
EndSplineSet
Validated: 1
EndChar

StartChar: uni3082
Encoding: 12418 12418 33
Width: 1126
Flags: W
HStem: 127.423 25.6855<750.537 869.016> 443.551 25.6855<750.538 869.016>
VStem: 146 90.8867<-67.5 667.5> 406.666 90.8867<-67.5 667.5> 638.871 25.6855<239.091 357.569> 954.999 25.6855<239.091 357.57>
LayerCount: 2
Fore
SplineSet
146 -67.5 m 1
 146 667.5 l 1
 236.88671875 667.5 l 1
 236.88671875 -67.5 l 1
 146 -67.5 l 1
406.666015625 -67.5 m 1
 406.666015625 667.5 l 1
 497.552734375 667.5 l 1
 497.552734375 -67.5 l 1
 406.666015625 -67.5 l 1
809.776367188 469.236328125 m 0
 904.102539062 469.236328125 980.68359375 392.65625 980.684570312 298.330078125 c 0
 980.684570312 204.00390625 904.102539062 127.422851562 809.776367188 127.422851562 c 0
 715.451171875 127.423828125 638.87109375 204.004882812 638.87109375 298.330078125 c 0
 638.872070312 392.655273438 715.451171875 469.235351562 809.776367188 469.236328125 c 0
809.776367188 443.55078125 m 0
 729.627929688 443.55078125 664.556640625 378.479492188 664.556640625 298.330078125 c 0
 664.556640625 218.180664062 729.626953125 153.109375 809.776367188 153.108398438 c 0
 889.926757812 153.108398438 954.999023438 218.180664062 954.999023438 298.330078125 c 0
 954.998046875 378.48046875 889.926757812 443.55078125 809.776367188 443.55078125 c 0
EndSplineSet
Validated: 1
EndChar

StartChar: uni3084
Encoding: 12420 12420 34
Width: 1176
Flags: W
HStem: -67.5 27.9648<701.467 1000.88> 645.767 21.7334<146 529.404>
VStem: 529.404 90.8877<-67.5 645.767> 1000.88 30.0615<-39.5352 540.58>
LayerCount: 2
Fore
SplineSet
1030.94335938 663.4609375 m 1
 1030.94335938 -67.5 l 1
 653.673828125 -67.5 l 1
 1030.94335938 663.4609375 l 1
1000.88183594 540.580078125 m 1
 701.466796875 -39.53515625 l 1
 1000.88183594 -39.53515625 l 1
 1000.88183594 540.580078125 l 1
620.291992188 -67.5 m 1
 529.404296875 -67.5 l 1
 529.404296875 645.766601562 l 1
 146 645.766601562 l 1
 146 667.5 l 1
 529.404296875 667.5 l 1
 581.705078125 667.5 l 1
 620.291992188 667.5 l 1
 620.291992188 -67.5 l 1
EndSplineSet
Validated: 1
EndChar

StartChar: uni3086
Encoding: 12422 12422 35
Width: 1234
Flags: W
HStem: 56.1973 27.6445<778.266 1068.06> 512.817 27.6445<778.266 1068.06> 645.767 21.7334<146 529.404>
VStem: 529.404 90.8877<-67.5 645.767> 758.246 20.0195<83.8418 512.817> 1068.06 20.0186<83.8418 512.817>
LayerCount: 2
Fore
SplineSet
758.24609375 540.461914062 m 1
 1088.08007812 540.461914062 l 1
 1088.08007812 56.197265625 l 1
 758.24609375 56.197265625 l 1
 758.24609375 540.461914062 l 1
778.265625 512.817382812 m 1
 778.265625 83.841796875 l 1
 1068.06152344 83.841796875 l 1
 1068.06152344 512.817382812 l 1
 778.265625 512.817382812 l 1
620.291992188 -67.5 m 1
 529.404296875 -67.5 l 1
 529.404296875 645.766601562 l 1
 146 645.766601562 l 1
 146 667.5 l 1
 529.404296875 667.5 l 1
 581.705078125 667.5 l 1
 620.291992188 667.5 l 1
 620.291992188 -67.5 l 1
EndSplineSet
Validated: 1
EndChar

StartChar: uni3088
Encoding: 12424 12424 36
Width: 1213
Flags: W
HStem: 131.128 25.6846<837.196 955.673> 447.255 25.6855<837.196 955.673> 645.767 21.7334<146 529.404>
VStem: 529.404 90.8877<-67.5 645.767> 725.529 25.6855<242.796 361.274> 1041.65 25.6855<242.796 361.274>
LayerCount: 2
Fore
SplineSet
896.434570312 472.940429688 m 0
 990.758789062 472.939453125 1067.33789062 396.359375 1067.33886719 302.03515625 c 0
 1067.33886719 207.708984375 990.759765625 131.12890625 896.434570312 131.127929688 c 0
 802.109375 131.12890625 725.529296875 207.708984375 725.529296875 302.03515625 c 0
 725.530273438 396.359375 802.109375 472.939453125 896.434570312 472.940429688 c 0
896.434570312 447.254882812 m 0
 816.286132812 447.25390625 751.215820312 382.18359375 751.21484375 302.03515625 c 0
 751.21484375 221.885742188 816.28515625 156.814453125 896.434570312 156.8125 c 0
 976.583007812 156.814453125 1041.65332031 221.885742188 1041.65332031 302.03515625 c 0
 1041.65332031 382.18359375 976.583007812 447.25390625 896.434570312 447.254882812 c 0
620.291992188 -67.5 m 1
 529.404296875 -67.5 l 1
 529.404296875 645.766601562 l 1
 146 645.766601562 l 1
 146 667.5 l 1
 529.404296875 667.5 l 1
 581.705078125 667.5 l 1
 620.291992188 667.5 l 1
 620.291992188 -67.5 l 1
EndSplineSet
Validated: 1
EndChar

StartChar: uni3089
Encoding: 12425 12425 37
Width: 971
Flags: W
HStem: -67.5 27.9648<496.476 795.891> 645.767 21.7334<236.888 620.292>
VStem: 146 90.8877<-67.5 645.767> 795.891 30.0615<-39.5352 540.58>
LayerCount: 2
Fore
SplineSet
825.952148438 663.4609375 m 1
 825.952148438 -67.5 l 1
 448.682617188 -67.5 l 1
 825.952148438 663.4609375 l 1
795.890625 540.580078125 m 1
 496.475585938 -39.53515625 l 1
 795.890625 -39.53515625 l 1
 795.890625 540.580078125 l 1
146 -67.5 m 1
 146 667.5 l 1
 184.586914062 667.5 l 1
 236.887695312 667.5 l 1
 620.291992188 667.5 l 1
 620.291992188 645.766601562 l 1
 236.887695312 645.766601562 l 1
 236.887695312 -67.5 l 1
 146 -67.5 l 1
EndSplineSet
Validated: 1
EndChar

StartChar: uni308A
Encoding: 12426 12426 38
Width: 1054
Flags: W
HStem: 434.355 22.7197<749.137 835.75> 645.767 21.7334<236.888 620.292 755.85 829.037>
VStem: 146 90.8877<-67.5 645.767> 676.86 22.7207<506.632 593.245> 746.013 92.8623<-67.5 402.742> 885.307 22.7217<506.632 593.245>
LayerCount: 2
Fore
SplineSet
746.012695312 -67.5 m 1
 746.012695312 402.7421875 l 1
 838.875 402.7421875 l 1
 838.875 -67.5 l 1
 746.012695312 -67.5 l 1
792.443359375 665.5234375 m 0
 856.236328125 665.5234375 908.028320312 613.731445312 908.028320312 549.938476562 c 0
 908.02734375 486.146484375 856.236328125 434.35546875 792.443359375 434.35546875 c 0
 728.651367188 434.35546875 676.860351562 486.146484375 676.860351562 549.938476562 c 0
 676.860351562 613.731445312 728.651367188 665.522460938 792.443359375 665.5234375 c 0
792.443359375 642.801757812 m 0
 741.19140625 642.801757812 699.581054688 601.19140625 699.581054688 549.938476562 c 0
 699.581054688 498.686523438 741.19140625 457.075195312 792.443359375 457.075195312 c 0
 843.696289062 457.075195312 885.306640625 498.686523438 885.306640625 549.938476562 c 0
 885.306640625 601.19140625 843.696289062 642.801757812 792.443359375 642.801757812 c 0
146 -67.5 m 1
 146 667.5 l 1
 184.586914062 667.5 l 1
 236.887695312 667.5 l 1
 620.291992188 667.5 l 1
 620.291992188 645.766601562 l 1
 236.887695312 645.766601562 l 1
 236.887695312 -67.5 l 1
 146 -67.5 l 1
EndSplineSet
Validated: 1
EndChar

StartChar: uni308B
Encoding: 12427 12427 39
Width: 922
Flags: W
HStem: -67.5 27.6445<467.089 756.885> 389.12 27.6445<467.089 756.885> 645.767 21.7334<236.888 620.292>
VStem: 146 90.8877<-67.5 645.767> 447.07 20.0186<-39.8555 389.12> 756.885 20.0186<-39.8555 389.12>
LayerCount: 2
Fore
SplineSet
447.0703125 416.764648438 m 1
 776.903320312 416.764648438 l 1
 776.903320312 -67.5 l 1
 447.0703125 -67.5 l 1
 447.0703125 416.764648438 l 1
467.088867188 389.120117188 m 1
 467.088867188 -39.85546875 l 1
 756.884765625 -39.85546875 l 1
 756.884765625 389.120117188 l 1
 467.088867188 389.120117188 l 1
146 -67.5 m 1
 146 667.5 l 1
 184.586914062 667.5 l 1
 236.887695312 667.5 l 1
 620.291992188 667.5 l 1
 620.291992188 645.766601562 l 1
 236.887695312 645.766601562 l 1
 236.887695312 -67.5 l 1
 146 -67.5 l 1
EndSplineSet
Validated: 1
EndChar

StartChar: uni308C
Encoding: 12428 12428 40
Width: 1148
Flags: W
HStem: 645.767 21.7334<236.888 620.292 673.435 972.85>
VStem: 146 90.8877<-67.5 645.767> 972.85 30.0615<59.4199 639.535>
LayerCount: 2
Fore
SplineSet
1002.91113281 -63.4609375 m 1
 625.642578125 667.5 l 1
 1002.91113281 667.5 l 1
 1002.91113281 -63.4609375 l 1
972.849609375 59.419921875 m 1
 972.849609375 639.53515625 l 1
 673.434570312 639.53515625 l 1
 972.849609375 59.419921875 l 1
146 -67.5 m 1
 146 667.5 l 1
 184.586914062 667.5 l 1
 236.887695312 667.5 l 1
 620.291992188 667.5 l 1
 620.291992188 645.766601562 l 1
 236.887695312 645.766601562 l 1
 236.887695312 -67.5 l 1
 146 -67.5 l 1
EndSplineSet
Validated: 1
EndChar

StartChar: uni308D
Encoding: 12429 12429 41
Width: 985
Flags: W
HStem: 130.764 25.6855<609.25 727.728> 446.892 25.6855<609.25 727.729> 645.767 21.7334<236.888 620.292>
VStem: 146 90.8877<-67.5 645.767> 497.583 25.6855<242.431 360.909> 813.711 25.6855<242.431 360.909>
LayerCount: 2
Fore
SplineSet
668.489257812 130.763671875 m 0
 574.1640625 130.764648438 497.583984375 207.344726562 497.583007812 301.669921875 c 0
 497.583007812 395.995117188 574.163085938 472.576171875 668.489257812 472.577148438 c 0
 762.815429688 472.577148438 839.396484375 395.99609375 839.396484375 301.669921875 c 0
 839.395507812 207.34375 762.814453125 130.763671875 668.489257812 130.763671875 c 0
668.489257812 156.44921875 m 0
 748.638671875 156.44921875 813.709960938 221.520507812 813.7109375 301.669921875 c 0
 813.7109375 381.819335938 748.638671875 446.891601562 668.489257812 446.891601562 c 0
 588.33984375 446.890625 523.268554688 381.819335938 523.268554688 301.669921875 c 0
 523.26953125 221.520507812 588.33984375 156.450195312 668.489257812 156.44921875 c 0
146 -67.5 m 1
 146 667.5 l 1
 184.586914062 667.5 l 1
 236.887695312 667.5 l 1
 620.291992188 667.5 l 1
 620.291992188 645.766601562 l 1
 236.887695312 645.766601562 l 1
 236.887695312 -67.5 l 1
 146 -67.5 l 1
EndSplineSet
Validated: 1
EndChar

StartChar: uni304C
Encoding: 12364 12364 42
Width: 987
Flags: W
HStem: -67.5 27.9648<512.516 811.93> 504.919 162.581<679.41 760.164 793.524 811.93>
VStem: 146 100.767<-24.6055 667.5> 679.41 162.581<504.919 667.5> 811.93 30.0615<-39.5352 504.919>
LayerCount: 2
Fore
SplineSet
679.41015625 667.5 m 1xf0
 841.991210938 667.5 l 1
 841.991210938 663.4609375 l 1
 841.991210938 504.918945312 l 1xf0
 841.991210938 -67.5 l 1xe8
 464.724609375 -67.5 l 1
 760.1640625 504.918945312 l 1
 679.41015625 504.918945312 l 1
 679.41015625 667.5 l 1xf0
793.524414062 504.918945312 m 1
 512.515625 -39.53515625 l 1
 811.9296875 -39.53515625 l 1
 811.9296875 504.918945312 l 1xe8
 793.524414062 504.918945312 l 1
146 667.5 m 1
 246.766601562 667.5 l 1
 246.766601562 -24.60546875 l 1
 569.5 667.5 l 1
 640.62890625 667.5 l 1
 297.893554688 -67.5 l 1
 246.766601562 -67.5 l 1
 226.763671875 -67.5 l 1
 146 -67.5 l 1
 146 667.5 l 1
EndSplineSet
Validated: 1
Ligature2: "'ccmp' +MLAw6jDVVAhiEAAA-/+UgaJ4wAA in +XnNO7lQNMGhyR07uVA0A lookup 1-1" uniFF76 uniFF9E
EndChar

StartChar: uni304E
Encoding: 12366 12366 43
Width: 1072
Flags: W
HStem: -67.5 162.581<467.76 630.341> 434.355 22.7197<767.116 853.729> 642.802 22.7217<767.116 853.729>
VStem: 146 100.767<-24.6055 667.5> 467.76 162.581<-67.5 95.0811> 694.839 22.7207<506.632 593.245> 763.991 92.8633<-67.5 402.742> 903.285 22.7217<506.632 593.245>
LayerCount: 2
Fore
SplineSet
763.991210938 -67.5 m 1
 763.991210938 402.7421875 l 1
 856.854492188 402.7421875 l 1
 856.854492188 -67.5 l 1
 763.991210938 -67.5 l 1
810.421875 665.5234375 m 0
 874.21484375 665.5234375 926.006835938 613.731445312 926.006835938 549.938476562 c 0
 926.006835938 486.146484375 874.21484375 434.35546875 810.421875 434.35546875 c 0
 746.630859375 434.35546875 694.83984375 486.146484375 694.838867188 549.938476562 c 0
 694.838867188 613.731445312 746.629882812 665.522460938 810.421875 665.5234375 c 0
810.421875 642.801757812 m 0
 759.169921875 642.801757812 717.559570312 601.19140625 717.559570312 549.938476562 c 0
 717.559570312 498.686523438 759.169921875 457.075195312 810.421875 457.075195312 c 0
 861.674804688 457.075195312 903.28515625 498.686523438 903.28515625 549.938476562 c 0
 903.28515625 601.19140625 861.674804688 642.801757812 810.421875 642.801757812 c 0
146 667.5 m 1
 246.766601562 667.5 l 1
 246.766601562 -24.60546875 l 1
 569.5 667.5 l 1
 640.62890625 667.5 l 1
 297.893554688 -67.5 l 1
 246.766601562 -67.5 l 1
 226.763671875 -67.5 l 1
 146 -67.5 l 1
 146 667.5 l 1
467.759765625 -67.5 m 1
 467.759765625 95.0810546875 l 1
 630.340820312 95.0810546875 l 1
 630.340820312 -67.5 l 1
 467.759765625 -67.5 l 1
EndSplineSet
Validated: 1
Ligature2: "'ccmp' +MLAw6jDVVAhiEAAA-/+UgaJ4wAA in +XnNO7lQNMGhyR07uVA0A lookup 1-1" uniFF77 uniFF9E
EndChar

StartChar: uni3050
Encoding: 12368 12368 44
Width: 1128
Flags: W
HStem: 12.2764 27.6445<672.922 962.718> 333.96 162.581<820.155 962.718> 468.896 27.6445<672.922 820.155>
VStem: 146 100.767<-24.6055 667.5> 652.902 20.0195<39.9209 468.896> 820.155 162.581<333.96 468.896> 962.718 20.0186<39.9209 333.96>
LayerCount: 2
Fore
SplineSet
652.90234375 496.541015625 m 1xba
 820.155273438 496.541015625 l 1xdc
 982.736328125 496.541015625 l 1xba
 982.736328125 333.959960938 l 1xdc
 982.736328125 12.2763671875 l 1
 652.90234375 12.2763671875 l 1
 652.90234375 496.541015625 l 1xba
672.921875 468.896484375 m 1xbc
 672.921875 39.9208984375 l 1
 962.717773438 39.9208984375 l 1
 962.717773438 333.959960938 l 1xda
 820.155273438 333.959960938 l 1xdc
 820.155273438 468.896484375 l 1
 672.921875 468.896484375 l 1xbc
146 667.5 m 1
 246.766601562 667.5 l 1
 246.766601562 -24.60546875 l 1
 569.5 667.5 l 1
 640.62890625 667.5 l 1
 297.893554688 -67.5 l 1
 246.766601562 -67.5 l 1
 226.763671875 -67.5 l 1
 146 -67.5 l 1
 146 667.5 l 1
EndSplineSet
Validated: 1
Ligature2: "'ccmp' +MLAw6jDVVAhiEAAA-/+UgaJ4wAA in +XnNO7lQNMGhyR07uVA0A lookup 1-1" uniFF78 uniFF9E
EndChar

StartChar: uni3052
Encoding: 12370 12370 45
Width: 1167
Flags: W
HStem: 504.919 162.581<859.109 991.63> 639.535 27.9648<692.217 859.109>
VStem: 146 100.767<-24.6055 667.5> 859.109 162.581<504.919 639.535> 991.63 30.0605<59.4199 504.919>
LayerCount: 2
Fore
SplineSet
644.424804688 667.5 m 1x68
 859.109375 667.5 l 1xb0
 1021.69042969 667.5 l 1x68
 1021.69042969 504.918945312 l 1xb0
 1021.69042969 -63.4609375 l 1
 644.424804688 667.5 l 1x68
692.216796875 639.53515625 m 1x70
 991.629882812 59.419921875 l 1
 991.629882812 504.918945312 l 1xa8
 859.109375 504.918945312 l 1xb0
 859.109375 639.53515625 l 1
 692.216796875 639.53515625 l 1x70
146 667.5 m 1x60
 246.766601562 667.5 l 1
 246.766601562 -24.60546875 l 1
 569.5 667.5 l 1
 640.62890625 667.5 l 1
 297.893554688 -67.5 l 1
 246.766601562 -67.5 l 1
 226.763671875 -67.5 l 1
 146 -67.5 l 1
 146 667.5 l 1x60
EndSplineSet
Validated: 1
Ligature2: "'ccmp' +MLAw6jDVVAhiEAAA-/+UgaJ4wAA in +XnNO7lQNMGhyR07uVA0A lookup 1-1" uniFF79 uniFF9E
EndChar

StartChar: uni3054
Encoding: 12372 12372 46
Width: 1068
Flags: W
HStem: -67.5 162.581<450.031 612.612> 127.423 25.6855<692.807 811.286> 443.551 25.6855<692.807 811.285>
VStem: 146 100.767<-24.6055 667.5> 450.031 162.581<-67.5 95.0811> 581.142 25.6846<239.091 357.569> 897.268 25.6846<239.091 357.569>
LayerCount: 2
Fore
SplineSet
752.045898438 469.236328125 m 0xf6
 846.372070312 469.236328125 922.952148438 392.65625 922.952148438 298.330078125 c 0
 922.952148438 204.004882812 846.372070312 127.423828125 752.045898438 127.422851562 c 0
 657.720703125 127.424804688 581.141601562 204.004882812 581.141601562 298.330078125 c 0
 581.142578125 392.655273438 657.721679688 469.235351562 752.045898438 469.236328125 c 0xf6
752.045898438 443.55078125 m 0
 671.897460938 443.549804688 606.827148438 378.479492188 606.826171875 298.330078125 c 0
 606.826171875 218.181640625 671.897460938 153.109375 752.045898438 153.108398438 c 0
 832.196289062 153.109375 897.267578125 218.180664062 897.267578125 298.330078125 c 0
 897.266601562 378.479492188 832.1953125 443.55078125 752.045898438 443.55078125 c 0
146 667.5 m 1
 246.766601562 667.5 l 1
 246.766601562 -24.60546875 l 1
 569.5 667.5 l 1
 640.62890625 667.5 l 1
 297.893554688 -67.5 l 1
 246.766601562 -67.5 l 1
 226.763671875 -67.5 l 1
 146 -67.5 l 1
 146 667.5 l 1
450.03125 -67.5 m 1xfa
 450.03125 95.0810546875 l 1
 612.612304688 95.0810546875 l 1
 612.612304688 -67.5 l 1
 450.03125 -67.5 l 1xfa
EndSplineSet
Validated: 1
Ligature2: "'ccmp' +MLAw6jDVVAhiEAAA-/+UgaJ4wAA in +XnNO7lQNMGhyR07uVA0A lookup 1-1" uniFF7A uniFF9E
EndChar

StartChar: uni3056
Encoding: 12374 12374 47
Width: 1082
Flags: W
HStem: -67.5 21.8516<155.454 476.76 606.708 906.122> 500.879 162.582<773.603 852.271 885.632 906.122> 645.648 21.8516<221.335 546.839>
VStem: 773.603 162.581<500.879 663.461> 906.122 30.0615<-39.5352 500.879>
LayerCount: 2
Fore
SplineSet
773.602539062 663.4609375 m 1xd0
 936.18359375 663.4609375 l 1
 936.18359375 500.87890625 l 1xd0
 936.18359375 -67.5 l 1xc8
 558.916015625 -67.5 l 1
 852.271484375 500.87890625 l 1
 773.602539062 500.87890625 l 1
 773.602539062 663.4609375 l 1xd0
885.631835938 500.87890625 m 1
 606.708007812 -39.53515625 l 1
 906.122070312 -39.53515625 l 1
 906.122070312 500.87890625 l 1xc8
 885.631835938 500.87890625 l 1
146 667.5 m 1xa0
 195.145507812 667.5 l 1
 211.201171875 667.5 l 1
 546.838867188 667.5 l 1
 546.838867188 645.6484375 l 1
 221.334960938 645.6484375 l 1
 552.094726562 -67.5 l 1
 507.1484375 -67.5 l 1
 486.893554688 -67.5 l 1
 155.454101562 -67.5 l 1
 155.454101562 -45.6484375 l 1
 476.759765625 -45.6484375 l 1
 146 667.5 l 1xa0
EndSplineSet
Validated: 1
Ligature2: "'ccmp' +MLAw6jDVVAhiEAAA-/+UgaJ4wAA in +XnNO7lQNMGhyR07uVA0A lookup 1-1" uniFF7B uniFF9E
EndChar

StartChar: uni3058
Encoding: 12376 12376 48
Width: 1057
Flags: W
HStem: -67.5 21.8516<155.454 476.76> 274.201 162.582<484.709 647.291> 434.355 22.7197<752.299 838.912> 645.648 21.8516<221.335 546.839 759.012 832.199>
VStem: 484.709 162.582<274.201 436.783> 680.022 22.7207<506.632 593.245> 749.175 92.8633<-67.5 402.742> 888.469 22.7217<506.632 593.245>
LayerCount: 2
Fore
SplineSet
749.174804688 -67.5 m 1x9f
 749.174804688 402.7421875 l 1
 842.038085938 402.7421875 l 1
 842.038085938 -67.5 l 1
 749.174804688 -67.5 l 1x9f
795.60546875 665.5234375 m 0
 859.3984375 665.5234375 911.190429688 613.731445312 911.190429688 549.938476562 c 0
 911.189453125 486.146484375 859.3984375 434.35546875 795.60546875 434.35546875 c 0xbf
 731.813476562 434.35546875 680.0234375 486.146484375 680.022460938 549.938476562 c 0
 680.022460938 613.731445312 731.813476562 665.522460938 795.60546875 665.5234375 c 0
795.60546875 642.801757812 m 0
 744.353515625 642.801757812 702.743164062 601.19140625 702.743164062 549.938476562 c 0
 702.743164062 498.686523438 744.353515625 457.075195312 795.60546875 457.075195312 c 0
 846.858398438 457.075195312 888.46875 498.686523438 888.46875 549.938476562 c 0
 888.46875 601.19140625 846.858398438 642.801757812 795.60546875 642.801757812 c 0
146 667.5 m 1
 195.145507812 667.5 l 1
 211.201171875 667.5 l 1
 546.838867188 667.5 l 1
 546.838867188 645.6484375 l 1
 221.334960938 645.6484375 l 1
 552.094726562 -67.5 l 1
 507.1484375 -67.5 l 1
 486.893554688 -67.5 l 1
 155.454101562 -67.5 l 1
 155.454101562 -45.6484375 l 1
 476.759765625 -45.6484375 l 1
 146 667.5 l 1
484.708984375 274.201171875 m 1xdf
 484.708984375 436.783203125 l 1
 647.291015625 436.783203125 l 1
 647.291015625 274.201171875 l 1
 484.708984375 274.201171875 l 1xdf
EndSplineSet
Validated: 1
Ligature2: "'ccmp' +MLAw6jDVVAhiEAAA-/+UgaJ4wAA in +XnNO7lQNMGhyR07uVA0A lookup 1-1" uniFF7C uniFF9E
EndChar

StartChar: uni305A
Encoding: 12378 12378 49
Width: 1129
Flags: W
HStem: -67.5 21.8516<155.454 476.76> 56.1973 27.6445<673.98 963.776> 377.881 162.581<821.213 963.776> 512.817 27.6445<673.98 821.213> 645.648 21.8516<221.335 546.839>
VStem: 653.961 20.0195<83.8418 512.817> 821.213 162.582<377.881 512.817> 963.776 20.0186<83.8418 377.881>
LayerCount: 2
Fore
SplineSet
653.9609375 540.461914062 m 1xdd
 821.212890625 540.461914062 l 1xee
 983.794921875 540.461914062 l 1xdd
 983.794921875 377.880859375 l 1xee
 983.794921875 56.197265625 l 1
 653.9609375 56.197265625 l 1
 653.9609375 540.461914062 l 1xdd
673.98046875 512.817382812 m 1xde
 673.98046875 83.841796875 l 1
 963.776367188 83.841796875 l 1
 963.776367188 377.880859375 l 1xed
 821.212890625 377.880859375 l 1xee
 821.212890625 512.817382812 l 1
 673.98046875 512.817382812 l 1xde
146 667.5 m 1
 195.145507812 667.5 l 1
 211.201171875 667.5 l 1
 546.838867188 667.5 l 1
 546.838867188 645.6484375 l 1
 221.334960938 645.6484375 l 1
 552.094726562 -67.5 l 1
 507.1484375 -67.5 l 1
 486.893554688 -67.5 l 1
 155.454101562 -67.5 l 1
 155.454101562 -45.6484375 l 1
 476.759765625 -45.6484375 l 1
 146 667.5 l 1
EndSplineSet
Validated: 1
Ligature2: "'ccmp' +MLAw6jDVVAhiEAAA-/+UgaJ4wAA in +XnNO7lQNMGhyR07uVA0A lookup 1-1" uniFF7D uniFF9E
EndChar

StartChar: uni305C
Encoding: 12380 12380 50
Width: 1083
Flags: W
HStem: -67.5 21.8516<155.454 476.76> 504.919 162.581<774.972 907.493> 645.648 21.8516<221.335 546.839 608.078 774.972>
VStem: 774.972 162.582<504.919 639.535> 907.493 30.0605<59.4199 504.919>
LayerCount: 2
Fore
SplineSet
560.287109375 667.5 m 1xa8
 774.971679688 667.5 l 1xd0
 937.553710938 667.5 l 1xa8
 937.553710938 504.918945312 l 1xd0
 937.553710938 -63.4609375 l 1
 560.287109375 667.5 l 1xa8
608.078125 639.53515625 m 1
 907.493164062 59.419921875 l 1
 907.493164062 504.918945312 l 1xc8
 774.971679688 504.918945312 l 1
 774.971679688 639.53515625 l 1
 608.078125 639.53515625 l 1
146 667.5 m 1xa0
 195.145507812 667.5 l 1
 211.201171875 667.5 l 1
 546.838867188 667.5 l 1
 546.838867188 645.6484375 l 1
 221.334960938 645.6484375 l 1
 552.094726562 -67.5 l 1
 507.1484375 -67.5 l 1
 486.893554688 -67.5 l 1
 155.454101562 -67.5 l 1
 155.454101562 -45.6484375 l 1
 476.759765625 -45.6484375 l 1
 146 667.5 l 1xa0
EndSplineSet
Validated: 1
Ligature2: "'ccmp' +MLAw6jDVVAhiEAAA-/+UgaJ4wAA in +XnNO7lQNMGhyR07uVA0A lookup 1-1" uniFF7E uniFF9E
EndChar

StartChar: uni305E
Encoding: 12382 12382 51
Width: 1036
Flags: W
HStem: -67.5 21.8516<155.454 476.76> 127.423 25.6855<659.999 778.477> 432.651 162.581<398.99 561.571> 443.551 25.6855<659.999 778.477> 645.648 21.8516<221.335 546.839>
VStem: 398.99 162.581<432.651 595.232> 548.333 25.6855<239.091 357.569> 864.459 25.6855<239.091 357.569>
LayerCount: 2
Fore
SplineSet
719.23828125 469.236328125 m 0xdb
 813.563476562 469.236328125 890.143554688 392.65625 890.14453125 298.330078125 c 0
 890.14453125 204.004882812 813.563476562 127.423828125 719.23828125 127.422851562 c 0
 624.913085938 127.424804688 548.333007812 204.004882812 548.333007812 298.330078125 c 0
 548.333984375 392.655273438 624.913085938 469.235351562 719.23828125 469.236328125 c 0xdb
719.23828125 443.55078125 m 0
 639.088867188 443.549804688 574.018554688 378.479492188 574.018554688 298.330078125 c 0
 574.018554688 218.181640625 639.088867188 153.109375 719.23828125 153.108398438 c 0
 799.387695312 153.108398438 864.458984375 218.180664062 864.458984375 298.330078125 c 0
 864.458007812 378.479492188 799.387695312 443.55078125 719.23828125 443.55078125 c 0
146 667.5 m 1
 195.145507812 667.5 l 1
 211.201171875 667.5 l 1
 546.838867188 667.5 l 1
 546.838867188 645.6484375 l 1
 221.334960938 645.6484375 l 1
 552.094726562 -67.5 l 1
 507.1484375 -67.5 l 1
 486.893554688 -67.5 l 1
 155.454101562 -67.5 l 1
 155.454101562 -45.6484375 l 1
 476.759765625 -45.6484375 l 1
 146 667.5 l 1
398.990234375 432.651367188 m 1xed
 398.990234375 595.232421875 l 1
 561.571289062 595.232421875 l 1
 561.571289062 432.651367188 l 1
 398.990234375 432.651367188 l 1xed
EndSplineSet
Validated: 1
Ligature2: "'ccmp' +MLAw6jDVVAhiEAAA-/+UgaJ4wAA in +XnNO7lQNMGhyR07uVA0A lookup 1-1" uniFF7F uniFF9E
EndChar

StartChar: uni3060
Encoding: 12384 12384 52
Width: 1012
Flags: W
HStem: -67.5 27.9648<537.438 836.854> 254.557 88.9111<341.787 547.271> 504.919 162.581<704.334 785.087 818.447 836.854>
VStem: 146 90.8867<-67.5 667.5> 704.334 162.581<504.919 667.5> 836.854 30.0615<-39.5352 504.919>
LayerCount: 2
Fore
SplineSet
704.333984375 667.5 m 1xf8
 866.915039062 667.5 l 1
 866.915039062 663.4609375 l 1
 866.915039062 504.918945312 l 1xf8
 866.915039062 -67.5 l 1xf4
 489.645507812 -67.5 l 1
 785.086914062 504.918945312 l 1
 704.333984375 504.918945312 l 1
 704.333984375 667.5 l 1xf8
818.447265625 504.918945312 m 1
 537.4375 -39.53515625 l 1
 836.853515625 -39.53515625 l 1
 836.853515625 504.918945312 l 1xf4
 818.447265625 504.918945312 l 1
146 -67.5 m 1
 146 667.5 l 1
 236.88671875 667.5 l 1
 236.88671875 -67.5 l 1
 146 -67.5 l 1
341.787109375 254.556640625 m 1
 341.787109375 343.467773438 l 1
 547.271484375 343.467773438 l 1
 547.271484375 254.556640625 l 1
 341.787109375 254.556640625 l 1
EndSplineSet
Validated: 1
Ligature2: "'ccmp' +MLAw6jDVVAhiEAAA-/+UgaJ4wAA in +XnNO7lQNMGhyR07uVA0A lookup 1-1" uniFF80 uniFF9E
EndChar

StartChar: uni3062
Encoding: 12386 12386 53
Width: 959
Flags: W
HStem: 254.557 88.9111<341.787 547.271> 415.246 162.581<341.787 504.369> 434.355 22.7197<654.456 741.068> 642.802 22.7217<654.456 741.068>
VStem: 146 90.8867<-67.5 667.5> 341.787 162.582<415.246 577.827> 582.179 22.7207<506.632 593.245> 651.331 92.8633<-67.5 402.742> 790.625 22.7217<506.632 593.245>
LayerCount: 2
Fore
SplineSet
651.331054688 -67.5 m 1x9f80
 651.331054688 402.7421875 l 1
 744.194335938 402.7421875 l 1
 744.194335938 -67.5 l 1
 651.331054688 -67.5 l 1x9f80
697.76171875 665.5234375 m 0
 761.5546875 665.5234375 813.346679688 613.731445312 813.346679688 549.938476562 c 0
 813.346679688 486.146484375 761.5546875 434.35546875 697.76171875 434.35546875 c 0xbf80
 633.970703125 434.35546875 582.1796875 486.146484375 582.178710938 549.938476562 c 0
 582.178710938 613.731445312 633.969726562 665.522460938 697.76171875 665.5234375 c 0
697.76171875 642.801757812 m 0
 646.509765625 642.801757812 604.899414062 601.19140625 604.899414062 549.938476562 c 0
 604.899414062 498.686523438 646.509765625 457.075195312 697.76171875 457.075195312 c 0
 749.014648438 457.075195312 790.625 498.686523438 790.625 549.938476562 c 0
 790.625 601.19140625 749.014648438 642.801757812 697.76171875 642.801757812 c 0
146 -67.5 m 1
 146 667.5 l 1
 236.88671875 667.5 l 1
 236.88671875 -67.5 l 1
 146 -67.5 l 1
341.787109375 254.556640625 m 1
 341.787109375 343.467773438 l 1
 547.271484375 343.467773438 l 1
 547.271484375 254.556640625 l 1
 341.787109375 254.556640625 l 1
341.787109375 415.24609375 m 1xdf80
 341.787109375 577.827148438 l 1
 504.369140625 577.827148438 l 1
 504.369140625 415.24609375 l 1
 341.787109375 415.24609375 l 1xdf80
EndSplineSet
Validated: 1
Ligature2: "'ccmp' +MLAw6jDVVAhiEAAA-/+UgaJ4wAA in +XnNO7lQNMGhyR07uVA0A lookup 1-1" uniFF81 uniFF9E
EndChar

StartChar: uni3065
Encoding: 12389 12389 54
Width: 1124
Flags: W
HStem: 78.9512 27.6455<668.212 958.008> 254.557 88.9111<341.787 547.271> 400.635 162.582<815.444 958.008> 535.571 27.6455<668.212 815.444>
VStem: 146 90.8867<-67.5 667.5> 648.192 20.0195<106.597 535.571> 815.444 162.582<400.635 535.571> 958.008 20.0186<106.597 400.635>
LayerCount: 2
Fore
SplineSet
146 -67.5 m 1xcc
 146 667.5 l 1
 236.88671875 667.5 l 1
 236.88671875 -67.5 l 1
 146 -67.5 l 1xcc
341.787109375 254.556640625 m 1
 341.787109375 343.467773438 l 1
 547.271484375 343.467773438 l 1
 547.271484375 254.556640625 l 1
 341.787109375 254.556640625 l 1
648.192382812 563.216796875 m 1xdd
 815.444335938 563.216796875 l 1xee
 978.026367188 563.216796875 l 1xdd
 978.026367188 400.634765625 l 1xee
 978.026367188 78.951171875 l 1
 648.192382812 78.951171875 l 1
 648.192382812 563.216796875 l 1xdd
668.211914062 535.571289062 m 1xde
 668.211914062 106.596679688 l 1
 958.0078125 106.596679688 l 1
 958.0078125 400.634765625 l 1xed
 815.444335938 400.634765625 l 1xee
 815.444335938 535.571289062 l 1
 668.211914062 535.571289062 l 1xde
EndSplineSet
Validated: 1
Ligature2: "'ccmp' +MLAw6jDVVAhiEAAA-/+UgaJ4wAA in +XnNO7lQNMGhyR07uVA0A lookup 1-1" uniFF82 uniFF9E
EndChar

StartChar: uni3067
Encoding: 12391 12391 55
Width: 1008
Flags: W
HStem: 254.557 88.9111<341.787 547.271> 504.919 162.581<699.883 832.403> 639.535 27.9648<532.99 699.883>
VStem: 146 90.8867<-67.5 667.5> 699.883 162.582<504.919 639.535> 832.403 30.0615<59.4199 504.919>
LayerCount: 2
Fore
SplineSet
146 -67.5 m 1xb0
 146 667.5 l 1
 236.88671875 667.5 l 1
 236.88671875 -67.5 l 1
 146 -67.5 l 1xb0
341.787109375 254.556640625 m 1
 341.787109375 343.467773438 l 1
 547.271484375 343.467773438 l 1
 547.271484375 254.556640625 l 1
 341.787109375 254.556640625 l 1
485.198242188 667.5 m 1
 699.8828125 667.5 l 1xd8
 862.46484375 667.5 l 1xb4
 862.46484375 504.918945312 l 1xd8
 862.46484375 -63.4609375 l 1xd4
 485.198242188 667.5 l 1
532.990234375 639.53515625 m 1xb8
 832.403320312 59.419921875 l 1
 832.403320312 504.918945312 l 1xd4
 699.8828125 504.918945312 l 1xd8
 699.8828125 639.53515625 l 1
 532.990234375 639.53515625 l 1xb8
EndSplineSet
Validated: 1
Ligature2: "'ccmp' +MLAw6jDVVAhiEAAA-/+UgaJ4wAA in +XnNO7lQNMGhyR07uVA0A lookup 1-1" uniFF83 uniFF9E
EndChar

StartChar: uni3069
Encoding: 12393 12393 56
Width: 1151
Flags: W
HStem: 127.423 25.6855<775.357 893.835> 254.557 88.9111<341.787 547.271> 415.169 162.581<341.787 504.369> 443.551 25.6855<775.357 893.835>
VStem: 146 90.8867<-67.5 667.5> 341.787 162.582<415.169 577.75> 663.691 25.6846<239.091 357.569> 979.816 25.6855<239.091 357.569>
LayerCount: 2
Fore
SplineSet
146 -67.5 m 1xcf
 146 667.5 l 1
 236.88671875 667.5 l 1
 236.88671875 -67.5 l 1
 146 -67.5 l 1xcf
341.787109375 254.556640625 m 1
 341.787109375 343.467773438 l 1
 547.271484375 343.467773438 l 1
 547.271484375 254.556640625 l 1
 341.787109375 254.556640625 l 1
834.595703125 469.236328125 m 0xdf
 928.920898438 469.236328125 1005.50097656 392.65625 1005.50195312 298.330078125 c 0
 1005.50195312 204.004882812 928.920898438 127.423828125 834.595703125 127.422851562 c 0
 740.270507812 127.424804688 663.69140625 204.005859375 663.69140625 298.330078125 c 0
 663.692382812 392.655273438 740.271484375 469.234375 834.595703125 469.236328125 c 0xdf
834.595703125 443.55078125 m 0
 754.446289062 443.549804688 689.375976562 378.479492188 689.375976562 298.330078125 c 0
 689.375976562 218.181640625 754.446289062 153.109375 834.595703125 153.108398438 c 0
 914.745117188 153.108398438 979.81640625 218.180664062 979.81640625 298.330078125 c 0
 979.815429688 378.479492188 914.744140625 443.55078125 834.595703125 443.55078125 c 0
341.787109375 415.168945312 m 1xef
 341.787109375 577.75 l 1
 504.369140625 577.75 l 1
 504.369140625 415.168945312 l 1
 341.787109375 415.168945312 l 1xef
EndSplineSet
Validated: 1
Ligature2: "'ccmp' +MLAw6jDVVAhiEAAA-/+UgaJ4wAA in +XnNO7lQNMGhyR07uVA0A lookup 1-1" uniFF84 uniFF9E
EndChar

StartChar: uni3070
Encoding: 12400 12400 57
Width: 1148
Flags: W
HStem: -67.5 21.7334<236.888 620.292 673.435 972.85> 504.919 162.581<840.329 921.083 954.443 972.85>
VStem: 146 90.8877<-45.7666 667.5> 840.329 162.582<504.919 667.5> 972.85 30.0615<-39.5352 504.919>
LayerCount: 2
Fore
SplineSet
840.329101562 667.5 m 1xf0
 1002.91113281 667.5 l 1
 1002.91113281 663.4609375 l 1
 1002.91113281 504.918945312 l 1xf0
 1002.91113281 -67.5 l 1xe8
 625.641601562 -67.5 l 1
 921.083007812 504.918945312 l 1
 840.329101562 504.918945312 l 1
 840.329101562 667.5 l 1xf0
954.443359375 504.918945312 m 1
 673.434570312 -39.53515625 l 1
 972.849609375 -39.53515625 l 1
 972.849609375 504.918945312 l 1xe8
 954.443359375 504.918945312 l 1
146 667.5 m 1
 236.887695312 667.5 l 1
 236.887695312 -45.7666015625 l 1
 620.291992188 -45.7666015625 l 1
 620.291992188 -67.5 l 1
 236.887695312 -67.5 l 1
 184.586914062 -67.5 l 1
 146 -67.5 l 1
 146 667.5 l 1
EndSplineSet
Validated: 1
Ligature2: "'ccmp' +MLAw6jDVVAhiEAAA-/+UgaJ4wAA in +XnNO7lQNMGhyR07uVA0A lookup 1-1" uniFF8A uniFF9E
EndChar

StartChar: uni3073
Encoding: 12403 12403 58
Width: 1072
Flags: W
HStem: -67.5 21.7334<236.888 620.292> 271.498 162.581<418.177 580.758> 434.355 22.7197<767.698 854.311> 642.802 22.7217<767.698 854.311>
VStem: 146 90.8877<-45.7666 667.5> 418.177 162.581<271.498 434.079> 695.421 22.7207<506.632 593.245> 764.573 92.8633<-67.5 402.742> 903.867 22.7217<506.632 593.245>
LayerCount: 2
Fore
SplineSet
764.573242188 -67.5 m 1
 764.573242188 402.7421875 l 1
 857.436523438 402.7421875 l 1
 857.436523438 -67.5 l 1
 764.573242188 -67.5 l 1
811.00390625 665.5234375 m 0
 874.796875 665.5234375 926.588867188 613.731445312 926.588867188 549.938476562 c 0
 926.587890625 486.146484375 874.796875 434.35546875 811.00390625 434.35546875 c 0
 747.211914062 434.35546875 695.421875 486.146484375 695.420898438 549.938476562 c 0
 695.420898438 613.731445312 747.211914062 665.522460938 811.00390625 665.5234375 c 0
811.00390625 642.801757812 m 0
 759.751953125 642.801757812 718.141601562 601.19140625 718.141601562 549.938476562 c 0
 718.141601562 498.686523438 759.751953125 457.075195312 811.00390625 457.075195312 c 0
 862.256835938 457.075195312 903.8671875 498.686523438 903.8671875 549.938476562 c 0
 903.8671875 601.19140625 862.256835938 642.801757812 811.00390625 642.801757812 c 0
146 667.5 m 1
 236.887695312 667.5 l 1
 236.887695312 -45.7666015625 l 1
 620.291992188 -45.7666015625 l 1
 620.291992188 -67.5 l 1
 236.887695312 -67.5 l 1
 184.586914062 -67.5 l 1
 146 -67.5 l 1
 146 667.5 l 1
418.176757812 271.498046875 m 1
 418.176757812 434.079101562 l 1
 580.7578125 434.079101562 l 1
 580.7578125 271.498046875 l 1
 418.176757812 271.498046875 l 1
EndSplineSet
Validated: 1
Ligature2: "'ccmp' +MLAw6jDVVAhiEAAA-/+UgaJ4wAA in +XnNO7lQNMGhyR07uVA0A lookup 1-1" uniFF8B uniFF9E
EndChar

StartChar: uni3076
Encoding: 12406 12406 59
Width: 937
Flags: W
HStem: -67.5 21.7334<236.888 620.292> 183.235 27.6445<481.787 771.584> 504.919 162.581<629.021 771.584> 639.855 27.6445<481.787 629.021>
VStem: 146 90.8877<-45.7666 667.5> 461.768 20.0195<210.88 639.855> 629.021 162.581<504.919 639.855> 771.584 20.0186<210.88 504.919>
LayerCount: 2
Fore
SplineSet
461.767578125 667.5 m 1xdd
 629.021484375 667.5 l 1xee
 791.602539062 667.5 l 1xdd
 791.602539062 504.918945312 l 1xee
 791.602539062 183.235351562 l 1
 461.767578125 183.235351562 l 1
 461.767578125 667.5 l 1xdd
481.787109375 639.85546875 m 1xde
 481.787109375 210.879882812 l 1
 771.583984375 210.879882812 l 1
 771.583984375 504.918945312 l 1xed
 629.021484375 504.918945312 l 1xee
 629.021484375 639.85546875 l 1
 481.787109375 639.85546875 l 1xde
146 667.5 m 1xdc
 236.887695312 667.5 l 1
 236.887695312 -45.7666015625 l 1
 620.291992188 -45.7666015625 l 1
 620.291992188 -67.5 l 1
 236.887695312 -67.5 l 1
 184.586914062 -67.5 l 1
 146 -67.5 l 1
 146 667.5 l 1xdc
EndSplineSet
Validated: 1
Ligature2: "'ccmp' +MLAw6jDVVAhiEAAA-/+UgaJ4wAA in +XnNO7lQNMGhyR07uVA0A lookup 1-1" uniFF8C uniFF9E
EndChar

StartChar: uni3079
Encoding: 12409 12409 60
Width: 971
Flags: W
HStem: -67.5 21.7334<236.888 620.292> 504.919 162.581<663.371 795.892> 639.535 27.9648<496.478 663.371>
VStem: 146 90.8877<-45.7666 667.5> 663.371 162.581<504.919 639.535> 795.892 30.0605<59.4199 504.919>
LayerCount: 2
Fore
SplineSet
448.685546875 667.5 m 1xb4
 663.37109375 667.5 l 1xd8
 825.952148438 667.5 l 1xb4
 825.952148438 504.918945312 l 1xd8
 825.952148438 -63.4609375 l 1
 448.685546875 667.5 l 1xb4
496.477539062 639.53515625 m 1xb8
 795.891601562 59.419921875 l 1
 795.891601562 504.918945312 l 1xd4
 663.37109375 504.918945312 l 1xd8
 663.37109375 639.53515625 l 1
 496.477539062 639.53515625 l 1xb8
146 667.5 m 1xb0
 236.887695312 667.5 l 1
 236.887695312 -45.7666015625 l 1
 620.291992188 -45.7666015625 l 1
 620.291992188 -67.5 l 1
 236.887695312 -67.5 l 1
 184.586914062 -67.5 l 1
 146 -67.5 l 1
 146 667.5 l 1xb0
EndSplineSet
Validated: 1
Ligature2: "'ccmp' +MLAw6jDVVAhiEAAA-/+UgaJ4wAA in +XnNO7lQNMGhyR07uVA0A lookup 1-1" uniFF8D uniFF9E
EndChar

StartChar: uni307C
Encoding: 12412 12412 61
Width: 985
Flags: W
HStem: -67.5 21.7334<236.888 620.292> 127.423 25.6855<609.25 727.729> 417.184 162.581<306.341 468.922> 443.551 25.6855<609.25 727.728>
VStem: 146 90.8877<-45.7666 667.5> 306.341 162.581<417.184 579.765> 497.583 25.6855<239.091 357.569> 813.711 25.6855<239.091 357.57>
LayerCount: 2
Fore
SplineSet
668.489257812 469.236328125 m 0xdf
 762.814453125 469.236328125 839.395507812 392.65625 839.396484375 298.330078125 c 0
 839.396484375 204.00390625 762.815429688 127.422851562 668.489257812 127.422851562 c 0
 574.163085938 127.423828125 497.583007812 204.004882812 497.583007812 298.330078125 c 0
 497.583984375 392.655273438 574.1640625 469.235351562 668.489257812 469.236328125 c 0xdf
668.489257812 443.55078125 m 0
 588.33984375 443.55078125 523.26953125 378.479492188 523.268554688 298.330078125 c 0
 523.268554688 218.180664062 588.33984375 153.109375 668.489257812 153.108398438 c 0
 748.638671875 153.108398438 813.7109375 218.180664062 813.7109375 298.330078125 c 0
 813.709960938 378.48046875 748.638671875 443.55078125 668.489257812 443.55078125 c 0
146 667.5 m 1
 236.887695312 667.5 l 1
 236.887695312 -45.7666015625 l 1
 620.291992188 -45.7666015625 l 1
 620.291992188 -67.5 l 1
 236.887695312 -67.5 l 1
 184.586914062 -67.5 l 1
 146 -67.5 l 1
 146 667.5 l 1
306.340820312 417.18359375 m 1xef
 306.340820312 579.764648438 l 1
 468.921875 579.764648438 l 1
 468.921875 417.18359375 l 1
 306.340820312 417.18359375 l 1xef
EndSplineSet
Validated: 1
Ligature2: "'ccmp' +MLAw6jDVVAhiEAAA-/+UgaJ4wAA in +XnNO7lQNMGhyR07uVA0A lookup 1-1" uniFF8E uniFF9E
EndChar

StartChar: uni3093
Encoding: 12435 12435 62
Width: 695
Flags: W
HStem: -67.5 24.0625<425.021 497.935> 83.8535 24.0615<425.021 497.935>
VStem: 146 90.8867<-67.5 667.5> 373.771 24.0625<-16.2492 56.6649> 525.124 24.0605<-16.2489 56.6649>
LayerCount: 2
Fore
SplineSet
461.478515625 107.915039062 m 0
 509.884765625 107.915039062 549.184570312 68.6142578125 549.184570312 20.2080078125 c 0
 549.184570312 -28.1982421875 509.884765625 -67.4990234375 461.478515625 -67.5 c 0
 413.071289062 -67.5 373.770507812 -28.19921875 373.770507812 20.2080078125 c 0
 373.770507812 68.6142578125 413.071289062 107.915039062 461.478515625 107.915039062 c 0
461.478515625 83.853515625 m 0
 426.3515625 83.853515625 397.833007812 55.3349609375 397.833007812 20.2080078125 c 0
 397.833007812 -14.9189453125 426.3515625 -43.4375 461.478515625 -43.4375 c 0
 496.60546875 -43.4375 525.124023438 -14.9189453125 525.124023438 20.2080078125 c 0
 525.124023438 55.3349609375 496.60546875 83.853515625 461.478515625 83.853515625 c 0
146 -67.5 m 1
 146 667.5 l 1
 236.88671875 667.5 l 1
 236.88671875 -67.5 l 1
 146 -67.5 l 1
EndSplineSet
Validated: 1
EndChar

StartChar: uni30FC
Encoding: 12540 12540 165
Width: 750
Flags: W
HStem: 252.748 97.9512<146 604.883>
LayerCount: 2
Fore
SplineSet
146 252.748046875 m 1
 146 350.69921875 l 1
 604.8828125 350.69921875 l 1
 604.8828125 252.748046875 l 1
 146 252.748046875 l 1
EndSplineSet
Validated: 1
EndChar

StartChar: uni304D
Encoding: 12365 12365 166
Width: 1072
Flags: W
HStem: 434.355 22.7197<767.116 853.729> 642.802 22.7217<767.116 853.729>
VStem: 146 100.767<-24.6055 667.5> 694.839 22.7207<506.632 593.245> 763.991 92.8633<-67.5 402.742> 903.285 22.7217<506.632 593.245>
LayerCount: 2
Fore
SplineSet
763.991210938 -67.5 m 1
 763.991210938 402.7421875 l 1
 856.854492188 402.7421875 l 1
 856.854492188 -67.5 l 1
 763.991210938 -67.5 l 1
810.421875 665.5234375 m 0
 874.21484375 665.5234375 926.006835938 613.731445312 926.006835938 549.938476562 c 0
 926.006835938 486.146484375 874.21484375 434.35546875 810.421875 434.35546875 c 0
 746.630859375 434.35546875 694.83984375 486.146484375 694.838867188 549.938476562 c 0
 694.838867188 613.731445312 746.629882812 665.522460938 810.421875 665.5234375 c 0
810.421875 642.801757812 m 0
 759.169921875 642.801757812 717.559570312 601.19140625 717.559570312 549.938476562 c 0
 717.559570312 498.686523438 759.169921875 457.075195312 810.421875 457.075195312 c 0
 861.674804688 457.075195312 903.28515625 498.686523438 903.28515625 549.938476562 c 0
 903.28515625 601.19140625 861.674804688 642.801757812 810.421875 642.801757812 c 0
146 667.5 m 1
 246.766601562 667.5 l 1
 246.766601562 -24.60546875 l 1
 569.5 667.5 l 1
 640.62890625 667.5 l 1
 297.893554688 -67.5 l 1
 246.766601562 -67.5 l 1
 226.763671875 -67.5 l 1
 146 -67.5 l 1
 146 667.5 l 1
EndSplineSet
Validated: 1
EndChar

StartChar: uni309B
Encoding: 12443 12443 222
Width: 454
Flags: W
HStem: 218.709 162.582<146 308.581>
VStem: 146 162.581<218.709 381.291>
LayerCount: 2
Fore
SplineSet
146 218.708984375 m 1
 146 381.291015625 l 1
 308.581054688 381.291015625 l 1
 308.581054688 218.708984375 l 1
 146 218.708984375 l 1
EndSplineSet
Validated: 1
EndChar

StartChar: uni3094
Encoding: 12436 12436 223
Width: 621
Flags: W
HStem: 56.1973 27.6445<166.02 455.817> 377.881 162.581<313.254 455.817> 512.817 27.6445<166.02 313.254>
VStem: 146 20.0195<83.8418 512.817> 313.254 162.581<377.881 512.817> 455.817 20.0176<83.8418 377.881>
LayerCount: 2
Fore
SplineSet
146 540.461914062 m 1xb4
 313.25390625 540.461914062 l 1xd8
 475.834960938 540.461914062 l 1xb4
 475.834960938 377.880859375 l 1xd8
 475.834960938 56.197265625 l 1
 146 56.197265625 l 1
 146 540.461914062 l 1xb4
166.01953125 512.817382812 m 1xb8
 166.01953125 83.841796875 l 1
 455.817382812 83.841796875 l 1
 455.817382812 377.880859375 l 1xd4
 313.25390625 377.880859375 l 1xd8
 313.25390625 512.817382812 l 1
 166.01953125 512.817382812 l 1xb8
EndSplineSet
Validated: 1
Ligature2: "'ccmp' +MLAw6jDVVAhiEAAA-/+UgaJ4wAA in +XnNO7lQNMGhyR07uVA0A lookup 1-3" uni30A6 uni3099
Ligature2: "'ccmp' +MLAw6jDVVAhiEAAA-/+UgaJ4wAA in +XnNO7lQNMGhyR07uVA0A lookup 1-2" uni3046 uni3099
Ligature2: "'ccmp' +MLAw6jDVVAhiEAAA-/+UgaJ4wAA in +XnNO7lQNMGhyR07uVA0A lookup 1-1" uniFF73 uniFF9E
EndChar

StartChar: uni32D0
Encoding: 13008 13008 225
Width: 1000
VWidth: 754
Flags: W
HStem: -166 32<387.593 612.407> 60.418 18.1777<408.452 603.072> 734 32<387.593 612.407>
VStem: 34 32<187.593 412.407> 603.072 19.54<78.5957 455.67> 934 32<187.593 412.407>
LayerCount: 2
Fore
SplineSet
500 766 m 0
 757.192382812 766 966 557.192382812 966 300 c 0
 966 42.8076171875 757.192382812 -166 500 -166 c 0
 242.807617188 -166 34 42.8076171875 34 300 c 0
 34 557.192382812 242.807617188 766 500 766 c 0
500 734 m 0
 260.46875 734 66 539.53125 66 300 c 0
 66 60.46875 260.46875 -134 500 -134 c 0
 739.53125 -134 934 60.46875 934 300 c 0
 934 539.53125 739.53125 734 500 734 c 0
622.612304688 535.54296875 m 1
 622.612304688 60.41796875 l 1
 377.387695312 60.41796875 l 1
 622.612304688 535.54296875 l 1
603.072265625 455.669921875 m 1
 408.452148438 78.595703125 l 1
 603.072265625 78.595703125 l 1
 603.072265625 455.669921875 l 1
EndSplineSet
Validated: 1
EndChar

StartChar: uni32D2
Encoding: 13010 13010 226
Width: 1000
VWidth: 754
Flags: W
HStem: -166 32<387.593 612.407> 140.943 17.9688<405.816 594.184> 437.747 17.9688<405.816 594.184> 734 32<387.593 612.407>
VStem: 34 32<187.593 412.407> 392.804 13.0127<158.912 437.747> 594.184 13.0127<158.912 437.747> 934 32<187.593 412.407>
LayerCount: 2
Fore
SplineSet
500 766 m 0
 757.192382812 766 966 557.192382812 966 300 c 0
 966 42.8076171875 757.192382812 -166 500 -166 c 0
 242.807617188 -166 34 42.8076171875 34 300 c 0
 34 557.192382812 242.807617188 766 500 766 c 0
500 734 m 0
 260.46875 734 66 539.53125 66 300 c 0
 66 60.46875 260.46875 -134 500 -134 c 0
 739.53125 -134 934 60.46875 934 300 c 0
 934 539.53125 739.53125 734 500 734 c 0
392.803710938 455.715820312 m 1
 607.196289062 455.715820312 l 1
 607.196289062 140.943359375 l 1
 392.803710938 140.943359375 l 1
 392.803710938 455.715820312 l 1
405.81640625 437.747070312 m 1
 405.81640625 158.912109375 l 1
 594.18359375 158.912109375 l 1
 594.18359375 437.747070312 l 1
 405.81640625 437.747070312 l 1
EndSplineSet
Validated: 1
EndChar

StartChar: uni32D4
Encoding: 13012 13012 227
Width: 1000
VWidth: 754
Flags: W
HStem: -166 32<387.593 612.407> 187.24 16.6953<461.495 538.506> 392.724 16.6953<461.495 538.505> 734 32<387.593 612.407>
VStem: 34 32<187.593 412.407> 388.911 16.6953<259.824 336.835> 594.395 16.6943<259.824 336.836> 934 32<187.593 412.407>
LayerCount: 2
Fore
SplineSet
500 766 m 0
 757.192382812 766 966 557.192382812 966 300 c 0
 966 42.8076171875 757.192382812 -166 500 -166 c 0
 242.807617188 -166 34 42.8076171875 34 300 c 0
 34 557.192382812 242.807617188 766 500 766 c 0
500 734 m 0
 260.46875 734 66 539.53125 66 300 c 0
 66 60.46875 260.46875 -134 500 -134 c 0
 739.53125 -134 934 60.46875 934 300 c 0
 934 539.53125 739.53125 734 500 734 c 0
500 409.418945312 m 0
 561.310546875 409.418945312 611.088867188 359.641601562 611.088867188 298.330078125 c 0
 611.088867188 237.017578125 561.3125 187.240234375 500 187.240234375 c 0
 438.688476562 187.241210938 388.911132812 237.018554688 388.911132812 298.330078125 c 0
 388.911132812 359.641601562 438.688476562 409.41796875 500 409.418945312 c 0
500 392.723632812 m 0
 447.903320312 392.72265625 405.607421875 350.426757812 405.606445312 298.330078125 c 0
 405.606445312 246.232421875 447.903320312 203.936523438 500 203.935546875 c 0
 552.096679688 203.935546875 594.39453125 246.232421875 594.39453125 298.330078125 c 0
 594.393554688 350.427734375 552.096679688 392.723632812 500 392.723632812 c 0
EndSplineSet
Validated: 1
EndChar

StartChar: uni32D6
Encoding: 13014 13014 228
Width: 1000
VWidth: 755
Flags: W
HStem: -166 32<387.593 612.407> 387.331 14.7676<650.223 706.521> 522.821 14.7686<650.223 706.521> 734 32<387.593 612.407>
VStem: 34 32<187.593 412.407> 246.497 65.499<89.0068 538.875> 603.243 14.7676<434.311 490.609> 648.192 60.3613<61.125 366.782> 738.732 14.7705<434.311 490.609> 934 32<187.593 412.407>
LayerCount: 2
Fore
SplineSet
500 766 m 0
 757.192382812 766 966 557.192382812 966 300 c 0
 966 42.8076171875 757.192382812 -166 500 -166 c 0
 242.807617188 -166 34 42.8076171875 34 300 c 0
 34 557.192382812 242.807617188 766 500 766 c 0
500 734 m 0
 260.46875 734 66 539.53125 66 300 c 0
 66 60.46875 260.46875 -134 500 -134 c 0
 739.53125 -134 934 60.46875 934 300 c 0
 934 539.53125 739.53125 734 500 734 c 0
648.192382812 61.125 m 1
 648.192382812 366.782226562 l 1
 708.553710938 366.782226562 l 1
 708.553710938 61.125 l 1
 648.192382812 61.125 l 1
678.372070312 537.58984375 m 0
 719.836914062 537.58984375 753.502929688 503.92578125 753.502929688 462.459960938 c 0
 753.502929688 420.995117188 719.836914062 387.331054688 678.372070312 387.331054688 c 0
 636.907226562 387.331054688 603.243164062 420.995117188 603.243164062 462.459960938 c 0
 603.243164062 503.92578125 636.907226562 537.58984375 678.372070312 537.58984375 c 0
678.372070312 522.821289062 m 0
 645.057617188 522.821289062 618.010742188 495.774414062 618.010742188 462.459960938 c 0
 618.010742188 429.146484375 645.057617188 402.098632812 678.372070312 402.098632812 c 0
 711.686523438 402.098632812 738.732421875 429.146484375 738.732421875 462.459960938 c 0
 738.732421875 495.774414062 711.686523438 522.821289062 678.372070312 522.821289062 c 0
246.497070312 538.875 m 1
 311.99609375 538.875 l 1
 311.99609375 89.0068359375 l 1
 521.772460938 538.875 l 1
 568.005859375 538.875 l 1
 345.228515625 61.125 l 1
 311.99609375 61.125 l 1
 298.994140625 61.125 l 1
 246.497070312 61.125 l 1
 246.497070312 538.875 l 1
EndSplineSet
Validated: 1
EndChar

StartChar: uni32D8
Encoding: 13016 13016 229
Width: 1000
VWidth: 755
Flags: W
HStem: -166 32<387.593 612.407> 520.698 18.1768<570.441 765.06> 734 32<387.593 612.407>
VStem: 34 32<187.593 412.407> 215.4 65.498<89.0068 538.875> 765.06 19.54<143.623 520.698> 934 32<187.593 412.407>
LayerCount: 2
Fore
SplineSet
500 766 m 0
 757.192382812 766 966 557.192382812 966 300 c 0
 966 42.8076171875 757.192382812 -166 500 -166 c 0
 242.807617188 -166 34 42.8076171875 34 300 c 0
 34 557.192382812 242.807617188 766 500 766 c 0
500 734 m 0
 260.46875 734 66 539.53125 66 300 c 0
 66 60.46875 260.46875 -134 500 -134 c 0
 739.53125 -134 934 60.46875 934 300 c 0
 934 539.53125 739.53125 734 500 734 c 0
784.599609375 63.75 m 1
 539.375976562 538.875 l 1
 784.599609375 538.875 l 1
 784.599609375 63.75 l 1
765.059570312 143.623046875 m 1
 765.059570312 520.698242188 l 1
 570.44140625 520.698242188 l 1
 765.059570312 143.623046875 l 1
215.400390625 538.875 m 1
 280.8984375 538.875 l 1
 280.8984375 89.0068359375 l 1
 490.67578125 538.875 l 1
 536.909179688 538.875 l 1
 314.130859375 61.125 l 1
 280.8984375 61.125 l 1
 267.896484375 61.125 l 1
 215.400390625 61.125 l 1
 215.400390625 538.875 l 1
EndSplineSet
Validated: 1
EndChar

StartChar: uni32DA
Encoding: 13018 13018 230
Width: 1000
VWidth: 755
Flags: W
HStem: -166 32<387.593 612.407> 61.125 14.2031<249.336 458.185 542.65 737.27> 524.672 14.2031<292.158 503.735> 734 32<387.593 612.407>
VStem: 34 32<187.593 412.407> 737.27 19.54<79.3018 456.377> 934 32<187.593 412.407>
LayerCount: 2
Fore
SplineSet
500 766 m 0
 757.192382812 766 966 557.192382812 966 300 c 0
 966 42.8076171875 757.192382812 -166 500 -166 c 0
 242.807617188 -166 34 42.8076171875 34 300 c 0
 34 557.192382812 242.807617188 766 500 766 c 0
500 734 m 0
 260.46875 734 66 539.53125 66 300 c 0
 66 60.46875 260.46875 -134 500 -134 c 0
 739.53125 -134 934 60.46875 934 300 c 0
 934 539.53125 739.53125 734 500 734 c 0
756.809570312 536.25 m 1
 756.809570312 61.125 l 1
 511.5859375 61.125 l 1
 756.809570312 536.25 l 1
737.26953125 456.376953125 m 1
 542.650390625 79.3017578125 l 1
 737.26953125 79.3017578125 l 1
 737.26953125 456.376953125 l 1
243.190429688 538.875 m 1
 275.134765625 538.875 l 1
 285.571289062 538.875 l 1
 503.735351562 538.875 l 1
 503.735351562 524.671875 l 1
 292.158203125 524.671875 l 1
 507.15234375 61.125 l 1
 477.936523438 61.125 l 1
 464.771484375 61.125 l 1
 249.3359375 61.125 l 1
 249.3359375 75.328125 l 1
 458.184570312 75.328125 l 1
 243.190429688 538.875 l 1
EndSplineSet
Validated: 1
EndChar

StartChar: uni32DC
Encoding: 13020 13020 231
Width: 1000
VWidth: 755
Flags: W
HStem: -166 32<387.593 612.407> 61.125 14.2031<233.862 442.711> 141.528 17.9688<570.904 759.271> 438.331 17.9688<570.904 759.271> 524.672 14.2031<276.685 488.262> 734 32<387.593 612.407>
VStem: 34 32<187.593 412.407> 557.892 13.0127<159.497 438.331> 759.271 13.0117<159.497 438.331> 934 32<187.593 412.407>
LayerCount: 2
Fore
SplineSet
500 766 m 0
 757.192382812 766 966 557.192382812 966 300 c 0
 966 42.8076171875 757.192382812 -166 500 -166 c 0
 242.807617188 -166 34 42.8076171875 34 300 c 0
 34 557.192382812 242.807617188 766 500 766 c 0
500 734 m 0
 260.46875 734 66 539.53125 66 300 c 0
 66 60.46875 260.46875 -134 500 -134 c 0
 739.53125 -134 934 60.46875 934 300 c 0
 934 539.53125 739.53125 734 500 734 c 0
557.891601562 456.299804688 m 1
 772.283203125 456.299804688 l 1
 772.283203125 141.528320312 l 1
 557.891601562 141.528320312 l 1
 557.891601562 456.299804688 l 1
570.904296875 438.331054688 m 1
 570.904296875 159.497070312 l 1
 759.271484375 159.497070312 l 1
 759.271484375 438.331054688 l 1
 570.904296875 438.331054688 l 1
227.716796875 538.875 m 1
 259.661132812 538.875 l 1
 270.09765625 538.875 l 1
 488.26171875 538.875 l 1
 488.26171875 524.671875 l 1
 276.684570312 524.671875 l 1
 491.678710938 61.125 l 1
 462.462890625 61.125 l 1
 449.297851562 61.125 l 1
 233.862304688 61.125 l 1
 233.862304688 75.328125 l 1
 442.7109375 75.328125 l 1
 227.716796875 538.875 l 1
EndSplineSet
Validated: 1
EndChar

StartChar: uni32DE
Encoding: 13022 13022 232
Width: 1000
VWidth: 755
Flags: W
HStem: -166 32<387.593 612.407> 61.125 14.2031<264.298 473.146> 187.825 16.6953<592.253 669.263> 393.308 16.6963<592.253 669.263> 524.672 14.2031<307.121 518.698> 734 32<387.593 612.407>
VStem: 34 32<187.593 412.407> 519.67 16.6953<260.41 337.42> 725.151 16.6953<260.409 337.42> 934 32<187.593 412.407>
LayerCount: 2
Fore
SplineSet
500 766 m 0
 757.192382812 766 966 557.192382812 966 300 c 0
 966 42.8076171875 757.192382812 -166 500 -166 c 0
 242.807617188 -166 34 42.8076171875 34 300 c 0
 34 557.192382812 242.807617188 766 500 766 c 0
500 734 m 0
 260.46875 734 66 539.53125 66 300 c 0
 66 60.46875 260.46875 -134 500 -134 c 0
 739.53125 -134 934 60.46875 934 300 c 0
 934 539.53125 739.53125 734 500 734 c 0
630.7578125 410.00390625 m 0
 692.069335938 410.00390625 741.846679688 360.2265625 741.846679688 298.915039062 c 0
 741.846679688 237.603515625 692.069335938 187.825195312 630.7578125 187.825195312 c 0
 569.446289062 187.826171875 519.669921875 237.603515625 519.669921875 298.915039062 c 0
 519.669921875 360.225585938 569.446289062 410.002929688 630.7578125 410.00390625 c 0
630.7578125 393.307617188 m 0
 578.661132812 393.307617188 536.365234375 351.01171875 536.365234375 298.915039062 c 0
 536.365234375 246.818359375 578.661132812 204.521484375 630.7578125 204.520507812 c 0
 682.85546875 204.520507812 725.151367188 246.817382812 725.151367188 298.915039062 c 0
 725.150390625 351.01171875 682.85546875 393.307617188 630.7578125 393.307617188 c 0
258.153320312 538.875 m 1
 290.09765625 538.875 l 1
 300.534179688 538.875 l 1
 518.698242188 538.875 l 1
 518.698242188 524.671875 l 1
 307.12109375 524.671875 l 1
 522.114257812 61.125 l 1
 492.899414062 61.125 l 1
 479.733398438 61.125 l 1
 264.297851562 61.125 l 1
 264.297851562 75.328125 l 1
 473.146484375 75.328125 l 1
 258.153320312 538.875 l 1
EndSplineSet
Validated: 1
EndChar

StartChar: uni32E0
Encoding: 13024 13024 233
Width: 1000
VWidth: 755
Flags: W
HStem: -166 32<387.593 612.407> 270.462 57.792<410.374 543.938> 387.331 14.7676<613.608 669.907> 522.821 14.7686<613.608 669.907> 734 32<387.593 612.407>
VStem: 34 32<187.593 412.407> 283.112 59.0762<61.125 538.875> 566.629 14.7676<434.311 490.609> 611.578 60.3613<61.125 366.782> 702.118 14.7695<434.311 490.609> 934 32<187.593 412.407>
LayerCount: 2
Fore
SplineSet
500 766 m 0
 757.192382812 766 966 557.192382812 966 300 c 0
 966 42.8076171875 757.192382812 -166 500 -166 c 0
 242.807617188 -166 34 42.8076171875 34 300 c 0
 34 557.192382812 242.807617188 766 500 766 c 0
500 734 m 0
 260.46875 734 66 539.53125 66 300 c 0
 66 60.46875 260.46875 -134 500 -134 c 0
 739.53125 -134 934 60.46875 934 300 c 0
 934 539.53125 739.53125 734 500 734 c 0
611.578125 61.125 m 1
 611.578125 366.782226562 l 1
 671.939453125 366.782226562 l 1
 671.939453125 61.125 l 1
 611.578125 61.125 l 1
641.756835938 537.58984375 m 0
 683.22265625 537.58984375 716.887695312 503.92578125 716.887695312 462.459960938 c 0
 716.887695312 420.995117188 683.22265625 387.331054688 641.756835938 387.331054688 c 0
 600.291992188 387.331054688 566.62890625 420.995117188 566.62890625 462.459960938 c 0
 566.62890625 503.92578125 600.291992188 537.58984375 641.756835938 537.58984375 c 0
641.756835938 522.821289062 m 0
 608.443359375 522.821289062 581.396484375 495.774414062 581.396484375 462.459960938 c 0
 581.396484375 429.146484375 608.443359375 402.098632812 641.756835938 402.098632812 c 0
 675.072265625 402.098632812 702.118164062 429.146484375 702.118164062 462.459960938 c 0
 702.118164062 495.774414062 675.072265625 522.821289062 641.756835938 522.821289062 c 0
283.112304688 61.125 m 1
 283.112304688 538.875 l 1
 342.188476562 538.875 l 1
 342.188476562 61.125 l 1
 283.112304688 61.125 l 1
410.374023438 270.461914062 m 1
 410.374023438 328.25390625 l 1
 543.938476562 328.25390625 l 1
 543.938476562 270.461914062 l 1
 410.374023438 270.461914062 l 1
EndSplineSet
Validated: 1
EndChar

StartChar: uni32E2
Encoding: 13026 13026 234
Width: 1000
VWidth: 755
Flags: W
HStem: -166 32<387.593 612.407> 270.462 57.792<394.41 527.976> 520.698 18.1768<518.692 713.312> 734 32<387.593 612.407>
VStem: 34 32<187.593 412.407> 267.149 59.0762<61.125 538.875> 713.312 19.54<143.623 520.698> 934 32<187.593 412.407>
LayerCount: 2
Fore
SplineSet
500 766 m 0
 757.192382812 766 966 557.192382812 966 300 c 0
 966 42.8076171875 757.192382812 -166 500 -166 c 0
 242.807617188 -166 34 42.8076171875 34 300 c 0
 34 557.192382812 242.807617188 766 500 766 c 0
500 734 m 0
 260.46875 734 66 539.53125 66 300 c 0
 66 60.46875 260.46875 -134 500 -134 c 0
 739.53125 -134 934 60.46875 934 300 c 0
 934 539.53125 739.53125 734 500 734 c 0
267.149414062 61.125 m 1
 267.149414062 538.875 l 1
 326.225585938 538.875 l 1
 326.225585938 61.125 l 1
 267.149414062 61.125 l 1
394.41015625 270.461914062 m 1
 394.41015625 328.25390625 l 1
 527.975585938 328.25390625 l 1
 527.975585938 270.461914062 l 1
 394.41015625 270.461914062 l 1
732.8515625 63.75 m 1
 487.627929688 538.875 l 1
 732.8515625 538.875 l 1
 732.8515625 63.75 l 1
713.311523438 143.623046875 m 1
 713.311523438 520.698242188 l 1
 518.692382812 520.698242188 l 1
 713.311523438 143.623046875 l 1
EndSplineSet
Validated: 1
EndChar

StartChar: uni32E4
Encoding: 13028 13028 235
Width: 1000
VWidth: 755
Flags: W
HStem: -166 32<387.593 612.407> 61.125 18.1768<570.356 764.976> 734 32<387.593 612.407>
VStem: 34 32<187.593 412.407> 215.485 65.498<61.125 510.993> 764.976 19.5391<79.3018 456.377> 934 32<187.593 412.407>
LayerCount: 2
Fore
SplineSet
500 766 m 0
 757.192382812 766 966 557.192382812 966 300 c 0
 966 42.8076171875 757.192382812 -166 500 -166 c 0
 242.807617188 -166 34 42.8076171875 34 300 c 0
 34 557.192382812 242.807617188 766 500 766 c 0
500 734 m 0
 260.46875 734 66 539.53125 66 300 c 0
 66 60.46875 260.46875 -134 500 -134 c 0
 739.53125 -134 934 60.46875 934 300 c 0
 934 539.53125 739.53125 734 500 734 c 0
784.514648438 536.25 m 1
 784.514648438 61.125 l 1
 539.291015625 61.125 l 1
 784.514648438 536.25 l 1
764.975585938 456.376953125 m 1
 570.356445312 79.3017578125 l 1
 764.975585938 79.3017578125 l 1
 764.975585938 456.376953125 l 1
215.485351562 61.125 m 1
 215.485351562 538.875 l 1
 267.981445312 538.875 l 1
 280.983398438 538.875 l 1
 314.215820312 538.875 l 1
 536.994140625 61.125 l 1
 490.760742188 61.125 l 1
 280.983398438 510.993164062 l 1
 280.983398438 61.125 l 1
 215.485351562 61.125 l 1
EndSplineSet
Validated: 1
EndChar

StartChar: uni32E6
Encoding: 13030 13030 236
Width: 1000
VWidth: 755
Flags: W
HStem: -166 32<387.593 612.407> 141.528 17.9688<569.611 757.979> 438.331 17.9688<569.611 757.979> 734 32<387.593 612.407>
VStem: 34 32<187.593 412.407> 229.009 65.499<61.125 510.993> 556.599 13.0127<159.497 438.331> 757.979 13.0117<159.497 438.331> 934 32<187.593 412.407>
LayerCount: 2
Fore
SplineSet
500 766 m 0
 757.192382812 766 966 557.192382812 966 300 c 0
 966 42.8076171875 757.192382812 -166 500 -166 c 0
 242.807617188 -166 34 42.8076171875 34 300 c 0
 34 557.192382812 242.807617188 766 500 766 c 0
500 734 m 0
 260.46875 734 66 539.53125 66 300 c 0
 66 60.46875 260.46875 -134 500 -134 c 0
 739.53125 -134 934 60.46875 934 300 c 0
 934 539.53125 739.53125 734 500 734 c 0
556.598632812 456.299804688 m 1
 770.991210938 456.299804688 l 1
 770.991210938 141.528320312 l 1
 556.598632812 141.528320312 l 1
 556.598632812 456.299804688 l 1
569.611328125 438.331054688 m 1
 569.611328125 159.497070312 l 1
 757.979492188 159.497070312 l 1
 757.979492188 438.331054688 l 1
 569.611328125 438.331054688 l 1
229.008789062 61.125 m 1
 229.008789062 538.875 l 1
 281.505859375 538.875 l 1
 294.5078125 538.875 l 1
 327.740234375 538.875 l 1
 550.517578125 61.125 l 1
 504.284179688 61.125 l 1
 294.5078125 510.993164062 l 1
 294.5078125 61.125 l 1
 229.008789062 61.125 l 1
EndSplineSet
Validated: 1
EndChar

StartChar: uni32E8
Encoding: 13032 13032 237
Width: 1000
VWidth: 755
Flags: W
HStem: -166 32<387.593 612.407> 187.825 16.6953<609.81 686.821> 393.308 16.6963<609.81 686.821> 734 32<387.593 612.407>
VStem: 34 32<187.593 412.407> 240.594 65.499<61.125 510.993> 537.228 16.6953<260.409 337.42> 742.71 16.6963<260.409 337.421> 934 32<187.593 412.407>
LayerCount: 2
Fore
SplineSet
500 766 m 0
 757.192382812 766 966 557.192382812 966 300 c 0
 966 42.8076171875 757.192382812 -166 500 -166 c 0
 242.807617188 -166 34 42.8076171875 34 300 c 0
 34 557.192382812 242.807617188 766 500 766 c 0
500 734 m 0
 260.46875 734 66 539.53125 66 300 c 0
 66 60.46875 260.46875 -134 500 -134 c 0
 739.53125 -134 934 60.46875 934 300 c 0
 934 539.53125 739.53125 734 500 734 c 0
648.315429688 410.00390625 m 0
 709.627929688 410.00390625 759.40625 360.2265625 759.40625 298.915039062 c 0
 759.40625 237.602539062 709.627929688 187.825195312 648.315429688 187.825195312 c 0
 587.00390625 187.825195312 537.227539062 237.603515625 537.227539062 298.915039062 c 0
 537.227539062 360.225585938 587.00390625 410.002929688 648.315429688 410.00390625 c 0
648.315429688 393.307617188 m 0
 596.21875 393.307617188 553.922851562 351.01171875 553.922851562 298.915039062 c 0
 553.922851562 246.817382812 596.21875 204.521484375 648.315429688 204.520507812 c 0
 700.413085938 204.520507812 742.709960938 246.817382812 742.709960938 298.915039062 c 0
 742.709960938 351.012695312 700.413085938 393.307617188 648.315429688 393.307617188 c 0
240.59375 61.125 m 1
 240.59375 538.875 l 1
 293.090820312 538.875 l 1
 306.092773438 538.875 l 1
 339.325195312 538.875 l 1
 562.102539062 61.125 l 1
 515.869140625 61.125 l 1
 306.092773438 510.993164062 l 1
 306.092773438 61.125 l 1
 240.59375 61.125 l 1
EndSplineSet
Validated: 1
EndChar

StartChar: uni32EA
Encoding: 13034 13034 238
Width: 1000
VWidth: 755
Flags: W
HStem: -166 32<387.593 612.407> 61.125 14.127<305.386 554.599> 387.331 14.7676<650.412 706.71> 522.821 14.7686<650.412 706.71> 734 32<387.593 612.407>
VStem: 34 32<187.593 412.407> 246.309 59.0771<75.252 538.875> 603.433 14.7676<434.311 490.609> 648.382 60.3613<61.125 366.782> 738.922 14.7695<434.311 490.609> 934 32<187.593 412.407>
LayerCount: 2
Fore
SplineSet
500 766 m 0
 757.192382812 766 966 557.192382812 966 300 c 0
 966 42.8076171875 757.192382812 -166 500 -166 c 0
 242.807617188 -166 34 42.8076171875 34 300 c 0
 34 557.192382812 242.807617188 766 500 766 c 0
500 734 m 0
 260.46875 734 66 539.53125 66 300 c 0
 66 60.46875 260.46875 -134 500 -134 c 0
 739.53125 -134 934 60.46875 934 300 c 0
 934 539.53125 739.53125 734 500 734 c 0
648.381835938 61.125 m 1
 648.381835938 366.782226562 l 1
 708.743164062 366.782226562 l 1
 708.743164062 61.125 l 1
 648.381835938 61.125 l 1
678.560546875 537.58984375 m 0
 720.026367188 537.58984375 753.69140625 503.92578125 753.69140625 462.459960938 c 0
 753.690429688 420.995117188 720.026367188 387.331054688 678.560546875 387.331054688 c 0
 637.095703125 387.331054688 603.432617188 420.995117188 603.432617188 462.459960938 c 0
 603.432617188 503.92578125 637.095703125 537.58984375 678.560546875 537.58984375 c 0
678.560546875 522.821289062 m 0
 645.247070312 522.821289062 618.200195312 495.774414062 618.200195312 462.459960938 c 0
 618.200195312 429.146484375 645.247070312 402.098632812 678.560546875 402.098632812 c 0
 711.875976562 402.098632812 738.921875 429.146484375 738.921875 462.459960938 c 0
 738.921875 495.774414062 711.875976562 522.821289062 678.560546875 522.821289062 c 0
246.30859375 538.875 m 1
 305.385742188 538.875 l 1
 305.385742188 75.251953125 l 1
 554.598632812 75.251953125 l 1
 554.598632812 61.125 l 1
 305.385742188 61.125 l 1
 271.389648438 61.125 l 1
 246.30859375 61.125 l 1
 246.30859375 538.875 l 1
EndSplineSet
Validated: 1
EndChar

StartChar: uni32EC
Encoding: 13036 13036 239
Width: 1000
VWidth: 755
Flags: W
HStem: -166 32<387.593 612.407> 61.125 14.127<338.092 587.306> 520.698 18.1768<506.825 701.444> 734 32<387.593 612.407>
VStem: 34 32<187.593 412.407> 279.016 59.0762<75.252 538.875> 701.444 19.54<143.623 520.698> 934 32<187.593 412.407>
LayerCount: 2
Fore
SplineSet
500 766 m 0
 757.192382812 766 966 557.192382812 966 300 c 0
 966 42.8076171875 757.192382812 -166 500 -166 c 0
 242.807617188 -166 34 42.8076171875 34 300 c 0
 34 557.192382812 242.807617188 766 500 766 c 0
500 734 m 0
 260.46875 734 66 539.53125 66 300 c 0
 66 60.46875 260.46875 -134 500 -134 c 0
 739.53125 -134 934 60.46875 934 300 c 0
 934 539.53125 739.53125 734 500 734 c 0
720.984375 63.75 m 1
 475.760742188 538.875 l 1
 720.984375 538.875 l 1
 720.984375 63.75 l 1
701.444335938 143.623046875 m 1
 701.444335938 520.698242188 l 1
 506.825195312 520.698242188 l 1
 701.444335938 143.623046875 l 1
279.015625 538.875 m 1
 338.091796875 538.875 l 1
 338.091796875 75.251953125 l 1
 587.305664062 75.251953125 l 1
 587.305664062 61.125 l 1
 338.091796875 61.125 l 1
 304.096679688 61.125 l 1
 279.015625 61.125 l 1
 279.015625 538.875 l 1
EndSplineSet
Validated: 1
EndChar

StartChar: uni32EE
Encoding: 13038 13038 240
Width: 1000
VWidth: 755
Flags: W
HStem: -166 32<387.593 612.407> 61.125 18.1768<559.518 754.137> 734 32<387.593 612.407>
VStem: 34 32<187.593 412.407> 226.324 59.0771<61.125 538.875> 395.758 59.0762<61.125 538.875> 754.137 19.5391<79.3018 456.377> 934 32<187.593 412.407>
LayerCount: 2
Fore
SplineSet
500 766 m 0
 757.192382812 766 966 557.192382812 966 300 c 0
 966 42.8076171875 757.192382812 -166 500 -166 c 0
 242.807617188 -166 34 42.8076171875 34 300 c 0
 34 557.192382812 242.807617188 766 500 766 c 0
500 734 m 0
 260.46875 734 66 539.53125 66 300 c 0
 66 60.46875 260.46875 -134 500 -134 c 0
 739.53125 -134 934 60.46875 934 300 c 0
 934 539.53125 739.53125 734 500 734 c 0
773.67578125 536.25 m 1
 773.67578125 61.125 l 1
 528.453125 61.125 l 1
 773.67578125 536.25 l 1
754.13671875 456.376953125 m 1
 559.517578125 79.3017578125 l 1
 754.13671875 79.3017578125 l 1
 754.13671875 456.376953125 l 1
226.32421875 61.125 m 1
 226.32421875 538.875 l 1
 285.401367188 538.875 l 1
 285.401367188 61.125 l 1
 226.32421875 61.125 l 1
395.7578125 61.125 m 1
 395.7578125 538.875 l 1
 454.833984375 538.875 l 1
 454.833984375 61.125 l 1
 395.7578125 61.125 l 1
EndSplineSet
Validated: 1
EndChar

StartChar: uni32F0
Encoding: 13040 13040 241
Width: 1000
VWidth: 755
Flags: W
HStem: -166 32<387.593 612.407> 224.103 17.9697<567.996 756.364> 520.906 17.9688<567.996 756.364> 734 32<387.593 612.407>
VStem: 34 32<187.593 412.407> 230.623 59.0762<61.125 538.875> 400.057 59.0762<61.125 538.875> 554.983 13.0127<242.072 520.906> 756.364 13.0127<242.072 520.906> 934 32<187.593 412.407>
LayerCount: 2
Fore
SplineSet
500 766 m 0
 757.192382812 766 966 557.192382812 966 300 c 0
 966 42.8076171875 757.192382812 -166 500 -166 c 0
 242.807617188 -166 34 42.8076171875 34 300 c 0
 34 557.192382812 242.807617188 766 500 766 c 0
500 734 m 0
 260.46875 734 66 539.53125 66 300 c 0
 66 60.46875 260.46875 -134 500 -134 c 0
 739.53125 -134 934 60.46875 934 300 c 0
 934 539.53125 739.53125 734 500 734 c 0
230.623046875 61.125 m 1
 230.623046875 538.875 l 1
 289.69921875 538.875 l 1
 289.69921875 61.125 l 1
 230.623046875 61.125 l 1
400.056640625 61.125 m 1
 400.056640625 538.875 l 1
 459.1328125 538.875 l 1
 459.1328125 61.125 l 1
 400.056640625 61.125 l 1
554.983398438 538.875 m 1
 769.376953125 538.875 l 1
 769.376953125 224.102539062 l 1
 554.983398438 224.102539062 l 1
 554.983398438 538.875 l 1
567.99609375 520.90625 m 1
 567.99609375 242.072265625 l 1
 756.364257812 242.072265625 l 1
 756.364257812 520.90625 l 1
 567.99609375 520.90625 l 1
EndSplineSet
Validated: 1
EndChar

StartChar: uni32F2
Encoding: 13042 13042 242
Width: 1000
VWidth: 755
Flags: W
HStem: -166 32<387.593 612.407> 187.825 16.6953<621.677 698.688> 393.308 16.6963<621.677 698.688> 734 32<387.593 612.407>
VStem: 34 32<187.593 412.407> 228.728 59.0771<61.125 538.875> 398.161 59.0762<61.125 538.875> 549.094 16.6963<260.409 337.42> 754.577 16.6953<260.409 337.421> 934 32<187.593 412.407>
LayerCount: 2
Fore
SplineSet
500 766 m 0
 757.192382812 766 966 557.192382812 966 300 c 0
 966 42.8076171875 757.192382812 -166 500 -166 c 0
 242.807617188 -166 34 42.8076171875 34 300 c 0
 34 557.192382812 242.807617188 766 500 766 c 0
500 734 m 0
 260.46875 734 66 539.53125 66 300 c 0
 66 60.46875 260.46875 -134 500 -134 c 0
 739.53125 -134 934 60.46875 934 300 c 0
 934 539.53125 739.53125 734 500 734 c 0
228.727539062 61.125 m 1
 228.727539062 538.875 l 1
 287.8046875 538.875 l 1
 287.8046875 61.125 l 1
 228.727539062 61.125 l 1
398.161132812 61.125 m 1
 398.161132812 538.875 l 1
 457.237304688 538.875 l 1
 457.237304688 61.125 l 1
 398.161132812 61.125 l 1
660.182617188 410.00390625 m 0
 721.494140625 410.00390625 771.272460938 360.2265625 771.272460938 298.915039062 c 0
 771.272460938 237.602539062 721.494140625 187.825195312 660.182617188 187.825195312 c 0
 598.87109375 187.825195312 549.09375 237.603515625 549.09375 298.915039062 c 0
 549.09375 360.225585938 598.87109375 410.002929688 660.182617188 410.00390625 c 0
660.182617188 393.307617188 m 0
 608.0859375 393.307617188 565.790039062 351.01171875 565.790039062 298.915039062 c 0
 565.790039062 246.817382812 608.084960938 204.521484375 660.182617188 204.520507812 c 0
 712.279296875 204.520507812 754.577148438 246.817382812 754.577148438 298.915039062 c 0
 754.576171875 351.012695312 712.279296875 393.307617188 660.182617188 393.307617188 c 0
EndSplineSet
Validated: 1
EndChar

StartChar: uni32D1
Encoding: 13009 13009 243
Width: 1000
VWidth: 754
Flags: W
HStem: -166 32<387.593 612.407> 386.985 14.7676<471.85 528.149> 522.476 14.7686<471.85 528.149> 734 32<387.593 612.407>
VStem: 34 32<187.593 412.407> 424.87 14.7686<433.965 490.264> 469.819 60.3613<60.7793 366.437> 560.36 14.7695<433.965 490.264> 934 32<187.593 412.407>
LayerCount: 2
Fore
SplineSet
500 766 m 0
 757.192382812 766 966 557.192382812 966 300 c 0
 966 42.8076171875 757.192382812 -166 500 -166 c 0
 242.807617188 -166 34 42.8076171875 34 300 c 0
 34 557.192382812 242.807617188 766 500 766 c 0
500 734 m 0
 260.46875 734 66 539.53125 66 300 c 0
 66 60.46875 260.46875 -134 500 -134 c 0
 739.53125 -134 934 60.46875 934 300 c 0
 934 539.53125 739.53125 734 500 734 c 0
469.819335938 60.779296875 m 1
 469.819335938 366.436523438 l 1
 530.180664062 366.436523438 l 1
 530.180664062 60.779296875 l 1
 469.819335938 60.779296875 l 1
499.999023438 537.244140625 m 0
 541.46484375 537.244140625 575.129882812 503.579101562 575.129882812 462.114257812 c 0
 575.129882812 420.649414062 541.46484375 386.985351562 499.999023438 386.985351562 c 0
 458.534179688 386.985351562 424.87109375 420.649414062 424.870117188 462.114257812 c 0
 424.870117188 503.579101562 458.534179688 537.244140625 499.999023438 537.244140625 c 0
499.999023438 522.475585938 m 0
 466.685546875 522.475585938 439.638671875 495.428710938 439.638671875 462.114257812 c 0
 439.638671875 428.80078125 466.685546875 401.752929688 499.999023438 401.752929688 c 0
 533.313476562 401.752929688 560.360351562 428.80078125 560.360351562 462.114257812 c 0
 560.360351562 495.428710938 533.313476562 522.475585938 499.999023438 522.475585938 c 0
EndSplineSet
Validated: 1
EndChar

StartChar: uni32D3
Encoding: 13011 13011 244
Width: 1000
VWidth: 755
Flags: W
HStem: -166 32<387.593 612.407> 521.404 18.1777<408.453 603.072> 734 32<387.593 612.407>
VStem: 34 32<187.593 412.407> 603.072 19.54<144.33 521.404> 934 32<187.593 412.407>
LayerCount: 2
Fore
SplineSet
500 766 m 0
 757.192382812 766 966 557.192382812 966 300 c 0
 966 42.8076171875 757.192382812 -166 500 -166 c 0
 242.807617188 -166 34 42.8076171875 34 300 c 0
 34 557.192382812 242.807617188 766 500 766 c 0
500 734 m 0
 260.46875 734 66 539.53125 66 300 c 0
 66 60.46875 260.46875 -134 500 -134 c 0
 739.53125 -134 934 60.46875 934 300 c 0
 934 539.53125 739.53125 734 500 734 c 0
622.612304688 64.45703125 m 1
 377.387695312 539.58203125 l 1
 622.612304688 539.58203125 l 1
 622.612304688 64.45703125 l 1
603.072265625 144.330078125 m 1
 603.072265625 521.404296875 l 1
 408.453125 521.404296875 l 1
 603.072265625 144.330078125 l 1
EndSplineSet
Validated: 1
EndChar

StartChar: uni32D5
Encoding: 13013 13013 245
Width: 1000
VWidth: 755
Flags: W
HStem: -166 32<387.593 612.407> 61.125 18.1768<512.038 706.657> 734 32<387.593 612.407>
VStem: 34 32<187.593 412.407> 273.803 65.498<89.0068 538.875> 706.657 19.54<79.3018 456.377> 934 32<187.593 412.407>
LayerCount: 2
Fore
SplineSet
500 766 m 0
 757.192382812 766 966 557.192382812 966 300 c 0
 966 42.8076171875 757.192382812 -166 500 -166 c 0
 242.807617188 -166 34 42.8076171875 34 300 c 0
 34 557.192382812 242.807617188 766 500 766 c 0
500 734 m 0
 260.46875 734 66 539.53125 66 300 c 0
 66 60.46875 260.46875 -134 500 -134 c 0
 739.53125 -134 934 60.46875 934 300 c 0
 934 539.53125 739.53125 734 500 734 c 0
726.197265625 536.25 m 1
 726.197265625 61.125 l 1
 480.973632812 61.125 l 1
 726.197265625 536.25 l 1
706.657226562 456.376953125 m 1
 512.038085938 79.3017578125 l 1
 706.657226562 79.3017578125 l 1
 706.657226562 456.376953125 l 1
273.802734375 538.875 m 1
 339.30078125 538.875 l 1
 339.30078125 89.0068359375 l 1
 549.077148438 538.875 l 1
 595.311523438 538.875 l 1
 372.534179688 61.125 l 1
 339.30078125 61.125 l 1
 326.298828125 61.125 l 1
 273.802734375 61.125 l 1
 273.802734375 538.875 l 1
EndSplineSet
Validated: 1
EndChar

StartChar: uni32D7
Encoding: 13015 13015 246
Width: 1000
VWidth: 755
Flags: W
HStem: -166 32<387.593 612.407> 112.979 17.9688<570.56 758.928> 409.783 17.9688<570.56 758.928> 734 32<387.593 612.407>
VStem: 34 32<187.593 412.407> 228.061 65.498<89.0068 538.875> 557.548 13.0117<130.948 409.783> 758.928 13.0117<130.948 409.783> 934 32<187.593 412.407>
LayerCount: 2
Fore
SplineSet
500 766 m 0
 757.192382812 766 966 557.192382812 966 300 c 0
 966 42.8076171875 757.192382812 -166 500 -166 c 0
 242.807617188 -166 34 42.8076171875 34 300 c 0
 34 557.192382812 242.807617188 766 500 766 c 0
500 734 m 0
 260.46875 734 66 539.53125 66 300 c 0
 66 60.46875 260.46875 -134 500 -134 c 0
 739.53125 -134 934 60.46875 934 300 c 0
 934 539.53125 739.53125 734 500 734 c 0
557.547851562 427.751953125 m 1
 771.939453125 427.751953125 l 1
 771.939453125 112.979492188 l 1
 557.547851562 112.979492188 l 1
 557.547851562 427.751953125 l 1
570.559570312 409.783203125 m 1
 570.559570312 130.948242188 l 1
 758.927734375 130.948242188 l 1
 758.927734375 409.783203125 l 1
 570.559570312 409.783203125 l 1
228.060546875 538.875 m 1
 293.55859375 538.875 l 1
 293.55859375 89.0068359375 l 1
 503.3359375 538.875 l 1
 549.569335938 538.875 l 1
 326.791992188 61.125 l 1
 293.55859375 61.125 l 1
 280.556640625 61.125 l 1
 228.060546875 61.125 l 1
 228.060546875 538.875 l 1
EndSplineSet
Validated: 1
EndChar

StartChar: uni32D9
Encoding: 13017 13017 247
Width: 1000
VWidth: 755
Flags: W
HStem: -166 32<387.593 612.407> 187.825 16.6953<602.915 679.926> 393.308 16.6963<602.916 679.926> 734 32<387.593 612.407>
VStem: 34 32<187.593 412.407> 247.49 65.498<89.0068 538.875> 530.332 16.6953<260.41 337.42> 735.814 16.6953<260.409 337.42> 934 32<187.593 412.407>
LayerCount: 2
Fore
SplineSet
500 766 m 0
 757.192382812 766 966 557.192382812 966 300 c 0
 966 42.8076171875 757.192382812 -166 500 -166 c 0
 242.807617188 -166 34 42.8076171875 34 300 c 0
 34 557.192382812 242.807617188 766 500 766 c 0
500 734 m 0
 260.46875 734 66 539.53125 66 300 c 0
 66 60.46875 260.46875 -134 500 -134 c 0
 739.53125 -134 934 60.46875 934 300 c 0
 934 539.53125 739.53125 734 500 734 c 0
641.420898438 410.00390625 m 0
 702.732421875 410.00390625 752.509765625 360.2265625 752.509765625 298.915039062 c 0
 752.509765625 237.603515625 702.732421875 187.825195312 641.420898438 187.825195312 c 0
 580.108398438 187.826171875 530.33203125 237.603515625 530.33203125 298.915039062 c 0
 530.333007812 360.225585938 580.110351562 410.002929688 641.420898438 410.00390625 c 0
641.420898438 393.307617188 m 0
 589.32421875 393.307617188 547.028320312 351.01171875 547.02734375 298.915039062 c 0
 547.02734375 246.818359375 589.32421875 204.521484375 641.420898438 204.520507812 c 0
 693.517578125 204.521484375 735.814453125 246.817382812 735.814453125 298.915039062 c 0
 735.813476562 351.01171875 693.517578125 393.307617188 641.420898438 393.307617188 c 0
247.490234375 538.875 m 1
 312.98828125 538.875 l 1
 312.98828125 89.0068359375 l 1
 522.765625 538.875 l 1
 568.999023438 538.875 l 1
 346.221679688 61.125 l 1
 312.98828125 61.125 l 1
 299.986328125 61.125 l 1
 247.490234375 61.125 l 1
 247.490234375 538.875 l 1
EndSplineSet
Validated: 1
EndChar

StartChar: uni32DB
Encoding: 13019 13019 248
Width: 1000
VWidth: 755
Flags: W
HStem: -166 32<387.593 612.407> 61.125 14.2031<257.458 466.307> 387.331 14.7676<645.408 701.706> 524.672 14.2031<300.281 511.858 649.771 697.342> 734 32<387.593 612.407>
VStem: 34 32<187.593 412.407> 598.428 14.7686<434.311 490.609> 643.377 60.3613<61.125 366.782> 733.918 14.7695<434.311 490.609> 934 32<187.593 412.407>
LayerCount: 2
Fore
SplineSet
500 766 m 0
 757.192382812 766 966 557.192382812 966 300 c 0
 966 42.8076171875 757.192382812 -166 500 -166 c 0
 242.807617188 -166 34 42.8076171875 34 300 c 0
 34 557.192382812 242.807617188 766 500 766 c 0
500 734 m 0
 260.46875 734 66 539.53125 66 300 c 0
 66 60.46875 260.46875 -134 500 -134 c 0
 739.53125 -134 934 60.46875 934 300 c 0
 934 539.53125 739.53125 734 500 734 c 0
643.376953125 61.125 m 1
 643.376953125 366.782226562 l 1
 703.73828125 366.782226562 l 1
 703.73828125 61.125 l 1
 643.376953125 61.125 l 1
673.556640625 537.58984375 m 0
 715.021484375 537.58984375 748.6875 503.92578125 748.6875 462.459960938 c 0
 748.685546875 420.995117188 715.021484375 387.331054688 673.556640625 387.331054688 c 0
 632.091796875 387.331054688 598.427734375 420.995117188 598.427734375 462.459960938 c 0
 598.427734375 503.92578125 632.091796875 537.58984375 673.556640625 537.58984375 c 0
673.556640625 522.821289062 m 0
 640.2421875 522.821289062 613.196289062 495.774414062 613.196289062 462.459960938 c 0
 613.196289062 429.146484375 640.2421875 402.098632812 673.556640625 402.098632812 c 0
 706.87109375 402.098632812 733.91796875 429.146484375 733.91796875 462.459960938 c 0
 733.91796875 495.774414062 706.87109375 522.821289062 673.556640625 522.821289062 c 0
251.3125 538.875 m 1
 283.2578125 538.875 l 1
 293.693359375 538.875 l 1
 511.858398438 538.875 l 1
 511.858398438 524.671875 l 1
 300.28125 524.671875 l 1
 515.274414062 61.125 l 1
 486.059570312 61.125 l 1
 472.89453125 61.125 l 1
 257.458007812 61.125 l 1
 257.458007812 75.328125 l 1
 466.306640625 75.328125 l 1
 251.3125 538.875 l 1
EndSplineSet
Validated: 1
EndChar

StartChar: uni32DD
Encoding: 13021 13021 249
Width: 1000
VWidth: 755
Flags: W
HStem: -166 32<387.593 612.407> 61.125 14.2031<248.89 457.738> 524.672 14.2031<291.713 503.291 543.096 737.715> 734 32<387.593 612.407>
VStem: 34 32<187.593 412.407> 737.715 19.54<143.623 520.698> 934 32<187.593 412.407>
LayerCount: 2
Fore
SplineSet
500 766 m 0
 757.192382812 766 966 557.192382812 966 300 c 0
 966 42.8076171875 757.192382812 -166 500 -166 c 0
 242.807617188 -166 34 42.8076171875 34 300 c 0
 34 557.192382812 242.807617188 766 500 766 c 0
500 734 m 0
 260.46875 734 66 539.53125 66 300 c 0
 66 60.46875 260.46875 -134 500 -134 c 0
 739.53125 -134 934 60.46875 934 300 c 0
 934 539.53125 739.53125 734 500 734 c 0
757.254882812 63.75 m 1
 512.03125 538.875 l 1
 757.254882812 538.875 l 1
 757.254882812 63.75 l 1
737.71484375 143.623046875 m 1
 737.71484375 520.698242188 l 1
 543.095703125 520.698242188 l 1
 737.71484375 143.623046875 l 1
242.745117188 538.875 m 1
 274.689453125 538.875 l 1
 285.125976562 538.875 l 1
 503.291015625 538.875 l 1
 503.291015625 524.671875 l 1
 291.712890625 524.671875 l 1
 506.706054688 61.125 l 1
 477.491210938 61.125 l 1
 464.326171875 61.125 l 1
 248.889648438 61.125 l 1
 248.889648438 75.328125 l 1
 457.73828125 75.328125 l 1
 242.745117188 538.875 l 1
EndSplineSet
Validated: 1
EndChar

StartChar: uni32DF
Encoding: 13023 13023 250
Width: 1000
VWidth: 755
Flags: W
HStem: -166 32<387.593 612.407> 61.125 18.1768<520.138 714.758> 270.462 57.792<392.965 526.529> 734 32<387.593 612.407>
VStem: 34 32<187.593 412.407> 265.703 59.0762<61.125 538.875> 714.758 19.5391<79.3018 456.377> 934 32<187.593 412.407>
LayerCount: 2
Fore
SplineSet
500 766 m 0
 757.192382812 766 966 557.192382812 966 300 c 0
 966 42.8076171875 757.192382812 -166 500 -166 c 0
 242.807617188 -166 34 42.8076171875 34 300 c 0
 34 557.192382812 242.807617188 766 500 766 c 0
500 734 m 0
 260.46875 734 66 539.53125 66 300 c 0
 66 60.46875 260.46875 -134 500 -134 c 0
 739.53125 -134 934 60.46875 934 300 c 0
 934 539.53125 739.53125 734 500 734 c 0
734.296875 536.25 m 1
 734.296875 61.125 l 1
 489.072265625 61.125 l 1
 734.296875 536.25 l 1
714.7578125 456.376953125 m 1
 520.137695312 79.3017578125 l 1
 714.7578125 79.3017578125 l 1
 714.7578125 456.376953125 l 1
265.703125 61.125 m 1
 265.703125 538.875 l 1
 324.779296875 538.875 l 1
 324.779296875 61.125 l 1
 265.703125 61.125 l 1
392.96484375 270.461914062 m 1
 392.96484375 328.25390625 l 1
 526.529296875 328.25390625 l 1
 526.529296875 270.461914062 l 1
 392.96484375 270.461914062 l 1
EndSplineSet
Validated: 1
EndChar

StartChar: uni32E1
Encoding: 13025 13025 251
Width: 1000
VWidth: 755
Flags: W
HStem: -166 32<387.593 612.407> 156.319 17.9688<569.029 757.396> 270.462 57.792<356.853 490.418> 453.122 17.9688<569.029 757.396> 734 32<387.593 612.407>
VStem: 34 32<187.593 412.407> 229.591 59.0771<61.125 538.875> 556.017 13.0127<174.288 453.122> 757.396 13.0127<174.288 453.122> 934 32<187.593 412.407>
LayerCount: 2
Fore
SplineSet
500 766 m 0
 757.192382812 766 966 557.192382812 966 300 c 0
 966 42.8076171875 757.192382812 -166 500 -166 c 0
 242.807617188 -166 34 42.8076171875 34 300 c 0
 34 557.192382812 242.807617188 766 500 766 c 0
500 734 m 0
 260.46875 734 66 539.53125 66 300 c 0
 66 60.46875 260.46875 -134 500 -134 c 0
 739.53125 -134 934 60.46875 934 300 c 0
 934 539.53125 739.53125 734 500 734 c 0
229.590820312 61.125 m 1
 229.590820312 538.875 l 1
 288.66796875 538.875 l 1
 288.66796875 61.125 l 1
 229.590820312 61.125 l 1
356.852539062 270.461914062 m 1
 356.852539062 328.25390625 l 1
 490.41796875 328.25390625 l 1
 490.41796875 270.461914062 l 1
 356.852539062 270.461914062 l 1
556.016601562 471.090820312 m 1
 770.409179688 471.090820312 l 1
 770.409179688 156.319335938 l 1
 556.016601562 156.319335938 l 1
 556.016601562 471.090820312 l 1
569.029296875 453.122070312 m 1
 569.029296875 174.288085938 l 1
 757.396484375 174.288085938 l 1
 757.396484375 453.122070312 l 1
 569.029296875 453.122070312 l 1
EndSplineSet
Validated: 1
EndChar

StartChar: uni32E3
Encoding: 13027 13027 252
Width: 1000
VWidth: 755
Flags: W
HStem: -166 32<387.593 612.407> 187.825 16.6953<629.744 706.755> 270.462 57.792<347.924 481.488> 393.308 16.6963<629.744 706.754> 734 32<387.593 612.407>
VStem: 34 32<187.593 412.407> 220.662 59.0762<61.125 538.875> 557.161 16.6953<260.41 337.42> 762.643 16.6953<260.409 337.42> 934 32<187.593 412.407>
LayerCount: 2
Fore
SplineSet
500 766 m 0
 757.192382812 766 966 557.192382812 966 300 c 0
 966 42.8076171875 757.192382812 -166 500 -166 c 0
 242.807617188 -166 34 42.8076171875 34 300 c 0
 34 557.192382812 242.807617188 766 500 766 c 0
500 734 m 0
 260.46875 734 66 539.53125 66 300 c 0
 66 60.46875 260.46875 -134 500 -134 c 0
 739.53125 -134 934 60.46875 934 300 c 0
 934 539.53125 739.53125 734 500 734 c 0
220.662109375 61.125 m 1
 220.662109375 538.875 l 1
 279.73828125 538.875 l 1
 279.73828125 61.125 l 1
 220.662109375 61.125 l 1
347.923828125 270.461914062 m 1
 347.923828125 328.25390625 l 1
 481.48828125 328.25390625 l 1
 481.48828125 270.461914062 l 1
 347.923828125 270.461914062 l 1
668.249023438 410.00390625 m 0
 729.560546875 410.00390625 779.337890625 360.2265625 779.337890625 298.915039062 c 0
 779.337890625 237.603515625 729.560546875 187.825195312 668.249023438 187.825195312 c 0
 606.9375 187.826171875 557.161132812 237.603515625 557.161132812 298.915039062 c 0
 557.162109375 360.225585938 606.938476562 410.001953125 668.249023438 410.00390625 c 0
668.249023438 393.307617188 m 0
 616.15234375 393.307617188 573.856445312 351.01171875 573.856445312 298.915039062 c 0
 573.856445312 246.818359375 616.15234375 204.521484375 668.249023438 204.520507812 c 0
 720.346679688 204.520507812 762.642578125 246.817382812 762.642578125 298.915039062 c 0
 762.641601562 351.01171875 720.345703125 393.307617188 668.249023438 393.307617188 c 0
EndSplineSet
Validated: 1
EndChar

StartChar: uni32E5
Encoding: 13029 13029 253
Width: 1000
VWidth: 755
Flags: W
HStem: -166 32<387.593 612.407> 387.331 14.7676<630.806 687.105> 522.821 14.7686<630.806 687.105> 734 32<387.593 612.407>
VStem: 34 32<187.593 412.407> 265.914 65.499<61.125 510.993> 583.826 14.7686<434.311 490.609> 628.775 60.3613<61.125 366.782> 719.316 14.7695<434.311 490.609> 934 32<187.593 412.407>
LayerCount: 2
Fore
SplineSet
500 766 m 0
 757.192382812 766 966 557.192382812 966 300 c 0
 966 42.8076171875 757.192382812 -166 500 -166 c 0
 242.807617188 -166 34 42.8076171875 34 300 c 0
 34 557.192382812 242.807617188 766 500 766 c 0
500 734 m 0
 260.46875 734 66 539.53125 66 300 c 0
 66 60.46875 260.46875 -134 500 -134 c 0
 739.53125 -134 934 60.46875 934 300 c 0
 934 539.53125 739.53125 734 500 734 c 0
265.9140625 61.125 m 1
 265.9140625 538.875 l 1
 318.411132812 538.875 l 1
 331.413085938 538.875 l 1
 364.645507812 538.875 l 1
 587.422851562 61.125 l 1
 541.189453125 61.125 l 1
 331.413085938 510.993164062 l 1
 331.413085938 61.125 l 1
 265.9140625 61.125 l 1
628.775390625 61.125 m 1
 628.775390625 366.782226562 l 1
 689.13671875 366.782226562 l 1
 689.13671875 61.125 l 1
 628.775390625 61.125 l 1
658.955078125 537.58984375 m 0
 700.420898438 537.58984375 734.0859375 503.92578125 734.0859375 462.459960938 c 0
 734.084960938 420.995117188 700.420898438 387.331054688 658.955078125 387.331054688 c 0
 617.490234375 387.331054688 583.827148438 420.995117188 583.826171875 462.459960938 c 0
 583.826171875 503.92578125 617.490234375 537.58984375 658.955078125 537.58984375 c 0
658.955078125 522.821289062 m 0
 625.641601562 522.821289062 598.594726562 495.774414062 598.594726562 462.459960938 c 0
 598.594726562 429.146484375 625.641601562 402.098632812 658.955078125 402.098632812 c 0
 692.26953125 402.098632812 719.31640625 429.146484375 719.31640625 462.459960938 c 0
 719.31640625 495.774414062 692.26953125 522.821289062 658.955078125 522.821289062 c 0
EndSplineSet
Validated: 1
EndChar

StartChar: uni32E7
Encoding: 13031 13031 254
Width: 1000
VWidth: 755
Flags: W
HStem: -166 32<387.593 612.407> 520.698 18.1768<512.038 706.657> 734 32<387.593 612.407>
VStem: 34 32<187.593 412.407> 273.803 65.498<61.125 510.993> 706.657 19.54<143.623 520.698> 934 32<187.593 412.407>
LayerCount: 2
Fore
SplineSet
500 766 m 0
 757.192382812 766 966 557.192382812 966 300 c 0
 966 42.8076171875 757.192382812 -166 500 -166 c 0
 242.807617188 -166 34 42.8076171875 34 300 c 0
 34 557.192382812 242.807617188 766 500 766 c 0
500 734 m 0
 260.46875 734 66 539.53125 66 300 c 0
 66 60.46875 260.46875 -134 500 -134 c 0
 739.53125 -134 934 60.46875 934 300 c 0
 934 539.53125 739.53125 734 500 734 c 0
726.197265625 63.75 m 1
 480.973632812 538.875 l 1
 726.197265625 538.875 l 1
 726.197265625 63.75 l 1
706.657226562 143.623046875 m 1
 706.657226562 520.698242188 l 1
 512.038085938 520.698242188 l 1
 706.657226562 143.623046875 l 1
273.802734375 61.125 m 1
 273.802734375 538.875 l 1
 326.298828125 538.875 l 1
 339.30078125 538.875 l 1
 372.534179688 538.875 l 1
 595.311523438 61.125 l 1
 549.077148438 61.125 l 1
 339.30078125 510.993164062 l 1
 339.30078125 61.125 l 1
 273.802734375 61.125 l 1
EndSplineSet
Validated: 1
EndChar

StartChar: uni32E9
Encoding: 13033 13033 255
Width: 1000
VWidth: 755
Flags: W
HStem: -166 32<387.593 612.407> 61.125 14.127<280.581 529.794 564.336 758.956> 734 32<387.593 612.407>
VStem: 34 32<187.593 412.407> 221.504 59.0771<75.252 538.875> 758.956 19.54<79.3018 456.377> 934 32<187.593 412.407>
LayerCount: 2
Fore
SplineSet
500 766 m 0
 757.192382812 766 966 557.192382812 966 300 c 0
 966 42.8076171875 757.192382812 -166 500 -166 c 0
 242.807617188 -166 34 42.8076171875 34 300 c 0
 34 557.192382812 242.807617188 766 500 766 c 0
500 734 m 0
 260.46875 734 66 539.53125 66 300 c 0
 66 60.46875 260.46875 -134 500 -134 c 0
 739.53125 -134 934 60.46875 934 300 c 0
 934 539.53125 739.53125 734 500 734 c 0
778.49609375 536.25 m 1
 778.49609375 61.125 l 1
 533.271484375 61.125 l 1
 778.49609375 536.25 l 1
758.956054688 456.376953125 m 1
 564.3359375 79.3017578125 l 1
 758.956054688 79.3017578125 l 1
 758.956054688 456.376953125 l 1
221.50390625 538.875 m 1
 280.581054688 538.875 l 1
 280.581054688 75.251953125 l 1
 529.793945312 75.251953125 l 1
 529.793945312 61.125 l 1
 280.581054688 61.125 l 1
 246.5859375 61.125 l 1
 221.50390625 61.125 l 1
 221.50390625 538.875 l 1
EndSplineSet
Validated: 1
EndChar

StartChar: uni32EB
Encoding: 13035 13035 256
Width: 1000
VWidth: 755
Flags: W
HStem: -166 32<387.593 612.407> 61.125 14.127<349.256 598.47> 224.103 17.9697<508.441 696.81> 520.906 17.9688<508.441 696.81> 734 32<387.593 612.407>
VStem: 34 32<187.593 412.407> 290.18 59.0762<75.252 538.875> 495.429 13.0127<242.072 520.906> 696.81 13.0107<242.072 520.906> 934 32<187.593 412.407>
LayerCount: 2
Fore
SplineSet
500 766 m 0
 757.192382812 766 966 557.192382812 966 300 c 0
 966 42.8076171875 757.192382812 -166 500 -166 c 0
 242.807617188 -166 34 42.8076171875 34 300 c 0
 34 557.192382812 242.807617188 766 500 766 c 0
500 734 m 0
 260.46875 734 66 539.53125 66 300 c 0
 66 60.46875 260.46875 -134 500 -134 c 0
 739.53125 -134 934 60.46875 934 300 c 0
 934 539.53125 739.53125 734 500 734 c 0
495.428710938 538.875 m 1
 709.8203125 538.875 l 1
 709.8203125 224.102539062 l 1
 495.428710938 224.102539062 l 1
 495.428710938 538.875 l 1
508.44140625 520.90625 m 1
 508.44140625 242.072265625 l 1
 696.809570312 242.072265625 l 1
 696.809570312 520.90625 l 1
 508.44140625 520.90625 l 1
290.1796875 538.875 m 1
 349.255859375 538.875 l 1
 349.255859375 75.251953125 l 1
 598.469726562 75.251953125 l 1
 598.469726562 61.125 l 1
 349.255859375 61.125 l 1
 315.260742188 61.125 l 1
 290.1796875 61.125 l 1
 290.1796875 538.875 l 1
EndSplineSet
Validated: 1
EndChar

StartChar: uni32ED
Encoding: 13037 13037 257
Width: 1000
VWidth: 755
Flags: W
HStem: -166 32<387.593 612.407> 61.125 14.127<333.724 582.936> 187.825 16.6953<575.759 652.77> 393.308 16.6963<575.759 652.77> 734 32<387.593 612.407>
VStem: 34 32<187.593 412.407> 274.646 59.0771<75.252 538.875> 503.175 16.6963<260.409 337.42> 708.658 16.6953<260.409 337.421> 934 32<187.593 412.407>
LayerCount: 2
Fore
SplineSet
500 766 m 0
 757.192382812 766 966 557.192382812 966 300 c 0
 966 42.8076171875 757.192382812 -166 500 -166 c 0
 242.807617188 -166 34 42.8076171875 34 300 c 0
 34 557.192382812 242.807617188 766 500 766 c 0
500 734 m 0
 260.46875 734 66 539.53125 66 300 c 0
 66 60.46875 260.46875 -134 500 -134 c 0
 739.53125 -134 934 60.46875 934 300 c 0
 934 539.53125 739.53125 734 500 734 c 0
614.264648438 410.00390625 m 0
 675.575195312 410.00390625 725.353515625 360.2265625 725.353515625 298.915039062 c 0
 725.353515625 237.602539062 675.576171875 187.825195312 614.264648438 187.825195312 c 0
 552.952148438 187.825195312 503.174804688 237.603515625 503.174804688 298.915039062 c 0
 503.17578125 360.225585938 552.953125 410.002929688 614.264648438 410.00390625 c 0
614.264648438 393.307617188 m 0
 562.166992188 393.307617188 519.87109375 351.01171875 519.87109375 298.915039062 c 0
 519.87109375 246.817382812 562.166992188 204.521484375 614.264648438 204.520507812 c 0
 666.361328125 204.520507812 708.658203125 246.817382812 708.658203125 298.915039062 c 0
 708.657226562 351.012695312 666.361328125 393.307617188 614.264648438 393.307617188 c 0
274.646484375 538.875 m 1
 333.723632812 538.875 l 1
 333.723632812 75.251953125 l 1
 582.935546875 75.251953125 l 1
 582.935546875 61.125 l 1
 333.723632812 61.125 l 1
 299.727539062 61.125 l 1
 274.646484375 61.125 l 1
 274.646484375 538.875 l 1
EndSplineSet
Validated: 1
EndChar

StartChar: uni32EF
Encoding: 13039 13039 258
Width: 1000
VWidth: 755
Flags: W
HStem: -166 32<387.593 612.407> 387.331 14.7676<650.408 706.706> 522.821 14.7686<650.408 706.706> 734 32<387.593 612.407>
VStem: 34 32<187.593 412.407> 246.313 59.0762<61.125 538.875> 415.746 59.0762<61.125 538.875> 603.428 14.7686<434.311 490.609> 648.377 60.3604<61.125 366.782> 738.918 14.7686<434.311 490.609> 934 32<187.593 412.407>
LayerCount: 2
Fore
SplineSet
500 766 m 0
 757.192382812 766 966 557.192382812 966 300 c 0
 966 42.8076171875 757.192382812 -166 500 -166 c 0
 242.807617188 -166 34 42.8076171875 34 300 c 0
 34 557.192382812 242.807617188 766 500 766 c 0
500 734 m 0
 260.46875 734 66 539.53125 66 300 c 0
 66 60.46875 260.46875 -134 500 -134 c 0
 739.53125 -134 934 60.46875 934 300 c 0
 934 539.53125 739.53125 734 500 734 c 0
648.376953125 61.125 m 1
 648.376953125 366.782226562 l 1
 708.737304688 366.782226562 l 1
 708.737304688 61.125 l 1
 648.376953125 61.125 l 1
678.556640625 537.58984375 m 0
 720.022460938 537.58984375 753.686523438 503.92578125 753.686523438 462.459960938 c 0
 753.686523438 420.995117188 720.022460938 387.331054688 678.556640625 387.331054688 c 0
 637.091796875 387.331054688 603.428710938 420.995117188 603.427734375 462.459960938 c 0
 603.427734375 503.92578125 637.091796875 537.58984375 678.556640625 537.58984375 c 0
678.556640625 522.821289062 m 0
 645.243164062 522.821289062 618.196289062 495.774414062 618.196289062 462.459960938 c 0
 618.196289062 429.146484375 645.243164062 402.098632812 678.556640625 402.098632812 c 0
 711.87109375 402.098632812 738.91796875 429.146484375 738.91796875 462.459960938 c 0
 738.91796875 495.774414062 711.87109375 522.821289062 678.556640625 522.821289062 c 0
246.313476562 61.125 m 1
 246.313476562 538.875 l 1
 305.389648438 538.875 l 1
 305.389648438 61.125 l 1
 246.313476562 61.125 l 1
415.74609375 61.125 m 1
 415.74609375 538.875 l 1
 474.822265625 538.875 l 1
 474.822265625 61.125 l 1
 415.74609375 61.125 l 1
EndSplineSet
Validated: 1
EndChar

StartChar: uni32F1
Encoding: 13041 13041 259
Width: 1000
VWidth: 755
Flags: W
HStem: -166 32<387.593 612.407> 520.698 18.1768<559.516 754.137> 734 32<387.593 612.407>
VStem: 34 32<187.593 412.407> 226.324 59.0771<61.125 538.875> 395.758 59.0762<61.125 538.875> 754.137 19.5391<143.623 520.698> 934 32<187.593 412.407>
LayerCount: 2
Fore
SplineSet
500 766 m 0
 757.192382812 766 966 557.192382812 966 300 c 0
 966 42.8076171875 757.192382812 -166 500 -166 c 0
 242.807617188 -166 34 42.8076171875 34 300 c 0
 34 557.192382812 242.807617188 766 500 766 c 0
500 734 m 0
 260.46875 734 66 539.53125 66 300 c 0
 66 60.46875 260.46875 -134 500 -134 c 0
 739.53125 -134 934 60.46875 934 300 c 0
 934 539.53125 739.53125 734 500 734 c 0
773.67578125 63.75 m 1
 528.451171875 538.875 l 1
 773.67578125 538.875 l 1
 773.67578125 63.75 l 1
754.13671875 143.623046875 m 1
 754.13671875 520.698242188 l 1
 559.515625 520.698242188 l 1
 754.13671875 143.623046875 l 1
226.32421875 61.125 m 1
 226.32421875 538.875 l 1
 285.401367188 538.875 l 1
 285.401367188 61.125 l 1
 226.32421875 61.125 l 1
395.7578125 61.125 m 1
 395.7578125 538.875 l 1
 454.833984375 538.875 l 1
 454.833984375 61.125 l 1
 395.7578125 61.125 l 1
EndSplineSet
Validated: 1
EndChar

StartChar: uni32F3
Encoding: 13043 13043 260
Width: 1000
VWidth: 755
Flags: W
HStem: -166 32<387.593 612.407> 61.125 18.1768<573.447 768.066> 524.748 14.127<212.394 461.606> 734 32<387.593 612.407>
VStem: 34 32<187.593 412.407> 461.606 59.0771<61.125 524.748> 768.066 19.54<79.3018 456.377> 934 32<187.593 412.407>
LayerCount: 2
Fore
SplineSet
500 766 m 0
 757.192382812 766 966 557.192382812 966 300 c 0
 966 42.8076171875 757.192382812 -166 500 -166 c 0
 242.807617188 -166 34 42.8076171875 34 300 c 0
 34 557.192382812 242.807617188 766 500 766 c 0
500 734 m 0
 260.46875 734 66 539.53125 66 300 c 0
 66 60.46875 260.46875 -134 500 -134 c 0
 739.53125 -134 934 60.46875 934 300 c 0
 934 539.53125 739.53125 734 500 734 c 0
787.606445312 536.25 m 1
 787.606445312 61.125 l 1
 542.381835938 61.125 l 1
 787.606445312 536.25 l 1
768.06640625 456.376953125 m 1
 573.447265625 79.3017578125 l 1
 768.06640625 79.3017578125 l 1
 768.06640625 456.376953125 l 1
520.68359375 61.125 m 1
 461.606445312 61.125 l 1
 461.606445312 524.748046875 l 1
 212.393554688 524.748046875 l 1
 212.393554688 538.875 l 1
 461.606445312 538.875 l 1
 495.6015625 538.875 l 1
 520.68359375 538.875 l 1
 520.68359375 61.125 l 1
EndSplineSet
Validated: 1
EndChar

StartChar: uni32F4
Encoding: 13044 13044 261
Width: 1000
VWidth: 755
Flags: W
HStem: -166 32<387.593 612.407> 141.528 17.9688<604.797 793.164> 438.331 17.9688<604.797 793.164> 524.748 14.127<193.824 443.037> 734 32<387.593 612.407>
VStem: 34 32<187.593 412.407> 443.037 59.0771<61.125 524.748> 591.784 13.0127<159.497 438.331> 793.164 13.0117<159.497 438.331> 934 32<187.593 412.407>
LayerCount: 2
Fore
SplineSet
500 766 m 0
 757.192382812 766 966 557.192382812 966 300 c 0
 966 42.8076171875 757.192382812 -166 500 -166 c 0
 242.807617188 -166 34 42.8076171875 34 300 c 0
 34 557.192382812 242.807617188 766 500 766 c 0
500 734 m 0
 260.46875 734 66 539.53125 66 300 c 0
 66 60.46875 260.46875 -134 500 -134 c 0
 739.53125 -134 934 60.46875 934 300 c 0
 934 539.53125 739.53125 734 500 734 c 0
591.784179688 456.299804688 m 1
 806.17578125 456.299804688 l 1
 806.17578125 141.528320312 l 1
 591.784179688 141.528320312 l 1
 591.784179688 456.299804688 l 1
604.796875 438.331054688 m 1
 604.796875 159.497070312 l 1
 793.1640625 159.497070312 l 1
 793.1640625 438.331054688 l 1
 604.796875 438.331054688 l 1
502.114257812 61.125 m 1
 443.037109375 61.125 l 1
 443.037109375 524.748046875 l 1
 193.82421875 524.748046875 l 1
 193.82421875 538.875 l 1
 443.037109375 538.875 l 1
 477.032226562 538.875 l 1
 502.114257812 538.875 l 1
 502.114257812 61.125 l 1
EndSplineSet
Validated: 1
EndChar

StartChar: uni32F5
Encoding: 13045 13045 262
Width: 1000
VWidth: 755
Flags: W
HStem: -166 32<387.593 612.407> 190.233 16.6943<649.842 726.852> 395.716 16.6953<649.842 726.852> 524.748 14.127<200.564 449.777> 734 32<387.593 612.407>
VStem: 34 32<187.593 412.407> 449.777 59.0771<61.125 524.748> 577.259 16.6953<262.817 339.828> 782.739 16.6963<262.817 339.828> 934 32<187.593 412.407>
LayerCount: 2
Fore
SplineSet
500 766 m 0
 757.192382812 766 966 557.192382812 966 300 c 0
 966 42.8076171875 757.192382812 -166 500 -166 c 0
 242.807617188 -166 34 42.8076171875 34 300 c 0
 34 557.192382812 242.807617188 766 500 766 c 0
500 734 m 0
 260.46875 734 66 539.53125 66 300 c 0
 66 60.46875 260.46875 -134 500 -134 c 0
 739.53125 -134 934 60.46875 934 300 c 0
 934 539.53125 739.53125 734 500 734 c 0
688.346679688 412.411132812 m 0
 749.658203125 412.411132812 799.434570312 362.633789062 799.435546875 301.323242188 c 0
 799.435546875 240.010742188 749.658203125 190.233398438 688.346679688 190.233398438 c 0
 627.036132812 190.233398438 577.258789062 240.010742188 577.258789062 301.323242188 c 0
 577.258789062 362.633789062 627.036132812 412.411132812 688.346679688 412.411132812 c 0
688.346679688 395.715820312 m 0
 636.250976562 395.71484375 593.955078125 353.418945312 593.954101562 301.323242188 c 0
 593.954101562 249.225585938 636.25 206.9296875 688.346679688 206.927734375 c 0
 740.443359375 206.9296875 782.739257812 249.225585938 782.739257812 301.323242188 c 0
 782.739257812 353.418945312 740.443359375 395.71484375 688.346679688 395.715820312 c 0
508.854492188 61.125 m 1
 449.77734375 61.125 l 1
 449.77734375 524.748046875 l 1
 200.564453125 524.748046875 l 1
 200.564453125 538.875 l 1
 449.77734375 538.875 l 1
 483.772460938 538.875 l 1
 508.854492188 538.875 l 1
 508.854492188 61.125 l 1
EndSplineSet
Validated: 1
EndChar

StartChar: uni32F6
Encoding: 13046 13046 263
Width: 1000
VWidth: 755
Flags: W
HStem: -166 32<387.593 612.407> 61.125 18.1768<506.825 701.444> 524.748 14.127<338.092 587.306> 734 32<387.593 612.407>
VStem: 34 32<187.593 412.407> 279.016 59.0762<61.125 524.748> 701.444 19.54<79.3018 456.377> 934 32<187.593 412.407>
LayerCount: 2
Fore
SplineSet
500 766 m 0
 757.192382812 766 966 557.192382812 966 300 c 0
 966 42.8076171875 757.192382812 -166 500 -166 c 0
 242.807617188 -166 34 42.8076171875 34 300 c 0
 34 557.192382812 242.807617188 766 500 766 c 0
500 734 m 0
 260.46875 734 66 539.53125 66 300 c 0
 66 60.46875 260.46875 -134 500 -134 c 0
 739.53125 -134 934 60.46875 934 300 c 0
 934 539.53125 739.53125 734 500 734 c 0
720.984375 536.25 m 1
 720.984375 61.125 l 1
 475.759765625 61.125 l 1
 720.984375 536.25 l 1
701.444335938 456.376953125 m 1
 506.825195312 79.3017578125 l 1
 701.444335938 79.3017578125 l 1
 701.444335938 456.376953125 l 1
279.015625 61.125 m 1
 279.015625 538.875 l 1
 304.096679688 538.875 l 1
 338.091796875 538.875 l 1
 587.305664062 538.875 l 1
 587.305664062 524.748046875 l 1
 338.091796875 524.748046875 l 1
 338.091796875 61.125 l 1
 279.015625 61.125 l 1
EndSplineSet
Validated: 1
EndChar

StartChar: uni32F7
Encoding: 13047 13047 264
Width: 1000
VWidth: 755
Flags: W
HStem: -166 32<387.593 612.407> 387.331 14.7676<644.38 700.679> 524.748 14.127<311.418 560.631 648.744 696.315> 734 32<387.593 612.407>
VStem: 34 32<187.593 412.407> 252.341 59.0771<61.125 524.748> 597.399 14.7695<434.311 490.609> 642.349 60.3613<61.125 366.782> 732.891 14.7686<434.311 490.609> 934 32<187.593 412.407>
LayerCount: 2
Fore
SplineSet
500 766 m 0
 757.192382812 766 966 557.192382812 966 300 c 0
 966 42.8076171875 757.192382812 -166 500 -166 c 0
 242.807617188 -166 34 42.8076171875 34 300 c 0
 34 557.192382812 242.807617188 766 500 766 c 0
500 734 m 0
 260.46875 734 66 539.53125 66 300 c 0
 66 60.46875 260.46875 -134 500 -134 c 0
 739.53125 -134 934 60.46875 934 300 c 0
 934 539.53125 739.53125 734 500 734 c 0
642.348632812 61.125 m 1
 642.348632812 366.782226562 l 1
 702.709960938 366.782226562 l 1
 702.709960938 61.125 l 1
 642.348632812 61.125 l 1
672.529296875 537.58984375 m 0
 713.995117188 537.58984375 747.659179688 503.92578125 747.659179688 462.459960938 c 0
 747.659179688 420.995117188 713.995117188 387.331054688 672.529296875 387.331054688 c 0
 631.064453125 387.331054688 597.399414062 420.995117188 597.399414062 462.459960938 c 0
 597.399414062 503.92578125 631.064453125 537.58984375 672.529296875 537.58984375 c 0
672.529296875 522.821289062 m 0
 639.215820312 522.821289062 612.168945312 495.774414062 612.168945312 462.459960938 c 0
 612.168945312 429.146484375 639.215820312 402.098632812 672.529296875 402.098632812 c 0
 705.842773438 402.098632812 732.890625 429.146484375 732.890625 462.459960938 c 0
 732.890625 495.774414062 705.842773438 522.821289062 672.529296875 522.821289062 c 0
252.340820312 61.125 m 1
 252.340820312 538.875 l 1
 277.421875 538.875 l 1
 311.41796875 538.875 l 1
 560.630859375 538.875 l 1
 560.630859375 524.748046875 l 1
 311.41796875 524.748046875 l 1
 311.41796875 61.125 l 1
 252.340820312 61.125 l 1
EndSplineSet
Validated: 1
EndChar

StartChar: uni32F8
Encoding: 13048 13048 265
Width: 1000
VWidth: 755
Flags: W
HStem: -166 32<387.593 612.407> 61.125 17.9688<503.664 692.032> 357.928 17.9697<503.664 692.032> 524.748 14.127<354.033 603.246> 734 32<387.593 612.407>
VStem: 34 32<187.593 412.407> 294.957 59.0762<61.125 524.748> 490.652 13.0117<79.0938 357.928> 692.032 13.0107<79.0938 357.928> 934 32<187.593 412.407>
LayerCount: 2
Fore
SplineSet
500 766 m 0
 757.192382812 766 966 557.192382812 966 300 c 0
 966 42.8076171875 757.192382812 -166 500 -166 c 0
 242.807617188 -166 34 42.8076171875 34 300 c 0
 34 557.192382812 242.807617188 766 500 766 c 0
500 734 m 0
 260.46875 734 66 539.53125 66 300 c 0
 66 60.46875 260.46875 -134 500 -134 c 0
 739.53125 -134 934 60.46875 934 300 c 0
 934 539.53125 739.53125 734 500 734 c 0
490.65234375 375.897460938 m 1
 705.04296875 375.897460938 l 1
 705.04296875 61.125 l 1
 490.65234375 61.125 l 1
 490.65234375 375.897460938 l 1
503.6640625 357.927734375 m 1
 503.6640625 79.09375 l 1
 692.032226562 79.09375 l 1
 692.032226562 357.927734375 l 1
 503.6640625 357.927734375 l 1
294.95703125 61.125 m 1
 294.95703125 538.875 l 1
 320.038085938 538.875 l 1
 354.033203125 538.875 l 1
 603.24609375 538.875 l 1
 603.24609375 524.748046875 l 1
 354.033203125 524.748046875 l 1
 354.033203125 61.125 l 1
 294.95703125 61.125 l 1
EndSplineSet
Validated: 1
EndChar

StartChar: uni32F9
Encoding: 13049 13049 266
Width: 1000
VWidth: 755
Flags: W
HStem: -166 32<387.593 612.407> 524.748 14.127<280.581 529.794 564.337 758.956> 734 32<387.593 612.407>
VStem: 34 32<187.593 412.407> 221.504 59.0771<61.125 524.748> 758.956 19.54<143.623 520.698> 934 32<187.593 412.407>
LayerCount: 2
Fore
SplineSet
500 766 m 0
 757.192382812 766 966 557.192382812 966 300 c 0
 966 42.8076171875 757.192382812 -166 500 -166 c 0
 242.807617188 -166 34 42.8076171875 34 300 c 0
 34 557.192382812 242.807617188 766 500 766 c 0
500 734 m 0
 260.46875 734 66 539.53125 66 300 c 0
 66 60.46875 260.46875 -134 500 -134 c 0
 739.53125 -134 934 60.46875 934 300 c 0
 934 539.53125 739.53125 734 500 734 c 0
778.49609375 63.75 m 1
 533.271484375 538.875 l 1
 778.49609375 538.875 l 1
 778.49609375 63.75 l 1
758.956054688 143.623046875 m 1
 758.956054688 520.698242188 l 1
 564.336914062 520.698242188 l 1
 758.956054688 143.623046875 l 1
221.50390625 61.125 m 1
 221.50390625 538.875 l 1
 246.5859375 538.875 l 1
 280.581054688 538.875 l 1
 529.793945312 538.875 l 1
 529.793945312 524.748046875 l 1
 280.581054688 524.748046875 l 1
 280.581054688 61.125 l 1
 221.50390625 61.125 l 1
EndSplineSet
Validated: 1
EndChar

StartChar: uni32FA
Encoding: 13050 13050 267
Width: 1000
VWidth: 755
Flags: W
HStem: -166 32<387.593 612.407> 189.996 16.6963<575.759 652.77> 395.479 16.6953<575.759 652.77> 524.748 14.127<333.724 582.936> 734 32<387.593 612.407>
VStem: 34 32<187.593 412.407> 274.646 59.0771<61.125 524.748> 503.175 16.6963<262.58 339.591> 708.658 16.6953<262.58 339.591> 934 32<187.593 412.407>
LayerCount: 2
Fore
SplineSet
500 766 m 0
 757.192382812 766 966 557.192382812 966 300 c 0
 966 42.8076171875 757.192382812 -166 500 -166 c 0
 242.807617188 -166 34 42.8076171875 34 300 c 0
 34 557.192382812 242.807617188 766 500 766 c 0
500 734 m 0
 260.46875 734 66 539.53125 66 300 c 0
 66 60.46875 260.46875 -134 500 -134 c 0
 739.53125 -134 934 60.46875 934 300 c 0
 934 539.53125 739.53125 734 500 734 c 0
614.264648438 189.99609375 m 0
 552.953125 189.997070312 503.17578125 239.774414062 503.174804688 301.0859375 c 0
 503.174804688 362.396484375 552.952148438 412.174804688 614.264648438 412.174804688 c 0
 675.576171875 412.174804688 725.353515625 362.397460938 725.353515625 301.0859375 c 0
 725.353515625 239.7734375 675.575195312 189.99609375 614.264648438 189.99609375 c 0
614.264648438 206.692382812 m 0
 666.361328125 206.692382812 708.657226562 248.98828125 708.658203125 301.0859375 c 0
 708.658203125 353.182617188 666.361328125 395.479492188 614.264648438 395.479492188 c 0
 562.166992188 395.478515625 519.87109375 353.182617188 519.87109375 301.0859375 c 0
 519.87109375 248.98828125 562.166992188 206.692382812 614.264648438 206.692382812 c 0
274.646484375 61.125 m 1
 274.646484375 538.875 l 1
 299.727539062 538.875 l 1
 333.723632812 538.875 l 1
 582.935546875 538.875 l 1
 582.935546875 524.748046875 l 1
 333.723632812 524.748046875 l 1
 333.723632812 61.125 l 1
 274.646484375 61.125 l 1
EndSplineSet
Validated: 1
EndChar

StartChar: uni3042_uni3099
Encoding: 65536 -1 268
Width: 669
Flags: W
HStem: -67.5 162.582<360.688 493.208> -67.5 27.9648<193.792 360.688>
VStem: 360.688 162.582<-39.5352 95.082> 493.208 30.0615<95.082 540.58>
LayerCount: 2
Fore
SplineSet
523.26953125 663.4609375 m 1x50
 523.26953125 95.08203125 l 1xa0
 523.26953125 -67.5 l 1x50
 360.6875 -67.5 l 1xa0
 146 -67.5 l 1
 523.26953125 663.4609375 l 1x50
493.208007812 540.580078125 m 1x90
 193.791992188 -39.53515625 l 1
 360.6875 -39.53515625 l 1x60
 360.6875 95.08203125 l 1xa0
 493.208007812 95.08203125 l 1
 493.208007812 540.580078125 l 1x90
EndSplineSet
Validated: 1
Ligature2: "'ccmp' +MLAw6jDVVAhiEAAA-/+UgaJ4wAA in +XnNO7lQNMGhyR07uVA0A lookup 1-3" uni30A2 uni3099
Ligature2: "'ccmp' +MLAw6jDVVAhiEAAA-/+UgaJ4wAA in +XnNO7lQNMGhyR07uVA0A lookup 1-2" uni3042 uni3099
EndChar

StartChar: uni3044_uni3099
Encoding: 65537 -1 269
Width: 713
Flags: W
HStem: 218.709 162.582<404.922 567.504> 434.355 22.7197<218.277 304.89> 642.802 22.7217<218.277 304.89>
VStem: 146 22.7207<506.632 593.245> 215.152 92.8633<-67.5 402.742> 354.446 22.7217<506.632 593.245> 404.922 162.582<218.709 381.291>
LayerCount: 2
Fore
SplineSet
215.15234375 -67.5 m 1
 215.15234375 402.7421875 l 1
 308.015625 402.7421875 l 1
 308.015625 -67.5 l 1
 215.15234375 -67.5 l 1
261.583007812 665.5234375 m 0
 325.375976562 665.5234375 377.16796875 613.731445312 377.16796875 549.938476562 c 0
 377.16796875 486.146484375 325.375976562 434.35546875 261.583007812 434.35546875 c 0
 197.791015625 434.35546875 146.000976562 486.146484375 146 549.938476562 c 0
 146 613.731445312 197.791015625 665.522460938 261.583007812 665.5234375 c 0
261.583007812 642.801757812 m 0
 210.331054688 642.801757812 168.720703125 601.19140625 168.720703125 549.938476562 c 0
 168.720703125 498.686523438 210.331054688 457.075195312 261.583007812 457.075195312 c 0
 312.8359375 457.075195312 354.446289062 498.686523438 354.446289062 549.938476562 c 0
 354.446289062 601.19140625 312.8359375 642.801757812 261.583007812 642.801757812 c 0
404.921875 218.708984375 m 1
 404.921875 381.291015625 l 1
 567.50390625 381.291015625 l 1
 567.50390625 218.708984375 l 1
 404.921875 218.708984375 l 1
EndSplineSet
Validated: 1
Ligature2: "'ccmp' +MLAw6jDVVAhiEAAA-/+UgaJ4wAA in +XnNO7lQNMGhyR07uVA0A lookup 1-3" uni30A4 uni3099
Ligature2: "'ccmp' +MLAw6jDVVAhiEAAA-/+UgaJ4wAA in +XnNO7lQNMGhyR07uVA0A lookup 1-2" uni3044 uni3099
EndChar

StartChar: uni3048_uni3099
Encoding: 65538 -1 270
Width: 669
Flags: W
HStem: 504.919 162.581<360.688 493.208> 639.535 27.9648<193.792 360.688>
VStem: 360.688 162.581<504.919 639.535> 493.208 30.0605<59.4199 504.919>
LayerCount: 2
Fore
SplineSet
146 667.5 m 1x50
 360.6875 667.5 l 1xa0
 523.268554688 667.5 l 1x50
 523.268554688 504.918945312 l 1xa0
 523.268554688 -63.4609375 l 1
 146 667.5 l 1x50
193.791992188 639.53515625 m 1x60
 493.208007812 59.419921875 l 1
 493.208007812 504.918945312 l 1x90
 360.6875 504.918945312 l 1xa0
 360.6875 639.53515625 l 1
 193.791992188 639.53515625 l 1x60
EndSplineSet
Validated: 1
Ligature2: "'ccmp' +MLAw6jDVVAhiEAAA-/+UgaJ4wAA in +XnNO7lQNMGhyR07uVA0A lookup 1-3" uni30A8 uni3099
Ligature2: "'ccmp' +MLAw6jDVVAhiEAAA-/+UgaJ4wAA in +XnNO7lQNMGhyR07uVA0A lookup 1-2" uni3048 uni3099
EndChar

StartChar: uni304A_uni3099
Encoding: 65539 -1 271
Width: 872
Flags: W
HStem: 127.423 25.6855<257.667 376.146> 217.039 162.581<564.27 726.851> 443.551 25.6855<257.667 376.145>
VStem: 146 25.6855<239.091 357.569> 462.128 25.6855<239.091 357.57> 564.27 162.581<217.039 379.62>
CounterMasks: 1 e0
LayerCount: 2
Fore
SplineSet
316.90625 469.236328125 m 0
 411.231445312 469.236328125 487.8125 392.65625 487.813476562 298.330078125 c 0
 487.813476562 204.00390625 411.232421875 127.422851562 316.90625 127.422851562 c 0
 222.580078125 127.423828125 146 204.004882812 146 298.330078125 c 0
 146.000976562 392.655273438 222.581054688 469.235351562 316.90625 469.236328125 c 0
316.90625 443.55078125 m 0
 236.756835938 443.549804688 171.686523438 378.479492188 171.685546875 298.330078125 c 0
 171.685546875 218.180664062 236.756835938 153.109375 316.90625 153.108398438 c 0
 397.055664062 153.108398438 462.127929688 218.180664062 462.127929688 298.330078125 c 0
 462.126953125 378.48046875 397.055664062 443.55078125 316.90625 443.55078125 c 0
564.26953125 217.0390625 m 1
 564.26953125 379.620117188 l 1
 726.850585938 379.620117188 l 1
 726.850585938 217.0390625 l 1
 564.26953125 217.0390625 l 1
EndSplineSet
Validated: 1
Ligature2: "'ccmp' +MLAw6jDVVAhiEAAA-/+UgaJ4wAA in +XnNO7lQNMGhyR07uVA0A lookup 1-3" uni30AA uni3099
Ligature2: "'ccmp' +MLAw6jDVVAhiEAAA-/+UgaJ4wAA in +XnNO7lQNMGhyR07uVA0A lookup 1-2" uni304A uni3099
EndChar

StartChar: uni3099
Encoding: 12441 12441 272
Width: 454
Flags: W
HStem: 218.709 162.582<146 308.581>
VStem: 146 162.581<218.709 381.291>
LayerCount: 2
Fore
SplineSet
146 218.708984375 m 1
 146 381.291015625 l 1
 308.581054688 381.291015625 l 1
 308.581054688 218.708984375 l 1
 146 218.708984375 l 1
EndSplineSet
Validated: 1
EndChar

StartChar: uni3301
Encoding: 13057 13057 273
Width: 1000
Flags: W
HStem: -117 10.8672<239.626 431.329 641.079 790.786> 8.36719 13.8223<362.076 506.975> 236.678 13.8223<362.076 506.975> 348.25 13.9824<221.921 371.628 647.069 791.967> 576.561 13.8223<647.069 791.967> 704.883 10.8672<531.968 723.671>
VStem: 194.183 45.4434<-106.133 250.5> 352.066 10.0098<22.1895 236.678> 371.628 15.0312<362.232 652.29> 486.524 45.4434<348.25 704.883> 506.975 10.0088<22.1895 236.678> 637.06 10.0098<362.072 576.561> 790.786 15.0312<-103.018 187.04 362.072 576.561>
LayerCount: 2
Fore
SplineSet
386.659179688 713.73046875 m 1xff98
 386.659179688 348.25 l 1
 198.024414062 348.25 l 1
 386.659179688 713.73046875 l 1xff98
371.627929688 652.290039062 m 1
 221.920898438 362.232421875 l 1
 371.627929688 362.232421875 l 1
 371.627929688 652.290039062 l 1
637.059570312 590.3828125 m 1
 801.975585938 590.3828125 l 1
 801.975585938 348.25 l 1
 637.059570312 348.25 l 1
 637.059570312 590.3828125 l 1
647.069335938 576.560546875 m 1
 647.069335938 362.072265625 l 1
 791.966796875 362.072265625 l 1
 791.966796875 576.560546875 l 1
 647.069335938 576.560546875 l 1
486.524414062 348.25 m 1xffd8
 486.524414062 715.75 l 1
 505.817382812 715.75 l 1
 531.967773438 715.75 l 1
 723.670898438 715.75 l 1
 723.670898438 704.8828125 l 1
 531.967773438 704.8828125 l 1
 531.967773438 348.25 l 1
 486.524414062 348.25 l 1xffd8
352.06640625 250.5 m 1
 516.983398438 250.5 l 1
 516.983398438 8.3671875 l 1xffb8
 352.06640625 8.3671875 l 1
 352.06640625 250.5 l 1
362.076171875 236.677734375 m 1
 362.076171875 22.189453125 l 1
 506.974609375 22.189453125 l 1
 506.974609375 236.677734375 l 1
 362.076171875 236.677734375 l 1
194.182617188 250.5 m 1
 239.625976562 250.5 l 1
 239.625976562 -106.1328125 l 1
 431.329101562 -106.1328125 l 1
 431.329101562 -117 l 1
 239.625976562 -117 l 1
 213.475585938 -117 l 1
 194.182617188 -117 l 1
 194.182617188 250.5 l 1
805.817382812 248.48046875 m 1
 805.817382812 -117 l 1
 617.182617188 -117 l 1
 805.817382812 248.48046875 l 1
790.786132812 187.040039062 m 1
 641.079101562 -103.017578125 l 1
 790.786132812 -103.017578125 l 1
 790.786132812 187.040039062 l 1
EndSplineSet
EndChar

StartChar: uni3304
Encoding: 13060 13060 274
Width: 1000
Flags: W
HStem: -117 12.0312<279.577 316.034> -77.1113 13.8223<705.027 849.926> -41.3232 12.0303<279.577 316.034> 83.7305 81.29<778.645 849.926> 151.198 13.8223<705.027 778.645> 599.178 11.3594<248.322 291.628 708.37 751.677> 703.4 11.3613<248.322 291.628 708.37 751.677>
VStem: 140.066 45.4434<-117 250.5> 212.184 11.3613<635.316 678.622> 246.76 46.4316<348.25 583.371> 253.951 12.0312<-91.3746 -54.9177> 316.406 11.3613<635.316 678.622> 329.629 12.0293<-91.3746 -54.9177> 427.684 50.3828<348.25 694.303> 441.566 50.3828<-95.5527 250.5> 672.232 11.3594<635.316 678.622> 695.018 10.0098<-63.2891 151.198> 706.809 46.4316<348.25 583.371> 776.455 11.3613<635.316 678.622> 849.926 10.0078<-63.2891 83.7305>
LayerCount: 2
Fore
SplineSet
246.759765625 348.25 m 1xe7d9f0
 246.759765625 583.37109375 l 1
 293.19140625 583.37109375 l 1
 293.19140625 348.25 l 1
 246.759765625 348.25 l 1xe7d9f0
269.974609375 714.76171875 m 0
 301.87109375 714.76171875 327.767578125 688.865234375 327.767578125 656.96875 c 0
 327.767578125 625.073242188 301.87109375 599.177734375 269.974609375 599.177734375 c 0
 238.080078125 599.177734375 212.18359375 625.073242188 212.18359375 656.96875 c 0
 212.18359375 688.865234375 238.080078125 714.76171875 269.974609375 714.76171875 c 0
269.974609375 703.400390625 m 0
 244.349609375 703.400390625 223.544921875 682.595703125 223.544921875 656.96875 c 0
 223.544921875 631.34375 244.349609375 610.537109375 269.974609375 610.537109375 c 0
 295.6015625 610.537109375 316.40625 631.34375 316.40625 656.96875 c 0
 316.40625 682.595703125 295.6015625 703.400390625 269.974609375 703.400390625 c 0
427.68359375 348.25 m 1xe79df0
 427.68359375 715.75 l 1
 468.06640625 715.75 l 1
 478.06640625 715.75 l 1
 503.630859375 715.75 l 1
 674.998046875 348.25 l 1
 639.43359375 348.25 l 1
 478.06640625 694.302734375 l 1
 478.06640625 348.25 l 1
 427.68359375 348.25 l 1xe79df0
706.80859375 348.25 m 1
 706.80859375 583.37109375 l 1
 753.240234375 583.37109375 l 1
 753.240234375 348.25 l 1
 706.80859375 348.25 l 1
730.0234375 714.76171875 m 0
 761.919921875 714.76171875 787.81640625 688.865234375 787.81640625 656.96875 c 0
 787.814453125 625.073242188 761.919921875 599.177734375 730.0234375 599.177734375 c 0
 698.126953125 599.177734375 672.232421875 625.073242188 672.232421875 656.96875 c 0
 672.232421875 688.865234375 698.126953125 714.76171875 730.0234375 714.76171875 c 0
730.0234375 703.400390625 m 0
 704.396484375 703.400390625 683.591796875 682.595703125 683.591796875 656.96875 c 0
 683.591796875 631.34375 704.396484375 610.537109375 730.0234375 610.537109375 c 0
 755.650390625 610.537109375 776.455078125 631.34375 776.455078125 656.96875 c 0
 776.455078125 682.595703125 755.650390625 703.400390625 730.0234375 703.400390625 c 0
297.8046875 -29.29296875 m 0
 322.0078125 -29.29296875 341.658203125 -48.943359375 341.658203125 -73.146484375 c 0
 341.658203125 -97.349609375 322.0078125 -117 297.8046875 -117 c 0
 273.6015625 -117 253.951171875 -97.349609375 253.951171875 -73.146484375 c 0xe7b9f0
 253.951171875 -48.943359375 273.6015625 -29.29296875 297.8046875 -29.29296875 c 0
297.8046875 -41.3232421875 m 0
 280.2421875 -41.3232421875 265.982421875 -55.58203125 265.982421875 -73.146484375 c 0
 265.982421875 -90.708984375 280.2421875 -104.96875 297.8046875 -104.96875 c 0
 315.369140625 -104.96875 329.62890625 -90.708984375 329.62890625 -73.146484375 c 0
 329.62890625 -55.58203125 315.369140625 -41.3232421875 297.8046875 -41.3232421875 c 0
140.06640625 -117 m 1
 140.06640625 250.5 l 1
 185.509765625 250.5 l 1
 185.509765625 -117 l 1
 140.06640625 -117 l 1
695.017578125 165.020507812 m 1xef99f0
 778.64453125 165.020507812 l 1xf799f0
 859.93359375 165.020507812 l 1xef99f0
 859.93359375 83.73046875 l 1xf799f0
 859.93359375 -77.111328125 l 1
 695.017578125 -77.111328125 l 1
 695.017578125 165.020507812 l 1xef99f0
705.02734375 151.198242188 m 1xef99f0
 705.02734375 -63.2890625 l 1
 849.92578125 -63.2890625 l 1
 849.92578125 83.73046875 l 1
 778.64453125 83.73046875 l 1xf799f0
 778.64453125 151.198242188 l 1
 705.02734375 151.198242188 l 1xef99f0
441.56640625 250.5 m 1xe79bf0
 491.94921875 250.5 l 1
 491.94921875 -95.552734375 l 1
 653.31640625 250.5 l 1
 688.880859375 250.5 l 1
 517.513671875 -117 l 1
 491.94921875 -117 l 1
 481.947265625 -117 l 1
 441.56640625 -117 l 1
 441.56640625 250.5 l 1xe79bf0
EndSplineSet
EndChar

StartChar: uni3307
Encoding: 13063 13063 275
Width: 1000
Flags: W
HStem: -77.1113 13.8223<259.734 352.469> -19.5391 12.8438<835.234 873.147> 43.124 48.9756<422.959 569.803 696.492 762.246> 124.334 81.291<696.492 748.518> 138.525 12.8428<835.234 873.147> 151.198 13.8223<259.734 352.469> 348.25 10.9258<436.027 596.682> 410.099 13.8223<695.291 840.189> 638.408 13.8223<695.291 840.189> 701.767 13.9824<173.697 323.405> 704.824 10.9258<468.969 631.721>
VStem: 91.1191 32.2461<-95.5527 250.5> 253.328 6.40625<-63.2891 151.198> 323.405 15.0307<411.71 701.767> 352.469 6.40625<-63.2891 151.198> 633.84 29.084<-117 250.5> 685.281 10.0098<423.921 638.408> 696.492 65.7539<44.0283 88.4844> 696.492 52.0254<124.334 205.625> 799.5 8.2207<36.2957 95.5348> 840.189 10.0098<423.921 638.408> 900.66 8.2207<36.2953 95.5348>
LayerCount: 2
Fore
SplineSet
685.28125 652.23046875 m 1xe39f9c
 850.19921875 652.23046875 l 1
 850.19921875 410.098632812 l 1
 685.28125 410.098632812 l 1
 685.28125 652.23046875 l 1xe39f9c
695.291015625 638.408203125 m 1
 695.291015625 423.920898438 l 1
 840.189453125 423.920898438 l 1
 840.189453125 638.408203125 l 1
 695.291015625 638.408203125 l 1
431.30078125 715.75 m 1xe3bf9c
 455.873046875 715.75 l 1
 463.90234375 715.75 l 1
 631.720703125 715.75 l 1
 631.720703125 704.82421875 l 1
 468.96875 704.82421875 l 1
 634.34765625 348.25 l 1
 611.875 348.25 l 1
 601.748046875 348.25 l 1
 436.02734375 348.25 l 1
 436.02734375 359.17578125 l 1
 596.681640625 359.17578125 l 1
 431.30078125 715.75 l 1xe3bf9c
253.328125 165.020507812 m 1xe79f9c
 358.875 165.020507812 l 1
 358.875 -77.111328125 l 1
 253.328125 -77.111328125 l 1
 253.328125 165.020507812 l 1xe79f9c
259.734375 151.198242188 m 1
 259.734375 -63.2890625 l 1
 352.46875 -63.2890625 l 1
 352.46875 151.198242188 l 1
 259.734375 151.198242188 l 1
91.119140625 250.5 m 1
 123.365234375 250.5 l 1
 123.365234375 -95.552734375 l 1
 226.638671875 250.5 l 1
 249.400390625 250.5 l 1
 139.724609375 -117 l 1
 123.365234375 -117 l 1
 116.96484375 -117 l 1
 91.119140625 -117 l 1
 91.119140625 250.5 l 1
422.958984375 43.1240234375 m 1
 422.958984375 92.099609375 l 1
 569.802734375 92.099609375 l 1
 569.802734375 43.1240234375 l 1
 422.958984375 43.1240234375 l 1
633.83984375 -117 m 1
 633.83984375 250.5 l 1
 662.923828125 250.5 l 1
 662.923828125 -117 l 1
 633.83984375 -117 l 1
696.4921875 44.0283203125 m 1xe39fdc
 696.4921875 88.484375 l 1
 762.24609375 88.484375 l 1
 762.24609375 44.0283203125 l 1
 696.4921875 44.0283203125 l 1xe39fdc
854.189453125 151.368164062 m 0xeb9f9c
 884.375 151.368164062 908.880859375 113.078125 908.880859375 65.9150390625 c 0
 908.880859375 18.751953125 884.375 -19.5380859375 854.189453125 -19.5390625 c 0
 824.005859375 -19.537109375 799.5 18.7529296875 799.5 65.9150390625 c 0
 799.501953125 113.078125 824.005859375 151.3671875 854.189453125 151.368164062 c 0xeb9f9c
854.189453125 138.525390625 m 0
 828.54296875 138.525390625 807.720703125 105.990234375 807.720703125 65.9150390625 c 0
 807.720703125 25.8408203125 828.54296875 -6.6953125 854.189453125 -6.6953125 c 0
 879.837890625 -6.6953125 900.66015625 25.83984375 900.66015625 65.9150390625 c 0
 900.66015625 105.990234375 879.837890625 138.525390625 854.189453125 138.525390625 c 0
696.4921875 124.333984375 m 1xf39fbc
 696.4921875 205.625 l 1
 748.517578125 205.625 l 1
 748.517578125 124.333984375 l 1
 696.4921875 124.333984375 l 1xf39fbc
EndSplineSet
Refer: 3 12360 N 0.5 0 0 0.5 76.8013 382 2
EndChar

StartChar: uni3308
Encoding: 13064 13064 276
Width: 1000
Flags: W
HStem: -117 13.9824<344.537 494.244> 43.124 48.9756<609.279 838.721> 512.374 48.9756<526.029 755.471> 705.767 13.9824<268.425 418.133>
VStem: 161.279 50.3828<-95.5527 250.5> 418.133 15.0307<415.71 705.767> 494.244 15.0312<-103.018 187.04>
LayerCount: 2
Fore
SplineSet
526.029296875 512.374023438 m 1
 526.029296875 561.349609375 l 1
 755.470703125 561.349609375 l 1
 755.470703125 512.374023438 l 1
 526.029296875 512.374023438 l 1
509.275390625 248.48046875 m 1
 509.275390625 -117 l 1
 320.641601562 -117 l 1
 509.275390625 248.48046875 l 1
494.244140625 187.040039062 m 1
 344.537109375 -103.017578125 l 1
 494.244140625 -103.017578125 l 1
 494.244140625 187.040039062 l 1
161.279296875 250.5 m 1
 211.662109375 250.5 l 1
 211.662109375 -95.552734375 l 1
 373.029296875 250.5 l 1
 408.59375 250.5 l 1
 237.2265625 -117 l 1
 211.662109375 -117 l 1
 201.661132812 -117 l 1
 161.279296875 -117 l 1
 161.279296875 250.5 l 1
609.279296875 43.1240234375 m 1
 609.279296875 92.099609375 l 1
 838.720703125 92.099609375 l 1
 838.720703125 43.1240234375 l 1
 609.279296875 43.1240234375 l 1
EndSplineSet
Refer: 3 12360 N 0.5 0 0 0.5 171.529 386 2
EndChar

StartChar: uni330C
Encoding: 13068 13068 277
Width: 1000
Flags: W
HStem: -43.7734 13.8223<288.23 433.129> -19.5391 12.8438<857.803 917.042> 44.0283 44.4561<125.018 227.76 641.018 743.76> 138.525 12.8428<857.803 917.042> 184.536 13.8223<288.23 433.129> 348.25 13.9824<289.27 438.977 729.25 878.957> 704.883 10.8672<599.455 791.158>
VStem: 27.125 45.4434<-117 250.5> 106.012 50.3828<369.697 715.75> 125.018 102.742<44.0283 88.4844> 278.221 10.0098<-29.9512 184.536> 433.129 10.0098<-29.9512 184.536> 438.977 15.0312<362.232 652.29> 543.125 45.4434<-117 250.5> 554.012 45.4434<348.25 704.883> 641.018 102.742<44.0283 88.4844> 801.971 12.8418<36.2957 95.5348> 878.957 15.0312<362.232 652.29> 960.033 12.8418<36.2953 95.5348>
LayerCount: 2
Fore
SplineSet
454.0078125 713.73046875 m 1xff29e0
 454.0078125 348.25 l 1
 265.374023438 348.25 l 1
 454.0078125 713.73046875 l 1xff29e0
438.9765625 652.290039062 m 1
 289.26953125 362.232421875 l 1
 438.9765625 362.232421875 l 1
 438.9765625 652.290039062 l 1
106.01171875 715.75 m 1xffa1e0
 156.39453125 715.75 l 1
 156.39453125 369.697265625 l 1
 317.76171875 715.75 l 1
 353.326171875 715.75 l 1
 181.958984375 348.25 l 1
 156.39453125 348.25 l 1
 146.393554688 348.25 l 1
 106.01171875 348.25 l 1
 106.01171875 715.75 l 1xffa1e0
893.98828125 713.73046875 m 1
 893.98828125 348.25 l 1
 705.353515625 348.25 l 1
 893.98828125 713.73046875 l 1
878.95703125 652.290039062 m 1
 729.25 362.232421875 l 1
 878.95703125 362.232421875 l 1
 878.95703125 652.290039062 l 1
554.01171875 348.25 m 1xff23e0
 554.01171875 715.75 l 1
 573.3046875 715.75 l 1
 599.455078125 715.75 l 1
 791.158203125 715.75 l 1
 791.158203125 704.8828125 l 1
 599.455078125 704.8828125 l 1
 599.455078125 348.25 l 1
 554.01171875 348.25 l 1xff23e0
27.125 -117 m 1
 27.125 250.5 l 1
 72.568359375 250.5 l 1
 72.568359375 -117 l 1
 27.125 -117 l 1
125.017578125 44.0283203125 m 1xff61e0
 125.017578125 88.484375 l 1
 227.759765625 88.484375 l 1
 227.759765625 44.0283203125 l 1
 125.017578125 44.0283203125 l 1xff61e0
278.220703125 198.358398438 m 1
 443.138671875 198.358398438 l 1
 443.138671875 -43.7734375 l 1xff31e0
 278.220703125 -43.7734375 l 1
 278.220703125 198.358398438 l 1
288.23046875 184.536132812 m 1
 288.23046875 -29.951171875 l 1
 433.12890625 -29.951171875 l 1
 433.12890625 184.536132812 l 1
 288.23046875 184.536132812 l 1
543.125 -117 m 1xff25e0
 543.125 250.5 l 1
 588.568359375 250.5 l 1
 588.568359375 -117 l 1
 543.125 -117 l 1xff25e0
641.017578125 44.0283203125 m 1
 641.017578125 88.484375 l 1
 743.759765625 88.484375 l 1
 743.759765625 44.0283203125 l 1
 641.017578125 44.0283203125 l 1
887.421875 151.368164062 m 0
 934.5859375 151.368164062 972.875 113.078125 972.875 65.9150390625 c 0
 972.875 18.751953125 934.5859375 -19.5380859375 887.421875 -19.5390625 c 0
 840.259765625 -19.537109375 801.970703125 18.7529296875 801.970703125 65.9150390625 c 0
 801.970703125 113.078125 840.259765625 151.3671875 887.421875 151.368164062 c 0
887.421875 138.525390625 m 0
 847.34765625 138.525390625 814.8125 105.990234375 814.8125 65.9150390625 c 0
 814.8125 25.8408203125 847.34765625 -6.6953125 887.421875 -6.6953125 c 0
 927.498046875 -6.6953125 960.033203125 25.83984375 960.033203125 65.9150390625 c 0
 960.033203125 105.990234375 927.49609375 138.525390625 887.421875 138.525390625 c 0
EndSplineSet
EndChar

StartChar: uni330D
Encoding: 13069 13069 278
Width: 1000
Flags: W
HStem: 43.124 48.9756<625.779 855.221> 133.928 11.3594<446.348 489.654> 239.633 10.8672<190.223 381.926 449.705 486.298> 348.25 13.9824<285.908 435.615> 447.382 12.8428<782.275 841.515> 605.445 12.8438<782.275 841.515> 704.883 10.8672<596.094 787.797>
VStem: 102.65 50.3828<369.697 715.75> 144.779 45.4434<-117 239.633> 410.209 11.3613<170.066 213.372> 435.615 15.0312<362.232 652.29> 444.785 46.4316<-117 118.121> 514.433 11.3604<170.066 213.372> 550.65 45.4434<348.25 704.883> 726.441 12.8438<503.215 562.455> 884.506 12.8438<503.215 562.455>
LayerCount: 2
Fore
SplineSet
450.646484375 713.73046875 m 1xfe6f
 450.646484375 348.25 l 1
 262.013671875 348.25 l 1
 450.646484375 713.73046875 l 1xfe6f
435.615234375 652.290039062 m 1
 285.908203125 362.232421875 l 1
 435.615234375 362.232421875 l 1
 435.615234375 652.290039062 l 1
102.650390625 715.75 m 1xff4f
 153.033203125 715.75 l 1
 153.033203125 369.697265625 l 1
 314.400390625 715.75 l 1
 349.96484375 715.75 l 1
 178.59765625 348.25 l 1
 153.033203125 348.25 l 1
 143.033203125 348.25 l 1
 102.650390625 348.25 l 1
 102.650390625 715.75 l 1xff4f
811.89453125 447.381835938 m 0
 764.732421875 447.3828125 726.443359375 485.671875 726.44140625 532.834960938 c 0
 726.44140625 579.998046875 764.732421875 618.288085938 811.89453125 618.2890625 c 0
 859.05859375 618.2890625 897.349609375 579.998046875 897.349609375 532.834960938 c 0
 897.34765625 485.671875 859.05859375 447.381835938 811.89453125 447.381835938 c 0
811.89453125 460.224609375 m 0
 851.970703125 460.224609375 884.505859375 492.759765625 884.505859375 532.834960938 c 0
 884.505859375 572.91015625 851.970703125 605.4453125 811.89453125 605.4453125 c 0
 771.8203125 605.4453125 739.28515625 572.91015625 739.28515625 532.834960938 c 0
 739.28515625 492.759765625 771.8203125 460.224609375 811.89453125 460.224609375 c 0
550.650390625 348.25 m 1
 550.650390625 715.75 l 1
 569.943359375 715.75 l 1
 596.09375 715.75 l 1
 787.796875 715.75 l 1
 787.796875 704.8828125 l 1
 596.09375 704.8828125 l 1
 596.09375 348.25 l 1
 550.650390625 348.25 l 1
444.78515625 -117 m 1xfe5f
 444.78515625 118.12109375 l 1
 491.216796875 118.12109375 l 1
 491.216796875 -117 l 1
 444.78515625 -117 l 1xfe5f
468.000976562 249.51171875 m 0
 499.897460938 249.51171875 525.79296875 223.615234375 525.79296875 191.71875 c 0
 525.79296875 159.823242188 499.897460938 133.927734375 468.000976562 133.927734375 c 0
 436.10546875 133.927734375 410.208984375 159.823242188 410.208984375 191.71875 c 0
 410.208984375 223.615234375 436.10546875 249.51171875 468.000976562 249.51171875 c 0
468.000976562 238.150390625 m 0
 442.375 238.150390625 421.5703125 217.345703125 421.5703125 191.71875 c 0
 421.5703125 166.09375 442.375 145.287109375 468.000976562 145.287109375 c 0
 493.626953125 145.287109375 514.432617188 166.09375 514.432617188 191.71875 c 0
 514.432617188 217.345703125 493.626953125 238.150390625 468.000976562 238.150390625 c 0
144.779296875 -117 m 1xfecf
 144.779296875 250.5 l 1
 164.072265625 250.5 l 1
 190.22265625 250.5 l 1
 381.92578125 250.5 l 1
 381.92578125 239.6328125 l 1
 190.22265625 239.6328125 l 1
 190.22265625 -117 l 1
 144.779296875 -117 l 1xfecf
625.779296875 43.1240234375 m 1
 625.779296875 92.099609375 l 1
 855.220703125 92.099609375 l 1
 855.220703125 43.1240234375 l 1
 625.779296875 43.1240234375 l 1
EndSplineSet
EndChar

StartChar: uni3312
Encoding: 13074 13074 279
Width: 1000
Flags: W
HStem: 43.124 48.9756<625.779 855.221> 133.928 11.3594<446.348 489.654> 239.633 10.8672<190.223 381.926 449.705 486.298> 410.099 13.8223<825.613 970.512> 599.178 11.3594<330.038 373.345> 638.408 13.8223<825.613 970.512> 704.883 10.8672<333.395 369.988 509.48 701.182>
VStem: 19.4805 50.3828<369.697 715.75> 144.779 45.4434<-117 239.633> 293.9 11.3594<635.316 678.622> 328.477 46.4316<348.25 583.371> 398.123 11.3613<635.316 678.622> 410.209 11.3613<170.066 213.372> 444.785 46.4316<-117 118.121> 514.433 11.3604<170.066 213.372> 701.182 45.4453<348.25 704.883> 815.604 10.0098<423.921 638.408> 970.512 10.0078<423.921 638.408>
LayerCount: 2
Fore
SplineSet
328.4765625 348.25 m 1
 328.4765625 583.37109375 l 1
 374.908203125 583.37109375 l 1
 374.908203125 348.25 l 1
 328.4765625 348.25 l 1
351.69140625 714.76171875 m 0
 383.587890625 714.76171875 409.484375 688.865234375 409.484375 656.96875 c 0
 409.484375 625.073242188 383.587890625 599.177734375 351.69140625 599.177734375 c 0
 319.794921875 599.177734375 293.900390625 625.073242188 293.900390625 656.96875 c 0
 293.900390625 688.865234375 319.794921875 714.76171875 351.69140625 714.76171875 c 0
351.69140625 703.400390625 m 0
 326.064453125 703.400390625 305.259765625 682.595703125 305.259765625 656.96875 c 0
 305.259765625 631.34375 326.064453125 610.537109375 351.69140625 610.537109375 c 0
 377.318359375 610.537109375 398.123046875 631.34375 398.123046875 656.96875 c 0
 398.123046875 682.595703125 377.318359375 703.400390625 351.69140625 703.400390625 c 0
19.48046875 715.75 m 1
 69.86328125 715.75 l 1
 69.86328125 369.697265625 l 1
 231.23046875 715.75 l 1
 266.794921875 715.75 l 1
 95.427734375 348.25 l 1
 69.86328125 348.25 l 1
 59.861328125 348.25 l 1
 19.48046875 348.25 l 1
 19.48046875 715.75 l 1
815.603515625 652.23046875 m 1
 980.51953125 652.23046875 l 1
 980.51953125 410.098632812 l 1
 815.603515625 410.098632812 l 1
 815.603515625 652.23046875 l 1
825.61328125 638.408203125 m 1
 825.61328125 423.920898438 l 1
 970.51171875 423.920898438 l 1
 970.51171875 638.408203125 l 1
 825.61328125 638.408203125 l 1
746.626953125 348.25 m 1
 701.181640625 348.25 l 1
 701.181640625 704.8828125 l 1
 509.48046875 704.8828125 l 1
 509.48046875 715.75 l 1
 701.181640625 715.75 l 1
 727.33203125 715.75 l 1
 746.626953125 715.75 l 1
 746.626953125 348.25 l 1
444.78515625 -117 m 1
 444.78515625 118.12109375 l 1
 491.216796875 118.12109375 l 1
 491.216796875 -117 l 1
 444.78515625 -117 l 1
468.000976562 249.51171875 m 0
 499.897460938 249.51171875 525.79296875 223.615234375 525.79296875 191.71875 c 0
 525.79296875 159.823242188 499.897460938 133.927734375 468.000976562 133.927734375 c 0
 436.10546875 133.927734375 410.208984375 159.823242188 410.208984375 191.71875 c 0
 410.208984375 223.615234375 436.10546875 249.51171875 468.000976562 249.51171875 c 0
468.000976562 238.150390625 m 0
 442.375 238.150390625 421.5703125 217.345703125 421.5703125 191.71875 c 0
 421.5703125 166.09375 442.375 145.287109375 468.000976562 145.287109375 c 0
 493.626953125 145.287109375 514.432617188 166.09375 514.432617188 191.71875 c 0
 514.432617188 217.345703125 493.626953125 238.150390625 468.000976562 238.150390625 c 0
144.779296875 -117 m 1
 144.779296875 250.5 l 1
 164.072265625 250.5 l 1
 190.22265625 250.5 l 1
 381.92578125 250.5 l 1
 381.92578125 239.6328125 l 1
 190.22265625 239.6328125 l 1
 190.22265625 -117 l 1
 144.779296875 -117 l 1
625.779296875 43.1240234375 m 1
 625.779296875 92.099609375 l 1
 855.220703125 92.099609375 l 1
 855.220703125 43.1240234375 l 1
 625.779296875 43.1240234375 l 1
EndSplineSet
EndChar

StartChar: uni3313
Encoding: 13075 13075 280
Width: 1000
Flags: W
HStem: -117 13.9824<350.748 500.456> 43.124 48.9756<252.923 355.665 615.529 844.971> 169.209 81.291<434.196 474.572 491.253 500.456> 348.25 81.291<258.154 339.444> 348.25 13.8223<747.819 892.717> 576.561 13.8223<747.819 892.717> 599.178 11.3594<407.832 451.139> 704.883 10.8672<411.189 447.782 632.718 824.421>
VStem: 97.2744 50.3828<369.697 715.75> 155.029 45.4434<-117 250.5> 252.923 102.742<44.0283 88.4844> 258.154 81.29<348.25 429.541> 371.694 11.3594<635.316 678.622> 406.271 46.4316<348.25 583.371> 434.196 81.29<169.209 250.5> 475.917 11.3613<635.316 678.622> 500.456 15.0303<-103.018 169.209> 587.274 45.4434<348.25 704.883> 737.81 10.0098<362.072 576.561> 892.717 10.0088<362.072 576.561>
LayerCount: 2
Fore
SplineSet
406.270507812 348.25 m 1xefcc70
 406.270507812 583.37109375 l 1
 452.702148438 583.37109375 l 1
 452.702148438 348.25 l 1
 406.270507812 348.25 l 1xefcc70
429.485351562 714.76171875 m 0
 461.381835938 714.76171875 487.278320312 688.865234375 487.278320312 656.96875 c 0xe7c970
 487.278320312 625.073242188 461.381835938 599.177734375 429.485351562 599.177734375 c 0
 397.58984375 599.177734375 371.694335938 625.073242188 371.694335938 656.96875 c 0
 371.694335938 688.865234375 397.588867188 714.76171875 429.485351562 714.76171875 c 0
429.485351562 703.400390625 m 0
 403.859375 703.400390625 383.053710938 682.595703125 383.053710938 656.96875 c 0
 383.053710938 631.34375 403.859375 610.537109375 429.485351562 610.537109375 c 0
 455.112304688 610.537109375 475.916992188 631.34375 475.916992188 656.96875 c 0
 475.916992188 682.595703125 455.112304688 703.400390625 429.485351562 703.400390625 c 0
97.2744140625 715.75 m 1
 147.657226562 715.75 l 1
 147.657226562 369.697265625 l 1
 309.024414062 715.75 l 1
 344.588867188 715.75 l 1
 173.221679688 348.25 l 1
 147.657226562 348.25 l 1
 137.65625 348.25 l 1
 97.2744140625 348.25 l 1xefc870
 97.2744140625 715.75 l 1
258.154296875 348.25 m 1xf7d870
 258.154296875 429.541015625 l 1
 339.444335938 429.541015625 l 1
 339.444335938 348.25 l 1
 258.154296875 348.25 l 1xf7d870
737.809570312 590.3828125 m 1
 902.725585938 590.3828125 l 1
 902.725585938 348.25 l 1
 737.809570312 348.25 l 1xefc870
 737.809570312 590.3828125 l 1
747.819335938 576.560546875 m 1
 747.819335938 362.072265625 l 1
 892.716796875 362.072265625 l 1
 892.716796875 576.560546875 l 1
 747.819335938 576.560546875 l 1
587.274414062 348.25 m 1
 587.274414062 715.75 l 1
 606.567382812 715.75 l 1
 632.717773438 715.75 l 1
 824.420898438 715.75 l 1
 824.420898438 704.8828125 l 1
 632.717773438 704.8828125 l 1
 632.717773438 348.25 l 1
 587.274414062 348.25 l 1
434.196289062 250.5 m 1xe7ca70
 515.486328125 250.5 l 1
 515.486328125 248.48046875 l 1
 515.486328125 169.208984375 l 1xe7ca70
 515.486328125 -117 l 1xe7c8f0
 326.8515625 -117 l 1
 474.572265625 169.208984375 l 1
 434.196289062 169.208984375 l 1
 434.196289062 250.5 l 1xe7ca70
491.252929688 169.208984375 m 1
 350.748046875 -103.017578125 l 1
 500.456054688 -103.017578125 l 1
 500.456054688 169.208984375 l 1xe7c8f0
 491.252929688 169.208984375 l 1
155.029296875 -117 m 1
 155.029296875 250.5 l 1
 200.47265625 250.5 l 1
 200.47265625 -117 l 1
 155.029296875 -117 l 1
252.922851562 44.0283203125 m 1xe7e870
 252.922851562 88.484375 l 1
 355.665039062 88.484375 l 1
 355.665039062 44.0283203125 l 1
 252.922851562 44.0283203125 l 1xe7e870
615.529296875 43.1240234375 m 1
 615.529296875 92.099609375 l 1
 844.970703125 92.099609375 l 1
 844.970703125 43.1240234375 l 1
 615.529296875 43.1240234375 l 1
EndSplineSet
EndChar

StartChar: uni3315
Encoding: 13077 13077 281
Width: 1000
Flags: W
HStem: -117 13.9824<504.656 600.469> -77.1113 13.8223<229.279 322.014> 8.36719 13.8223<840.195 932.931> 83.7305 81.29<276.394 322.014> 151.198 13.8223<229.279 276.394> 239.633 10.8672<421.588 544.277 840.195 932.931> 447.382 12.8428<803.275 862.515> 599.178 11.3594<392.209 435.515> 605.445 12.8438<803.275 862.515> 704.883 10.8672<395.565 432.158 617.094 808.797>
VStem: 60.6641 32.2451<-95.5527 250.5> 81.6504 50.3828<369.697 715.75> 222.873 6.40625<-63.2891 151.198> 276.394 52.0264<83.7305 151.198> 322.014 6.40625<-63.2891 83.7305> 356.07 11.3594<635.316 678.622> 390.646 46.4316<348.25 583.371> 392.504 29.084<-117 239.633> 460.293 11.3613<635.316 678.622> 571.65 45.4434<348.25 704.883> 600.469 9.62012<-103.018 187.04> 674.104 29.083<-117 250.5> 747.441 12.8438<503.215 562.455> 757.518 29.083<-117 250.5> 833.789 6.40625<22.1895 236.678> 905.506 12.8438<503.215 562.455> 932.931 6.40527<22.1895 236.678>
LayerCount: 2
Fore
SplineSet
390.646484375 348.25 m 1xe649a4e0
 390.646484375 583.37109375 l 1
 437.078125 583.37109375 l 1
 437.078125 348.25 l 1
 390.646484375 348.25 l 1xe649a4e0
413.861328125 714.76171875 m 0
 445.7578125 714.76171875 471.654296875 688.865234375 471.654296875 656.96875 c 0
 471.654296875 625.073242188 445.7578125 599.177734375 413.861328125 599.177734375 c 0xe74924e0
 381.966796875 599.177734375 356.0703125 625.073242188 356.0703125 656.96875 c 0
 356.0703125 688.865234375 381.96484375 714.76171875 413.861328125 714.76171875 c 0
413.861328125 703.400390625 m 0
 388.236328125 703.400390625 367.4296875 682.595703125 367.4296875 656.96875 c 0
 367.4296875 631.34375 388.236328125 610.537109375 413.861328125 610.537109375 c 0
 439.48828125 610.537109375 460.29296875 631.34375 460.29296875 656.96875 c 0
 460.29296875 682.595703125 439.48828125 703.400390625 413.861328125 703.400390625 c 0
81.650390625 715.75 m 1xe65924e0
 132.033203125 715.75 l 1
 132.033203125 369.697265625 l 1
 293.400390625 715.75 l 1
 328.96484375 715.75 l 1
 157.59765625 348.25 l 1
 132.033203125 348.25 l 1
 122.033203125 348.25 l 1
 81.650390625 348.25 l 1
 81.650390625 715.75 l 1xe65924e0
832.89453125 447.381835938 m 0
 785.732421875 447.3828125 747.443359375 485.671875 747.44140625 532.834960938 c 0
 747.44140625 579.998046875 785.732421875 618.288085938 832.89453125 618.2890625 c 0xe6c926e0
 880.05859375 618.2890625 918.349609375 579.998046875 918.349609375 532.834960938 c 0
 918.34765625 485.671875 880.05859375 447.381835938 832.89453125 447.381835938 c 0
832.89453125 460.224609375 m 0
 872.970703125 460.224609375 905.505859375 492.759765625 905.505859375 532.834960938 c 0
 905.505859375 572.91015625 872.970703125 605.4453125 832.89453125 605.4453125 c 0
 792.8203125 605.4453125 760.28515625 572.91015625 760.28515625 532.834960938 c 0
 760.28515625 492.759765625 792.8203125 460.224609375 832.89453125 460.224609375 c 0
571.650390625 348.25 m 1xe64934e0
 571.650390625 715.75 l 1
 590.943359375 715.75 l 1
 617.09375 715.75 l 1
 808.796875 715.75 l 1
 808.796875 704.8828125 l 1
 617.09375 704.8828125 l 1
 617.09375 348.25 l 1
 571.650390625 348.25 l 1xe64934e0
222.873046875 165.020507812 m 1xee4b24e0
 276.393554688 165.020507812 l 1xf64d24e0
 328.419921875 165.020507812 l 1xee4b24e0
 328.419921875 83.73046875 l 1xf64d24e0
 328.419921875 -77.111328125 l 1
 222.873046875 -77.111328125 l 1
 222.873046875 165.020507812 l 1xee4b24e0
229.279296875 151.198242188 m 1xee4d24e0
 229.279296875 -63.2890625 l 1
 322.013671875 -63.2890625 l 1
 322.013671875 83.73046875 l 1xf64b24e0
 276.393554688 83.73046875 l 1xf64d24e0
 276.393554688 151.198242188 l 1
 229.279296875 151.198242188 l 1xee4d24e0
60.6640625 250.5 m 1xe66924e0
 92.9091796875 250.5 l 1
 92.9091796875 -95.552734375 l 1
 196.18359375 250.5 l 1
 218.9453125 250.5 l 1
 109.26953125 -117 l 1
 92.9091796875 -117 l 1
 86.5087890625 -117 l 1
 60.6640625 -117 l 1
 60.6640625 250.5 l 1xe66924e0
610.088867188 248.48046875 m 1xe6492ce0
 610.088867188 -117 l 1
 489.362304688 -117 l 1
 610.088867188 248.48046875 l 1xe6492ce0
600.46875 187.040039062 m 1
 504.65625 -103.017578125 l 1
 600.46875 -103.017578125 l 1
 600.46875 187.040039062 l 1
392.50390625 -117 m 1xe64964e0
 392.50390625 250.5 l 1
 404.8515625 250.5 l 1
 421.587890625 250.5 l 1
 544.27734375 250.5 l 1
 544.27734375 239.6328125 l 1
 421.587890625 239.6328125 l 1
 421.587890625 -117 l 1
 392.50390625 -117 l 1xe64964e0
674.104492188 -117 m 1
 674.104492188 250.5 l 1
 703.1875 250.5 l 1
 703.1875 -117 l 1
 674.104492188 -117 l 1
757.517578125 -117 m 1xe64925e0
 757.517578125 250.5 l 1
 786.600585938 250.5 l 1
 786.600585938 -117 l 1
 757.517578125 -117 l 1xe64925e0
833.7890625 250.5 m 1
 939.3359375 250.5 l 1
 939.3359375 8.3671875 l 1
 833.7890625 8.3671875 l 1
 833.7890625 250.5 l 1
840.1953125 236.677734375 m 1
 840.1953125 22.189453125 l 1
 932.930664062 22.189453125 l 1
 932.930664062 236.677734375 l 1
 840.1953125 236.677734375 l 1
EndSplineSet
EndChar

StartChar: uni3316
Encoding: 13078 13078 282
Width: 1000
Flags: W
HStem: -117 13.8223<832.673 902.224> -19.5391 12.8438<652.257 680.692> 43.124 48.9756<343.052 453.184 548.2 597.517> 111.311 13.8223<832.673 902.224> 138.525 12.8428<652.257 680.692> 239.633 10.8672<215.996 287.856 777.425 869.441> 447.382 12.8428<803.275 862.515> 599.178 11.3594<392.209 435.515> 605.445 12.8438<803.275 862.515> 704.883 10.8672<395.565 432.158 617.094 808.797>
VStem: 81.6504 50.3828<369.697 715.75> 92.9717 21.8125<-117 250.5> 155.531 21.8135<-117 250.5> 287.856 7.21387<-53.54 236.518> 343.052 110.132<43.124 92.0996> 356.07 11.3594<635.316 678.622> 390.646 46.4316<348.25 583.371> 460.293 11.3613<635.316 678.622> 501.212 21.8125<-117 250.5> 548.2 49.3164<44.0283 88.4844> 571.65 45.4434<348.25 704.883> 625.458 6.16406<36.2957 95.5348> 701.327 6.16504<36.2953 95.5348> 747.441 12.8438<503.215 562.455> 755.611 21.8135<-117 239.633> 827.868 4.80469<-103.178 111.311> 902.224 4.80469<-103.178 111.311> 905.506 12.8438<503.215 562.455>
LayerCount: 2
Fore
SplineSet
390.646484375 348.25 m 1xfe4ce640
 390.646484375 583.37109375 l 1
 437.078125 583.37109375 l 1
 437.078125 348.25 l 1
 390.646484375 348.25 l 1xfe4ce640
413.861328125 714.76171875 m 0
 445.7578125 714.76171875 471.654296875 688.865234375 471.654296875 656.96875 c 0
 471.654296875 625.073242188 445.7578125 599.177734375 413.861328125 599.177734375 c 0
 381.966796875 599.177734375 356.0703125 625.073242188 356.0703125 656.96875 c 0xff4d6640
 356.0703125 688.865234375 381.96484375 714.76171875 413.861328125 714.76171875 c 0
413.861328125 703.400390625 m 0
 388.236328125 703.400390625 367.4296875 682.595703125 367.4296875 656.96875 c 0
 367.4296875 631.34375 388.236328125 610.537109375 413.861328125 610.537109375 c 0
 439.48828125 610.537109375 460.29296875 631.34375 460.29296875 656.96875 c 0
 460.29296875 682.595703125 439.48828125 703.400390625 413.861328125 703.400390625 c 0
81.650390625 715.75 m 1xfe6c6640
 132.033203125 715.75 l 1
 132.033203125 369.697265625 l 1
 293.400390625 715.75 l 1
 328.96484375 715.75 l 1
 157.59765625 348.25 l 1
 132.033203125 348.25 l 1
 122.033203125 348.25 l 1
 81.650390625 348.25 l 1
 81.650390625 715.75 l 1xfe6c6640
832.89453125 447.381835938 m 0
 785.732421875 447.3828125 747.443359375 485.671875 747.44140625 532.834960938 c 0
 747.44140625 579.998046875 785.732421875 618.288085938 832.89453125 618.2890625 c 0
 880.05859375 618.2890625 918.349609375 579.998046875 918.349609375 532.834960938 c 0xfecc6750
 918.34765625 485.671875 880.05859375 447.381835938 832.89453125 447.381835938 c 0
832.89453125 460.224609375 m 0
 872.970703125 460.224609375 905.505859375 492.759765625 905.505859375 532.834960938 c 0
 905.505859375 572.91015625 872.970703125 605.4453125 832.89453125 605.4453125 c 0
 792.8203125 605.4453125 760.28515625 572.91015625 760.28515625 532.834960938 c 0
 760.28515625 492.759765625 792.8203125 460.224609375 832.89453125 460.224609375 c 0
571.650390625 348.25 m 1xfe4c6e40
 571.650390625 715.75 l 1
 590.943359375 715.75 l 1
 617.09375 715.75 l 1
 808.796875 715.75 l 1
 808.796875 704.8828125 l 1
 617.09375 704.8828125 l 1
 617.09375 348.25 l 1
 571.650390625 348.25 l 1xfe4c6e40
295.0703125 -114.98046875 m 1
 204.526367188 250.5 l 1
 295.0703125 250.5 l 1
 295.0703125 -114.98046875 l 1
287.856445312 -53.5400390625 m 1
 287.856445312 236.517578125 l 1
 215.99609375 236.517578125 l 1
 287.856445312 -53.5400390625 l 1
92.9716796875 -117 m 1xfe5c6640
 92.9716796875 250.5 l 1
 114.784179688 250.5 l 1
 114.784179688 -117 l 1
 92.9716796875 -117 l 1xfe5c6640
155.53125 -117 m 1
 155.53125 250.5 l 1
 177.344726562 250.5 l 1
 177.344726562 -117 l 1
 155.53125 -117 l 1
343.051757812 43.1240234375 m 1xfe4e6640
 343.051757812 92.099609375 l 1
 453.18359375 92.099609375 l 1
 453.18359375 43.1240234375 l 1
 343.051757812 43.1240234375 l 1xfe4e6640
501.211914062 -117 m 1
 501.211914062 250.5 l 1
 523.024414062 250.5 l 1
 523.024414062 -117 l 1
 501.211914062 -117 l 1
548.200195312 44.0283203125 m 1xfe4c7640
 548.200195312 88.484375 l 1
 597.516601562 88.484375 l 1
 597.516601562 44.0283203125 l 1
 548.200195312 44.0283203125 l 1xfe4c7640
666.474609375 151.368164062 m 0
 689.112304688 151.368164062 707.4921875 113.078125 707.4921875 65.9150390625 c 0
 707.4921875 18.751953125 689.112304688 -19.5380859375 666.474609375 -19.5390625 c 0
 643.836914062 -19.537109375 625.458007812 18.7529296875 625.458007812 65.9150390625 c 0
 625.458007812 113.078125 643.836914062 151.3671875 666.474609375 151.368164062 c 0
666.474609375 138.525390625 m 0
 647.239257812 138.525390625 631.622070312 105.990234375 631.622070312 65.9150390625 c 0
 631.622070312 25.8408203125 647.239257812 -6.6953125 666.474609375 -6.6953125 c 0
 685.7109375 -6.6953125 701.327148438 25.83984375 701.327148438 65.9150390625 c 0
 701.327148438 105.990234375 685.709960938 138.525390625 666.474609375 138.525390625 c 0
827.868164062 125.1328125 m 1
 907.028320312 125.1328125 l 1
 907.028320312 -117 l 1xfe4c6660
 827.868164062 -117 l 1
 827.868164062 125.1328125 l 1
832.672851562 111.310546875 m 1
 832.672851562 -103.177734375 l 1
 902.223632812 -103.177734375 l 1
 902.223632812 111.310546875 l 1
 832.672851562 111.310546875 l 1
755.611328125 -117 m 1xfe4c66c0
 755.611328125 250.5 l 1
 764.872070312 250.5 l 1
 777.424804688 250.5 l 1
 869.44140625 250.5 l 1
 869.44140625 239.6328125 l 1
 777.424804688 239.6328125 l 1
 777.424804688 -117 l 1
 755.611328125 -117 l 1xfe4c66c0
EndSplineSet
EndChar

StartChar: uni3319
Encoding: 13081 13081 283
Width: 1000
Flags: W
HStem: -117 12.0312<803.715 840.172> -41.3232 12.0303<803.715 840.172> -19.5391 12.8438<448.882 508.122> 44.0283 44.4561<232.098 334.84> 138.525 12.8428<448.882 508.121> 348.25 13.9824<504.656 600.469> 388.139 13.8223<229.279 322.014> 473.617 13.8223<840.195 932.931> 548.98 81.29<276.394 322.014> 616.448 13.8223<229.279 276.394> 704.883 10.8672<421.588 544.277 840.195 932.931>
VStem: 60.6641 32.2451<369.697 715.75> 134.204 45.4434<-117 250.5> 222.873 6.40625<401.961 616.448> 232.098 102.742<44.0283 88.4844> 276.394 52.0264<548.98 616.448> 322.014 6.40625<401.961 548.98> 392.504 29.084<348.25 704.883> 393.05 12.8418<36.2957 95.5348> 551.112 12.8428<36.2953 95.5348> 600.469 9.62012<362.232 652.29> 664.204 45.4434<-117 250.5> 674.104 29.083<348.25 715.75> 757.518 29.083<348.25 715.75> 778.089 12.0312<-91.3746 -54.9177> 833.789 6.40625<487.439 701.928> 853.767 12.0293<-91.3746 -54.9177> 932.931 6.40527<487.439 701.928>
LayerCount: 2
Fore
SplineSet
222.873046875 630.270507812 m 1xff7c9870
 276.393554688 630.270507812 l 1xffbd1870
 328.419921875 630.270507812 l 1xff7c9870
 328.419921875 548.98046875 l 1xffbd1870
 328.419921875 388.138671875 l 1
 222.873046875 388.138671875 l 1
 222.873046875 630.270507812 l 1xff7c9870
229.279296875 616.448242188 m 1xff7d1870
 229.279296875 401.9609375 l 1
 322.013671875 401.9609375 l 1
 322.013671875 548.98046875 l 1xffbc9870
 276.393554688 548.98046875 l 1xffbd1870
 276.393554688 616.448242188 l 1
 229.279296875 616.448242188 l 1xff7d1870
60.6640625 715.75 m 1
 92.9091796875 715.75 l 1
 92.9091796875 369.697265625 l 1
 196.18359375 715.75 l 1
 218.9453125 715.75 l 1
 109.26953125 348.25 l 1
 92.9091796875 348.25 l 1
 86.5087890625 348.25 l 1
 60.6640625 348.25 l 1
 60.6640625 715.75 l 1
610.088867188 713.73046875 m 1
 610.088867188 348.25 l 1
 489.362304688 348.25 l 1
 610.088867188 713.73046875 l 1
600.46875 652.290039062 m 1
 504.65625 362.232421875 l 1
 600.46875 362.232421875 l 1
 600.46875 652.290039062 l 1
392.50390625 348.25 m 1xff3c5870
 392.50390625 715.75 l 1
 404.8515625 715.75 l 1
 421.587890625 715.75 l 1
 544.27734375 715.75 l 1
 544.27734375 704.8828125 l 1
 421.587890625 704.8828125 l 1
 421.587890625 348.25 l 1
 392.50390625 348.25 l 1xff3c5870
674.104492188 348.25 m 1xff3c1a70
 674.104492188 715.75 l 1
 703.1875 715.75 l 1
 703.1875 348.25 l 1
 674.104492188 348.25 l 1xff3c1a70
757.517578125 348.25 m 1xff3c1970
 757.517578125 715.75 l 1
 786.600585938 715.75 l 1
 786.600585938 348.25 l 1
 757.517578125 348.25 l 1xff3c1970
833.7890625 715.75 m 1
 939.3359375 715.75 l 1
 939.3359375 473.6171875 l 1
 833.7890625 473.6171875 l 1
 833.7890625 715.75 l 1
840.1953125 701.927734375 m 1
 840.1953125 487.439453125 l 1
 932.930664062 487.439453125 l 1
 932.930664062 701.927734375 l 1
 840.1953125 701.927734375 l 1
134.204101562 -117 m 1
 134.204101562 250.5 l 1
 179.647460938 250.5 l 1
 179.647460938 -117 l 1
 134.204101562 -117 l 1
232.09765625 44.0283203125 m 1xff3e1870
 232.09765625 88.484375 l 1
 334.83984375 88.484375 l 1
 334.83984375 44.0283203125 l 1
 232.09765625 44.0283203125 l 1xff3e1870
478.501953125 151.368164062 m 0
 525.665039062 151.368164062 563.954101562 113.078125 563.955078125 65.9150390625 c 0
 563.955078125 18.751953125 525.665039062 -19.5380859375 478.501953125 -19.5390625 c 0
 431.338867188 -19.537109375 393.049804688 18.7529296875 393.049804688 65.9150390625 c 0xff3c3870
 393.049804688 113.078125 431.33984375 151.3671875 478.501953125 151.368164062 c 0
478.501953125 138.525390625 m 0
 438.426757812 138.525390625 405.891601562 105.990234375 405.891601562 65.9150390625 c 0
 405.891601562 25.8408203125 438.426757812 -6.6953125 478.501953125 -6.6953125 c 0
 518.577148438 -6.6953125 551.112304688 25.83984375 551.112304688 65.9150390625 c 0
 551.112304688 105.990234375 518.576171875 138.525390625 478.501953125 138.525390625 c 0
821.943359375 -29.29296875 m 0
 846.146484375 -29.29296875 865.795898438 -48.943359375 865.795898438 -73.146484375 c 0
 865.795898438 -97.349609375 846.146484375 -117 821.943359375 -117 c 0
 797.739257812 -117 778.088867188 -97.349609375 778.088867188 -73.146484375 c 0xff3c18f0
 778.088867188 -48.943359375 797.739257812 -29.29296875 821.943359375 -29.29296875 c 0
821.943359375 -41.3232421875 m 0
 804.379882812 -41.3232421875 790.120117188 -55.58203125 790.120117188 -73.146484375 c 0
 790.120117188 -90.708984375 804.379882812 -104.96875 821.943359375 -104.96875 c 0
 839.506835938 -104.96875 853.766601562 -90.708984375 853.766601562 -73.146484375 c 0
 853.766601562 -55.58203125 839.506835938 -41.3232421875 821.943359375 -41.3232421875 c 0
664.204101562 -117 m 1xff3c1c70
 664.204101562 250.5 l 1
 709.647460938 250.5 l 1
 709.647460938 -117 l 1
 664.204101562 -117 l 1xff3c1c70
EndSplineSet
EndChar

StartChar: uni331A
Encoding: 13082 13082 284
Width: 1000
Flags: W
HStem: -117 10.9258<164.402 267.219> -17.8682 12.8428<764.977 802.89> 133.928 11.3594<501.945 529.661> 140.195 12.8438<764.977 802.89> 239.633 10.8672<185.484 289.645 309.242 405.055 504.093 527.513 645.82 768.51> 348.25 13.8223<762.069 906.967> 388.139 13.8223<346.485 491.384> 576.561 13.8223<762.069 906.967> 616.448 13.8223<346.485 491.384> 704.883 10.8672<646.968 838.671>
VStem: 83.0244 50.3828<369.697 715.75> 336.476 10.0098<401.961 616.448> 405.055 9.61914<-53.54 236.518> 478.816 7.27148<170.066 213.372> 491.384 10.0088<401.961 616.448> 500.945 29.7168<-117 118.121> 545.52 7.27148<170.066 213.372> 601.524 45.4434<348.25 704.883> 616.736 29.084<-117 239.633> 729.242 8.2207<37.9652 97.2047> 752.06 10.0098<362.072 576.561> 830.404 8.21875<37.9652 97.2048> 906.967 10.0088<362.072 576.561>
LayerCount: 2
Fore
SplineSet
336.475585938 630.270507812 m 1xcffe9e
 501.392578125 630.270507812 l 1
 501.392578125 388.138671875 l 1
 336.475585938 388.138671875 l 1
 336.475585938 630.270507812 l 1xcffe9e
346.485351562 616.448242188 m 1
 346.485351562 401.9609375 l 1
 491.383789062 401.9609375 l 1
 491.383789062 616.448242188 l 1
 346.485351562 616.448242188 l 1
83.0244140625 715.75 m 1
 133.407226562 715.75 l 1
 133.407226562 369.697265625 l 1
 294.774414062 715.75 l 1
 330.338867188 715.75 l 1
 158.971679688 348.25 l 1
 133.407226562 348.25 l 1
 123.40625 348.25 l 1
 83.0244140625 348.25 l 1
 83.0244140625 715.75 l 1
752.059570312 590.3828125 m 1
 916.975585938 590.3828125 l 1
 916.975585938 348.25 l 1
 752.059570312 348.25 l 1
 752.059570312 590.3828125 l 1
762.069335938 576.560546875 m 1
 762.069335938 362.072265625 l 1
 906.966796875 362.072265625 l 1
 906.966796875 576.560546875 l 1
 762.069335938 576.560546875 l 1
601.524414062 348.25 m 1xcffcde
 601.524414062 715.75 l 1
 620.817382812 715.75 l 1
 646.967773438 715.75 l 1
 838.670898438 715.75 l 1
 838.670898438 704.8828125 l 1
 646.967773438 704.8828125 l 1
 646.967773438 348.25 l 1
 601.524414062 348.25 l 1xcffcde
414.673828125 -114.98046875 m 1
 293.94921875 250.5 l 1
 414.673828125 250.5 l 1
 414.673828125 -114.98046875 l 1
405.0546875 -53.5400390625 m 1
 405.0546875 236.517578125 l 1
 309.2421875 236.517578125 l 1
 405.0546875 -53.5400390625 l 1
161.376953125 250.5 m 1
 177.103515625 250.5 l 1
 182.240234375 250.5 l 1
 289.64453125 250.5 l 1
 289.64453125 239.57421875 l 1
 185.484375 239.57421875 l 1
 291.326171875 -117 l 1
 276.943359375 -117 l 1
 270.462890625 -117 l 1
 164.40234375 -117 l 1
 164.40234375 -106.07421875 l 1
 267.21875 -106.07421875 l 1
 161.376953125 250.5 l 1
500.9453125 -117 m 1xcffd9e
 500.9453125 118.12109375 l 1
 530.662109375 118.12109375 l 1
 530.662109375 -117 l 1
 500.9453125 -117 l 1xcffd9e
515.802734375 249.51171875 m 0
 536.216796875 249.51171875 552.791015625 223.615234375 552.791015625 191.71875 c 0
 552.791015625 159.823242188 536.216796875 133.927734375 515.802734375 133.927734375 c 0xeffc9e
 495.388671875 133.927734375 478.81640625 159.823242188 478.81640625 191.71875 c 0
 478.81640625 223.615234375 495.388671875 249.51171875 515.802734375 249.51171875 c 0
515.802734375 238.150390625 m 0
 499.40234375 238.150390625 486.087890625 217.345703125 486.087890625 191.71875 c 0
 486.087890625 166.09375 499.40234375 145.287109375 515.802734375 145.287109375 c 0
 532.203125 145.287109375 545.51953125 166.09375 545.51953125 191.71875 c 0
 545.51953125 217.345703125 532.203125 238.150390625 515.802734375 238.150390625 c 0
783.93359375 -17.8681640625 m 0
 753.748046875 -17.8671875 729.244140625 20.421875 729.2421875 67.5849609375 c 0
 729.2421875 114.748046875 753.748046875 153.038085938 783.93359375 153.0390625 c 0xdffc9e
 814.1171875 153.0390625 838.623046875 114.748046875 838.623046875 67.5849609375 c 0
 838.623046875 20.421875 814.1171875 -17.8681640625 783.93359375 -17.8681640625 c 0
783.93359375 -5.025390625 m 0
 809.580078125 -5.025390625 830.404296875 27.509765625 830.404296875 67.5849609375 c 0
 830.404296875 107.66015625 809.580078125 140.1953125 783.93359375 140.1953125 c 0
 758.28515625 140.1953125 737.462890625 107.66015625 737.462890625 67.5849609375 c 0
 737.462890625 27.509765625 758.28515625 -5.025390625 783.93359375 -5.025390625 c 0
616.736328125 -117 m 1xcffcbe
 616.736328125 250.5 l 1
 629.083984375 250.5 l 1
 645.8203125 250.5 l 1
 768.509765625 250.5 l 1
 768.509765625 239.6328125 l 1
 645.8203125 239.6328125 l 1
 645.8203125 -117 l 1
 616.736328125 -117 l 1xcffcbe
EndSplineSet
EndChar

StartChar: uni331B
Encoding: 13083 13083 285
Width: 1000
Flags: W
HStem: 43.124 48.9756<161.252 390.693> 236.518 13.9824<674.01 823.717> 388.139 13.8223<330.861 475.76> 447.382 12.8428<817.525 876.765> 605.445 12.8438<817.525 876.765> 616.448 13.8223<330.861 475.76> 704.883 10.8672<631.344 823.047>
VStem: 67.4004 50.3828<369.697 715.75> 320.852 10.0098<401.961 616.448> 475.76 10.0098<401.961 616.448> 490.752 50.3828<-117 229.053> 585.9 45.4434<348.25 704.883> 761.691 12.8438<503.215 562.455> 823.717 15.0312<-53.54 236.518> 919.756 12.8438<503.215 562.455>
LayerCount: 2
Fore
SplineSet
320.8515625 630.270507812 m 1xf7fe
 485.76953125 630.270507812 l 1
 485.76953125 388.138671875 l 1
 320.8515625 388.138671875 l 1
 320.8515625 630.270507812 l 1xf7fe
330.861328125 616.448242188 m 1
 330.861328125 401.9609375 l 1
 475.759765625 401.9609375 l 1
 475.759765625 616.448242188 l 1
 330.861328125 616.448242188 l 1
67.400390625 715.75 m 1
 117.783203125 715.75 l 1
 117.783203125 369.697265625 l 1
 279.150390625 715.75 l 1
 314.71484375 715.75 l 1
 143.34765625 348.25 l 1
 117.783203125 348.25 l 1
 107.783203125 348.25 l 1
 67.400390625 348.25 l 1
 67.400390625 715.75 l 1
847.14453125 447.381835938 m 0
 799.982421875 447.3828125 761.693359375 485.671875 761.69140625 532.834960938 c 0
 761.69140625 579.998046875 799.982421875 618.288085938 847.14453125 618.2890625 c 0xfbfe
 894.30859375 618.2890625 932.599609375 579.998046875 932.599609375 532.834960938 c 0
 932.59765625 485.671875 894.30859375 447.381835938 847.14453125 447.381835938 c 0
847.14453125 460.224609375 m 0
 887.220703125 460.224609375 919.755859375 492.759765625 919.755859375 532.834960938 c 0
 919.755859375 572.91015625 887.220703125 605.4453125 847.14453125 605.4453125 c 0
 807.0703125 605.4453125 774.53515625 572.91015625 774.53515625 532.834960938 c 0
 774.53515625 492.759765625 807.0703125 460.224609375 847.14453125 460.224609375 c 0
585.900390625 348.25 m 1
 585.900390625 715.75 l 1
 605.193359375 715.75 l 1
 631.34375 715.75 l 1
 823.046875 715.75 l 1
 823.046875 704.8828125 l 1
 631.34375 704.8828125 l 1
 631.34375 348.25 l 1
 585.900390625 348.25 l 1
161.251953125 43.1240234375 m 1
 161.251953125 92.099609375 l 1
 390.693359375 92.099609375 l 1
 390.693359375 43.1240234375 l 1
 161.251953125 43.1240234375 l 1
838.748046875 -114.98046875 m 1
 650.114257812 250.5 l 1
 838.748046875 250.5 l 1
 838.748046875 -114.98046875 l 1
823.716796875 -53.5400390625 m 1
 823.716796875 236.517578125 l 1
 674.009765625 236.517578125 l 1
 823.716796875 -53.5400390625 l 1
490.751953125 -117 m 1
 490.751953125 250.5 l 1
 531.133789062 250.5 l 1
 541.134765625 250.5 l 1
 566.69921875 250.5 l 1
 738.06640625 -117 l 1
 702.501953125 -117 l 1
 541.134765625 229.052734375 l 1
 541.134765625 -117 l 1
 490.751953125 -117 l 1
EndSplineSet
EndChar

StartChar: uni331F
Encoding: 13087 13087 286
Width: 1000
Flags: W
HStem: -117 13.8223<762.069 906.967> -77.1113 13.8223<346.485 491.384> 111.311 13.8223<762.069 906.967> 151.198 13.8223<346.485 491.384> 239.633 10.8672<646.968 838.671> 348.25 13.9824<199.435 360.088 425.062 574.769> 599.178 11.3594<725.846 769.153> 704.824 10.9258<232.376 395.128 729.203 765.796>
VStem: 83.0244 50.3828<-95.5527 250.5> 336.476 10.0098<-63.2891 151.198> 491.384 10.0088<-63.2891 151.198> 574.769 15.0312<362.232 652.29> 601.524 45.4434<-117 239.633> 689.708 11.3604<635.316 678.622> 724.284 46.4316<348.25 583.371> 752.06 10.0098<-103.178 111.311> 793.931 11.3613<635.316 678.622> 906.967 10.0088<-103.178 111.311>
LayerCount: 2
Fore
SplineSet
589.799804688 713.73046875 m 1xfffcc0
 589.799804688 348.25 l 1
 401.166015625 348.25 l 1
 589.799804688 713.73046875 l 1xfffcc0
574.768554688 652.290039062 m 1
 425.061523438 362.232421875 l 1
 574.768554688 362.232421875 l 1
 574.768554688 652.290039062 l 1
194.708007812 715.75 m 1
 219.280273438 715.75 l 1
 227.30859375 715.75 l 1
 395.127929688 715.75 l 1
 395.127929688 704.82421875 l 1
 232.375976562 704.82421875 l 1
 397.754882812 348.25 l 1
 375.282226562 348.25 l 1
 365.155273438 348.25 l 1
 199.434570312 348.25 l 1
 199.434570312 359.17578125 l 1
 360.087890625 359.17578125 l 1
 194.708007812 715.75 l 1
724.284179688 348.25 m 1xfffec0
 724.284179688 583.37109375 l 1
 770.715820312 583.37109375 l 1
 770.715820312 348.25 l 1
 724.284179688 348.25 l 1xfffec0
747.499023438 714.76171875 m 0
 779.395507812 714.76171875 805.291992188 688.865234375 805.291992188 656.96875 c 0
 805.291992188 625.073242188 779.395507812 599.177734375 747.499023438 599.177734375 c 0
 715.603515625 599.177734375 689.708007812 625.073242188 689.708007812 656.96875 c 0
 689.708007812 688.865234375 715.603515625 714.76171875 747.499023438 714.76171875 c 0
747.499023438 703.400390625 m 0
 721.874023438 703.400390625 701.068359375 682.595703125 701.068359375 656.96875 c 0
 701.068359375 631.34375 721.874023438 610.537109375 747.499023438 610.537109375 c 0
 773.125976562 610.537109375 793.930664062 631.34375 793.930664062 656.96875 c 0
 793.930664062 682.595703125 773.125976562 703.400390625 747.499023438 703.400390625 c 0
336.475585938 165.020507812 m 1
 501.392578125 165.020507812 l 1
 501.392578125 -77.111328125 l 1
 336.475585938 -77.111328125 l 1
 336.475585938 165.020507812 l 1
346.485351562 151.198242188 m 1
 346.485351562 -63.2890625 l 1
 491.383789062 -63.2890625 l 1
 491.383789062 151.198242188 l 1
 346.485351562 151.198242188 l 1
83.0244140625 250.5 m 1
 133.407226562 250.5 l 1
 133.407226562 -95.552734375 l 1
 294.774414062 250.5 l 1
 330.338867188 250.5 l 1
 158.971679688 -117 l 1
 133.407226562 -117 l 1
 123.40625 -117 l 1
 83.0244140625 -117 l 1
 83.0244140625 250.5 l 1
752.059570312 125.1328125 m 1xfffdc0
 916.975585938 125.1328125 l 1
 916.975585938 -117 l 1
 752.059570312 -117 l 1
 752.059570312 125.1328125 l 1xfffdc0
762.069335938 111.310546875 m 1
 762.069335938 -103.177734375 l 1
 906.966796875 -103.177734375 l 1
 906.966796875 111.310546875 l 1
 762.069335938 111.310546875 l 1
601.524414062 -117 m 1
 601.524414062 250.5 l 1
 620.817382812 250.5 l 1
 646.967773438 250.5 l 1
 838.670898438 250.5 l 1
 838.670898438 239.6328125 l 1
 646.967773438 239.6328125 l 1
 646.967773438 -117 l 1
 601.524414062 -117 l 1
EndSplineSet
EndChar

StartChar: uni3320
Encoding: 13088 13088 287
Width: 1000
Flags: W
HStem: 8.36719 13.8223<777.635 870.371> 43.124 48.9756<185.877 251.631 400.664 547.506> 133.928 11.3594<285.93 313.646> 236.678 13.8223<283.767 315.808 777.635 870.371> 348.25 12.0312<156.431 317.084 382.058 531.765 786.215 822.672> 423.927 12.0303<786.215 822.672> 704.824 10.9258<189.372 352.124>
VStem: 123.225 29.084<-117 250.5> 185.877 65.7539<44.0283 88.4844> 262.801 7.27148<170.066 213.372> 284.93 29.7168<-117 118.121> 329.504 7.27148<170.066 213.372> 531.765 15.0312<362.232 652.29> 611.545 29.082<-117 250.5> 646.704 45.4434<348.25 715.75> 694.957 29.084<-117 250.5> 760.589 12.0312<373.875 410.332> 771.229 6.40625<22.1895 236.678> 836.267 12.0293<373.875 410.332> 870.371 6.4043<22.1895 236.678>
LayerCount: 2
Fore
SplineSet
546.795898438 713.73046875 m 1xffff30
 546.795898438 348.25 l 1
 358.162109375 348.25 l 1
 546.795898438 713.73046875 l 1xffff30
531.764648438 652.290039062 m 1
 382.057617188 362.232421875 l 1
 531.764648438 362.232421875 l 1
 531.764648438 652.290039062 l 1
151.704101562 715.75 m 1
 176.276367188 715.75 l 1
 184.3046875 715.75 l 1
 352.124023438 715.75 l 1
 352.124023438 704.82421875 l 1
 189.372070312 704.82421875 l 1
 354.750976562 348.25 l 1
 332.278320312 348.25 l 1
 322.151367188 348.25 l 1
 156.430664062 348.25 l 1
 156.430664062 359.17578125 l 1
 317.083984375 359.17578125 l 1
 151.704101562 715.75 l 1
804.443359375 435.95703125 m 0
 828.646484375 435.95703125 848.295898438 416.306640625 848.295898438 392.103515625 c 0
 848.295898438 367.900390625 828.646484375 348.25 804.443359375 348.25 c 0
 780.239257812 348.25 760.588867188 367.900390625 760.588867188 392.103515625 c 0xffffb0
 760.588867188 416.306640625 780.239257812 435.95703125 804.443359375 435.95703125 c 0
804.443359375 423.926757812 m 0
 786.879882812 423.926757812 772.620117188 409.66796875 772.620117188 392.103515625 c 0
 772.620117188 374.541015625 786.879882812 360.28125 804.443359375 360.28125 c 0
 822.006835938 360.28125 836.266601562 374.541015625 836.266601562 392.103515625 c 0
 836.266601562 409.66796875 822.006835938 423.926757812 804.443359375 423.926757812 c 0
646.704101562 348.25 m 1
 646.704101562 715.75 l 1
 692.147460938 715.75 l 1
 692.147460938 348.25 l 1
 646.704101562 348.25 l 1
284.9296875 -117 m 1
 284.9296875 118.12109375 l 1
 314.646484375 118.12109375 l 1
 314.646484375 -117 l 1
 284.9296875 -117 l 1
299.787109375 249.51171875 m 0
 320.201171875 249.51171875 336.775390625 223.615234375 336.775390625 191.71875 c 0
 336.775390625 159.823242188 320.201171875 133.927734375 299.787109375 133.927734375 c 0
 279.375 133.927734375 262.80078125 159.823242188 262.80078125 191.71875 c 0
 262.80078125 223.615234375 279.375 249.51171875 299.787109375 249.51171875 c 0
299.787109375 238.150390625 m 0
 283.38671875 238.150390625 270.072265625 217.345703125 270.072265625 191.71875 c 0
 270.072265625 166.09375 283.38671875 145.287109375 299.787109375 145.287109375 c 0
 316.189453125 145.287109375 329.50390625 166.09375 329.50390625 191.71875 c 0
 329.50390625 217.345703125 316.189453125 238.150390625 299.787109375 238.150390625 c 0
123.224609375 -117 m 1
 123.224609375 250.5 l 1
 152.30859375 250.5 l 1
 152.30859375 -117 l 1
 123.224609375 -117 l 1
185.876953125 44.0283203125 m 1
 185.876953125 88.484375 l 1
 251.630859375 88.484375 l 1
 251.630859375 44.0283203125 l 1
 185.876953125 44.0283203125 l 1
400.6640625 43.1240234375 m 1
 400.6640625 92.099609375 l 1
 547.505859375 92.099609375 l 1
 547.505859375 43.1240234375 l 1
 400.6640625 43.1240234375 l 1
611.544921875 -117 m 1
 611.544921875 250.5 l 1
 640.626953125 250.5 l 1
 640.626953125 -117 l 1
 611.544921875 -117 l 1
694.95703125 -117 m 1
 694.95703125 250.5 l 1
 724.041015625 250.5 l 1
 724.041015625 -117 l 1
 694.95703125 -117 l 1
771.228515625 250.5 m 1xffff70
 876.775390625 250.5 l 1
 876.775390625 8.3671875 l 1
 771.228515625 8.3671875 l 1
 771.228515625 250.5 l 1xffff70
777.634765625 236.677734375 m 1
 777.634765625 22.189453125 l 1
 870.37109375 22.189453125 l 1
 870.37109375 236.677734375 l 1
 777.634765625 236.677734375 l 1
EndSplineSet
EndChar

